<?xml version="1.0" encoding="UTF-8"?>
<svg xmlns="http://www.w3.org/2000/svg" viewBox="0 0 467.03 365.89">
  <defs>
    <style>
      .cls-1 {
        fill: #0a0000;
      }

      .cls-2 {
        isolation: isolate;
      }

      .cls-3 {
        mix-blend-mode: multiply;
      }

      .cls-4 {
        mix-blend-mode: screen;
        opacity: .12;
      }
    </style>
  </defs>
  <g class="cls-2">
    <g id="_レイヤー_2" data-name="レイヤー 2">
      <g id="_01データ" data-name="01データ">
        <g class="cls-3">
          <g>
            <g class="cls-4">
              <path class="cls-1" d="M181.37,181.15c25.08-25.19-13.13-47.79,10.86-17.83,13.25-50.21,20.92-35.45-16.88,2.91,5.44-25.77-8.2-49.18,9.87-62.95,28.8-.47-6.52,28.56-3.86,12.52,6.4,10.37-6.15-26.8,14.2-25.89-22.03,34.81,25.6,82.55-21.68,51.99,56.19,6.88,51.65-4.75,2.99,13.85,24.63-10.38-5.57-22.22,18.26-58.48-2.72,18.89-.49,39.19,39.09,72.95-39.5-6.3-15.32-47.74-42.3-7.82,1.95-29.4,46.13-21.95,28.46-11.12-18.92-3.88,16.58-.18-35.77-19.78,20.86,41.24,38.2-21.57,13.85,23.32-11.36-28.26,30.31-37.08,27.98-22.55-19.82-23.16-42.59-4.32-23.88-9.48,13.05,17.2-30.01,18.53,10.11-15.32-11.63,18.56,1.54,25.05-2.74,33.56,4-66.08-22.01-32.28-25.7-46.81,12.49,27.81,10.06,24.88,42.63,38.26-4.31-25.74-43.14-33.44-8.81-40.99-39.59,15.28-24.49,22.65-14.92,23.7-8,13.78,40.54,9.08,36.78,24.42-39.78-28.07,4.54-10.1-19.9,30.23-4.15-.76-11.29-53.85-19.41-72.86,3.51-3.18,27.18,3.08,57.55.68,4.27,26.31-35.71,58.34-45.66,1.95,31.24,6.7,26.08,36.34-13.01,15.01,53.28-3.26,20.15-25.49,56.16,15.09,3.61,11.92-48.19-38.65-3.62-6.12,12.91,4.92-30.15,1.6-19.17,18.22-22.39-3.14-18.11-41.85-3.19-31.68-3.76-9.1,16.82-14.65,6.83,16.9,30.76-1.27-17.98-14.12-19.98-7.75-15.38-32.26-15.29-27.7,16.7,8.24-22.9-33.08-63.47-13.9-54.26-29.53,36.64-16.57-8.29-20.27,10.71,27.08,32-8.26,17.47-62.49,36.39-24.11-41.05,13.06,36.15-14.84,16.99-14.16,7.33-22.85,4.26-30.36-23.71,19.64,12.85-44.57-36.85,16.62-22.56-18.65,28.15,28.05,37.03-48.52,14.79-18.09,36.27-28.81,29.91,22.46,4.95,1.71,29.68-33.45,9.54,22.78,17.22,3.46-23.77-8.89,1.84-34.85,8.66,3.03-16.76-11.58-40.28,11.16-28.66-30.78,3.79,53.94,13.47,38.19,1.62,3.1,9.4,24.95-4.7,8.33-47.29,13.23,11.04,29.92,46.57,28.77,2.97-1.06,44.33,22.64,27.65-6.03,47.05,35.45-30.43-21.01,3.44-6.62-54-32.16,47.87-17.36,44.57-30.04,39.65,29.8-1.58-39.92,15.15-37.78,29.65-36.9-41.22,20.82-11.1-22.02-31.47.91,5.77,11.68,15.44-44-14.45,2.64,19.38-41.4,41.34-20.01,19.26,4.69.45-18.47-18.38,31.12-19.43,6.21,3.15,30.33,39.26-33.85-11.27-73.02,20.31,46.81,26.81,46.94,19.23,30.21,30.68,15.25.31,47.62-4.91,21.56,2.59-22.03,2.99-48.73,17.24-21.13,17.15,3.13,10.36,7.97-12.03-6.4,20.4-3.81,4.11,20.78-5.81,26.65-23.98-2.35,24.54-37.8-21.58-5.34,9.18,4.66,30.56-60.09,34.42-27.17-20.64,20.77-39.66,38.31-35.3,30.59,22.83-15.74-2.81,41.77,32.4-15.52-16.31,48.63,9.48,28.23,11.26,23.51-15.97,15.95-15.16,7.59-10.83,41.47-28.5-15.91-20.16-39.56,4.12-34.44-18.35,12.27-21.73-37.94-3.76-41.99-59.03-7.76-28.54,27.09-3.56,19.21-11.01-51.61-2.59,28.97,13.73,51.57-29.71-2.04-53.17-86.77-41.07-89.73-12.96,29.13-10.53,30.57-4.08,24.61-20.61,38.98-19.72,16.92,23.36-2.73-13.35,4.31-1.31,4.7-.92,30.52-20.32-39.24-43.03-17.6-9.37-16.71-31.02,37.12-1.45,23.2,6.26,43.03-39.06-20.89,11.24-35.86,18.79-16.76-42.53,13.39-4.9,11.6-37.33,50.68,16.5-24.37-9.46-24.77-18.5-59.17,51.18-.8,37.98,43.96,55.4,34.06-10.82,14.65-54.39-41.9-61.96-40.47,21.11,47.2,7.12,39.08,16.82,12.15,1.54-10.9,13.58-20.96,26.63-12.53-46.75,6.15-40.6,17.59-9.79-13.54-31.35,3.76-48.23,53.62-42.12,45.36,23.87-45.23,58.24,3.75,30.36,6.62,20.85,14.15-29.59,8.92-13.7-12.13-4.96-14.67-22.42-1.31,1,23.53-8.93-11.79,12.19-1.42,13.24-6.57-25.62-20.95-10.74-47.58-1.18-36.35-45.96,20.41-20.5,30.04,3.85,19.29-43.95-21.54-12.97-15.21-33.79-1.89,11.06,7.99-28.39,6.83-19.8,36.46,1.46-47.02,48.35-23.95,5.67-24.57,11.26-31,19.43-5.78,65.79-25.98-14.92,1.64-33.51,37.26-45.99,41.21,42.86,7.52,66.31-24.99,47.09-26.69-6.97,12.39,13.7,15.76-8.78-10.5-8.9,42.22,26.26,17.71-5.06,24.4,23.86,10.15-53.18,29.47-48.77,14.4,34.09,5.76,18.6,28.78-4.65,42.2,27.74-40.53,52.86-46.76,39.23-31.48,50.2-28.89-2.86,21.5-37.84-15.94,18.9,32.72,63.19,40.29,8.32,2.05,2.24,14.81,12.6-5.3,25.85-3.81,26.77,38.99,6.97,44.23,14.52,6.32-4.52,49.92,24.87,30.42,7.5,43.64,8.44,1.11,2.22-69.32,20.39-62.69-9.77-4.73-.23,3.4-3.35,19.24.26,9.64-12.49,29.83,4.69,17.29-36.58,20.25-8.53-36.83-43.19-10.47,45.72,9.12,47.75-28.4,38.82-30.63.49,14.1-20.56,20.27-32.47,40.11,26.49-14.55,18.74,19.32,10.19,34.16.8-39.29.88-18.54,30-18.78,6.05,1.4-52.6,28.81-28.7-8.18-27.92-2.33-21.36,33.94.09-7.46-27.2,10.16,5.9,12.35,7.29-6.65,29.03-23.4-34.14,47.63,5.01,65.2,5.26-2.64,12.53-22.36-13.65-13.24-5.36,30.48-7.53,10.6,4.58-44.29-16.94,3.23,23.6,61.82-8.77,32.38,14.97-20.45,5.42,2.93,23.38-25.87,4.38,19.29-17.2,1.69,21.98,45.79-54.67-20.41-4.73-25.48-45.25,30.27,13.3-34.17,33.14-58.36,12.27-20.67,4.12,23.02,8.69,21.53,2.45-.13Z"/>
            </g>
            <g class="cls-4">
              <path class="cls-1" d="M448.69,172.18c-21.13-28.59-49.22,5.78-15.99-13.43-47.64-20.66-31.89-26.03.33,17.12-24.66-9.26-49.85.69-60.75-19.25,3.87-28.54,27.25,10.75,11.79,5.71,11.22-4.77-27.42,2.04-23.45-17.94,31.09,27.03,85.47-12.86,48.13,29.27,15.27-54.51,3.09-51.78,14.14-.87-6.55-25.91-22.8,2.16-55.06-26.87,18.27,5.54,38.66,6.39,78.01-27.65-12.18,38.1-49.5,7.95-14.1,40.64-28.77-6.36-14.74-48.91-6.71-29.82-6.68,18.12,2.33-16.42-24.95,32.38,43.91-14.4-15.56-41.01,25.14-10.17-29.65,6.97-32.09-35.55-18.08-31.06-25.89,16.1-10.69,41.45-12.97,22.18,18.97-10.31,13.79,32.46-13.62-12.31,16.59,14.29,25,2.25,32.76,7.76-64.73-13.91-35.23,16.89-50.15,18.35,29.38-8.16,26.11-6.19,44.24-36.38-26.1.38-39.56,37.61-41.85,2.53,9.14,41.44,18.7,27.63,21.18,18.32,12.41,9.98,15.08-38.71,29.69-32.68-33.74,35.1-9.3-6.01,26.88,24.23-1.38,3.99-54.94,3.04-74.96,8.21-2.62-3.95,7.14-26.4,9.35-56.79,26.65-.25,52.29,44.09-4.95,45.43,11.33-29.87,39.85-20.3,12.88,15.12,4.81-53.16-22.16-23.76,23.38-53.24,12.33-1.77-45.47,41.81-6.6,2.66,6.81-12.02-2.97,30.05,15.13,21.7-6.48,21.66-44.1,11.6-31.8-1.62-9.57,2.34-11.95-18.84,17.73-4.2,3.38-30.6-16.67,15.65-10.67,18.58-34.21,10.34-29.68,10.94,10.67-15.27-36.16,17.65-23.31,60.65-37.37,49.19-10.86-38.72-21.29,5.14,28.38-6.51-3.34-32.88-59.15-26.69-18.35-39.61,6.73,42.55-9.22-37.97-11.43-18.93-21.48-10.69-29.37-8.79,15.84,26.4-42.12-19.42,10.88,38.93-21.83,19.49,31.97-23.6-42.38-43.92-15.65-17.35-23.02-40.19,26.71-26.18,2.43-4.64-28.6-34.38,23.96-6,6.01-16.5-12.38,22.16-34.18-7.07,4.3-8.1-13.97,14.82,4.96,41.5-34.74,23.69,53.9,4.39,39.79-7.56,3.31-1.14,26.09-5.54,7.52,5.91,5.95,48.74,31.24-6.4,35.46-41.7-.6-3.1,29.06-40.41-1.79-28.24,42.14-41.17-25.36,26.92-6.03-4.4-39.93,48.54-9.94-49.94-22.98-48.59,35.44-34.7-39.7-4.46-35.06-20.67-32.01-34.88,14.37,43.89-23.44,7.65-3.84,31.24,12.41-3.94-41.17-21.9.43,14.69-38.01-25.4-13.55-43.89,7.53-18.33-18.19-3.23,27.99,22.86,3.21,20.15,30.45,1.45-27.55-43.92-73.88.14,49.34-13.03,50.44-19.43,32.76-14.46,19.7-28.03,47.13,6.87,20.57,8.1-21.38-5.88-47.73-10.3-18.29-20.23,5.68-16.48,9.44-9.04-8.14,10.93-.69-20.74,21.16-.93,25.47,9.76-5.94,23.35-33.67-29.96-8.53,20.53,5.99-8.37-54.8-39.27-21.67-38.12,17.42,23.54,31.89,44.98,24.92,39.51-12.12-24.94,40.87,9.07-10.46-34.37,45.62,23.45,29.34-5.12,24.94-7.59,13.36,18.19,5.22,16.13,39.37,16.96-20.02,25.78-42.15,13.97-33.43-9.27,9.37,19.99-40.78,15.76-42.08-2.61-16.56,57.19,22.48,32.3,18.45,6.41-52.68,3.1,28.25,6.92,53.05-5.8-6.5,29.06-93.79,39.48-94.9,27.07,26.84,17.2,28.64,15.02,23.71,7.74,35.43,26.25,13.76,22.04.83-23.51,2.25,13.84,4.45,2,30.03,5.51-41.85,14.18-23.88,39.88-17.94,6.74,32.02,36.26,22.72,4.93,43.48.3-26.54,35.46-33.76-16.52-13.74-21.1,6.83,44.06,10.73,6.6,44.48,44.54-21.61-19.99-25.91,5.62-61.29,9.37,6.92-50.71,49.18-30.92,42.02-49.63,12.85,12.9-49.62,47.45-49.35,55.15,49.84-13.76,39.71-1.15,14.55-14.8-10.54-3.17-18.67-16.59-8.37-28.22-.97,47.14,11.27,42.79-14.86,7.64-1.01,31.56,45.74,55.76,38.49,48.48-41.11-30.41,12.49-57,11.12-29.02,17.13-18.48,4.35,30.6-14.06,11.71-15.25,2.7-4.67,21.96,23.41,2.56-13,7.05.43-12.26-4.5-14.08-24.57,22.17-48.65,3.44-36.11-4.32,13.25,48.51,26.61,24.79,19.65-.89-27.91,40.2-16.99,10.53-6.96,33.12,9.56-9.73,2.47,29.1,33.06,25.07-46.26-8.53-16.39-51.41-23.43-9.31-28.95-15.81-2.78-20.08-15.77-68.95-.63,14.99,31.78,38.75,33.81,51.68,13.89-41.24-14.71-69.32-19.29-50.58,11.2,8.75,17.64-11.17-11.7,7.1,40.4,15.16,21.46-23.3,23.36,8.68,13.63-22.06,21.12,57.01,6.89,50.38,10.84-32.83,31.26-14.05,41.01,10.96-35.89-33.53-38.26-59.3-25.21-43.52-21-53.98,20.82,6.07-21.46,35.01,35.2-13.75,49.36-56.39,3.28-7.92,14.98.02-3.34-13.26.13-26.13,42.58-20.58,44.78-.22,8.44-13.4,48.67,11.99,33.82-20,44.27-.83,2.37-8.17-68.19-12.64-58.9-29.61-6.15,8.94,3.33.74,18.52,6.21,9.57,1.2,27.6,16.84,17.8-2.03,14.51,39.22-37.69,2.88-16.86,41.12,15.91-43.83-20.88-51.48-24.43-43,14.01,1.64,16.94,23.38,34.75,38.14-10.39-28.38,21.92-15.62,35.31-4.92-38.72-6.72-18.19-3.66-14.04-32.49,2.29-5.77,20.55,56.34-12.41,27.14-6.51,27.25,30.33,26.23-7.36-1.21,5.94,28.42,13.1-3.97-5.48-8.21-18.76-32.22,41.94,40.93,65.21,4.87-1.81-5.6-20.21-15.75-15.15,11.5,29.32,9.89,9.34,9.05-43.1-11.21.64,17.24,64.67-14.01,30.69,13.55-17.96-17.88,3.71-4.91-22.05-27.01,19.73-1.42-.92,17.25,48.58-14.82-28.41,50.97-25.91.84,23.11,49.29-31.78-18.3-52.7-41.56-18.58-15.24,23.38-.6,22.6-5.34.24-2.44Z"/>
            </g>
          </g>
        </g>
      </g>
    </g>
  </g>
</svg>