<?xml version="1.0" encoding="UTF-8"?>
<svg xmlns="http://www.w3.org/2000/svg" viewBox="0 0 196.64 146.5">
  <defs>
    <style>
      .cls-1 {
        fill: #0a0000;
      }

      .cls-2 {
        isolation: isolate;
      }

      .cls-3 {
        mix-blend-mode: multiply;
      }

      .cls-4 {
        mix-blend-mode: screen;
        opacity: .12;
      }
    </style>
  </defs>
  <g class="cls-2">
    <g id="_レイヤー_2" data-name="レイヤー 2">
      <g id="_01データ" data-name="01データ">
        <g class="cls-3">
          <g class="cls-4">
            <path class="cls-1" d="M17.68,55.45c20.07,29.34,49.4-3.97,15.48,14,46.85,22.4,30.92,27.18.3-17.12,24.3,10.16,49.84,1.13,60,21.46-4.92,28.38-26.84-11.74-11.57-6.13-11.39,4.35,27.47-1.04,22.78,18.79-30.08-28.15-85.88,9.72-47.02-31.02-17.26,53.91-4.98,51.63-14.16.35,5.59,26.13,22.87-1.32,54.04,28.87-18.05-6.21-38.4-7.8-78.97,24.78,13.57-37.63,49.76-6.13,15.58-40.09,28.52,7.41,12.94,49.42,5.61,30.04,7.34-17.87-2.93,16.32,26.12-31.45-44.41,12.79,14.05,41.56-25.49,9.24,29.89-5.88,30.76,36.7,16.93,31.7,26.46-15.14,12.2-41.03,13.77-21.69-19.34,9.61-12.59-32.94,13.16,12.8-16.06-14.89-24.9-3.17-32.45-8.96,64.17,16.27,35.83-15.59,50.79-16.5-29.66,7.08-26.32,5.23-45.55,34.73,26.09.58,40.91-36.13,41.91-.99-7.61-41.75-17.67-28.3-20.49-19.09-12.04-10.43-16.49,38.13-30.87,31.57,35.01-33.84,9.07,6.35-25.98-25.2,1.52-3.94,55.01-1.03,75.21-5.46,2.47,4.04-8.1,26.12-11.42,56.41-26.64-.72-50.64-45.98,6.61-45.22-12.42,29.44-40.57,18.83-12.31-15.58-6.75,52.95,21.28,24.56-25.31,52.35-12.39,1.32,46.97-40.12,6.69-2.41-7.24,11.77,4.07-29.92-14.32-22.24,7.27-21.41,44.5-9.97,31.71,2.78,9.64-1.99,11.25,19.26-17.88,3.55-4.5,30.45,17.24-15.02,11.35-18.18,34.56-9.08,30.06-9.84-11.22,14.86,36.78-16.32,25.51-59.76,39.15-47.79,9.43,39.09,21.46-4.36-28.6,5.47,2.14,32.98,58.13,28.84,16.88,40.26-5.16-42.77,7.82,38.29,10.73,19.33,21.07,11.47,29.03,9.86-14.86-26.97,41.38,20.96-9.45-39.31,22.53-18.68-32.82,22.41,40.74,45.45,15,17.91,21.53,41.01-27.66,25.19-2.6,4.55,27.32,35.41-24.16,5.12-6.61,16.27,13.18-21.69,33.89,8.32-4.6,7.94,14.5-14.3-3.43-41.65,35.59-22.4-53.7-6.36-40.04,6.09-3.35,1.02-26.27,4.58-7.3-6.18-4.16-48.93-31.46,5.25-36.97,40.37.48,3.12-30.52,39.32.76,28.29-43.62,39.6,26.33-25.97,5.86,4.62,41.68-47.04,8.11,50.27,21.19,49.4-36.69,33.38,39.51,5.91,34.28,21.94,30.71,36.03-12.75-44.38,23.71-6.79,4.98-31.08-12.55,3.49,40.34,23.39.11-14.69,37.05,26.78,11.93,44.35-8.2,18.04,18.06,3.9-27.14-23.87-2.47-20.25-30.38-2.57,25.92,44.9,73.84,2.57-49.78,11.21-51.12,17.57-33.27,13.25-20.71,27.29-46.84-8.59-20.26-8.85,21.15,6.66,47.32,12.04,17.53,20.89-6.28,16.26-9.76,8.69,8.54-10.63-.07,20.75-21.18.15-25.1-10.69,6.79-23.12,32.55,31.17,9.28-20.2-6.29,8.15,53.33,41.25,20.26,38.89-16.55-24.16-30.22-46.12-23.46-40.4,11.2,25.37-40.51-10.56,9.19,34.73-44.73-25.11-29.51,4.04-25.2,6.67-12.68-18.67-4.62-16.31-38.72-18.39,20.95-25.03,42.64-12.41,33.07,10.49-8.63-20.32,41.33-14.26,41.95,4.15,18.65-56.54-21.28-33.1-18.2-7.08,52.75-1.17-27.98-7.96-53.23,3.85,7.56-28.81,95.18-36.02,95.83-23.58-26.19-18.17-28.07-16.06-23.41-8.6-34.44-27.53-12.94-22.53-1.69,23.46-1.74-13.92-4.37-2.16-29.81-6.61,42.35-12.63,25.33-38.98,18.17-6.08-30.67-37.41-22.52-5.76-43.44-1.9,27.82-34.47,33.13,17.75,12.95,21.59-5.21-44.28-10.48-6.99-42.81-46.14,20.86,20.76,26.1-4.66,61.59-7.12-8.77,50.43-50.28,29.1-43.81,48.06-12.37-13.36,51.33-45.6,51.33-53.3-50.31,11.92-39.72-.3-15.08,14.26,10.42,3.55,18.05,17.26,7.33,28.5,2.69-47.07-9.7-43.17,15.13-7.09,2.17-31.5-43.67-57.4-36.69-49.85,39.97,31.9-14.57,56.51-12.17,28.59-17.8,17.84-3.23-30.74,14.48-11.19,15.34-2.14,5.47-21.78-23.3-3.42,13.25-6.57-.88,12.24,3.98,14.23,25.37-21.26,48.75-1.66,35.92,5.64-11.46-48.96-25.68-25.75-19.67.17,29.37-39.15,17.37-9.89,8.17-32.84-9.91,9.38-1.4-29.17-32.12-26.27,45.92,10.21,14.5,51.97,23.08,10.16,28.35,16.86,2.05,20.17,13.23,69.49,1.18-14.96-30.34-39.88-31.89-52.88-15.39,40.7,12.16,69.81,17.42,51.25-10.87-9.16-18.04,10.52,11.95-6.66-39.81-16.63-22.3,22.49-23.03-9.53-14.43,21.54-19.01-57.75-5.04-50.6-12.03,32.41-31.75,12.89-40.59-12.45,34.64,34.83,36.06,60.66,23.6,44.42,19.01,54.72-20.58-6.83,22.73-34.2-35.68,12.45-51.39,54.55-3.57,7.79-14.97-.57,2.86,13.37-1.08,26.1-43.31,19.01-44.75-1.42-8.92,13.08-48.19-13.76-34.53,18.74-44.27-.79-2.67,8.08,67.68,15.13,57.78,31.75,6.47-8.71-3.3-.86-18.28-6.89-9.52-1.55-26.97-17.84-17.87,1.38-13.06-39.72,37.77-1.5,18.35-40.47-17.51,43.21,18.98,52.21,22.83,43.86-13.94-2.15-16.07-23.98-33.33-39.39,9.34,28.74-22.48,14.8-35.46,3.62,38.45,8.13,18.05,4.33,12.84,32.98-2.5,5.68-18.48-57.05,13.39-26.66,7.51-26.99-29.35-27.33,7.31,1.48-4.9-28.62-13.24,3.49,5.17,8.4,17.56,32.89-40.41-42.44-64.99-7.26,1.61,5.66,19.62,16.48,15.56-10.94-28.94-10.96-9.01-9.38,42.66,12.78,0-17.25-65.14,11.63-30.17-14.67,17.29,18.52-3.89,4.77,21.04,27.8-19.77.7,1.55-17.21-49.09,13.03,30.26-49.89,25.92.11-21.28-50.11,31.09,19.45,51.14,43.46,18.01,15.91-23.38-.26-22.78,4.51-.33,2.43Z"/>
          </g>
        </g>
      </g>
    </g>
  </g>
</svg>