<?xml version="1.0" encoding="UTF-8"?>
<svg id="_レイヤー_2" data-name="レイヤー 2" xmlns="http://www.w3.org/2000/svg" viewBox="0 0 360 736.89">
  <defs>
    <style>
      .cls-1 {
        fill: #fff;
      }

      .cls-2 {
        fill: none;
        stroke: #fff;
        stroke-linecap: round;
        stroke-width: 10px;
      }
    </style>
  </defs>
  <g id="_00.FV" data-name="00.FV">
    <g>
      <g>
        <g>
          <path d="M83.82,174.78v-6.16c0-.07.04-.11.11-.11h1c.06,0,.1.02.14.08l2.85,4.41v-4.37c0-.07.04-.11.11-.11h.91c.06,0,.11.04.11.11v6.16c0,.07-.05.11-.11.11h-1c-.06,0-.1-.02-.14-.08l-2.87-4.41v4.38c0,.07-.04.11-.11.11h-.9c-.07,0-.11-.04-.11-.11Z"/>
          <path d="M90.25,174.76l2.54-6.16c.02-.06.07-.09.13-.09h.81c.06,0,.1.02.13.09l2.55,6.16s0,.03,0,.05c0,.05-.03.08-.1.08h-1.1c-.06,0-.1-.02-.13-.09l-.45-1.19h-2.65l-.46,1.19c-.02.06-.06.09-.13.09h-1.08c-.08,0-.13-.05-.09-.13ZM94.24,172.52l-.92-2.42-.92,2.42h1.83Z"/>
          <path d="M97.62,174.78v-6.16c0-.07.04-.11.11-.11h.95c.06,0,.11.04.11.11v2.92l2.55-2.97s.09-.06.14-.06h1.11c.06,0,.1.03.1.07,0,.02-.02.04-.03.06l-2.01,2.28,2.31,3.83s.02.04.02.06c0,.05-.03.08-.1.08h-1.12c-.06,0-.1-.02-.13-.08l-1.76-3.02-1.08,1.22v1.77c0,.07-.05.11-.11.11h-.95c-.07,0-.11-.04-.11-.11Z"/>
          <path d="M103.74,174.76l2.54-6.16c.02-.06.07-.09.13-.09h.81c.06,0,.1.02.13.09l2.55,6.16s0,.03,0,.05c0,.05-.03.08-.1.08h-1.1c-.06,0-.1-.02-.13-.09l-.45-1.19h-2.65l-.46,1.19c-.02.06-.06.09-.13.09h-1.08c-.08,0-.13-.05-.09-.13ZM107.72,172.52l-.92-2.42-.92,2.42h1.83Z"/>
          <path d="M111.11,174.78v-6.16c0-.07.04-.11.11-.11h2.12c2.12,0,3.23,1.18,3.23,3.19s-1.11,3.19-3.23,3.19h-2.12c-.07,0-.11-.04-.11-.11ZM115.34,171.7c0-1.34-.72-2.09-2.14-2.09h-.93v4.17h.93c1.41,0,2.14-.75,2.14-2.08Z"/>
          <path d="M117.56,174.76l2.54-6.16c.02-.06.07-.09.13-.09h.81c.06,0,.1.02.13.09l2.55,6.16s0,.03,0,.05c0,.05-.03.08-.1.08h-1.1c-.06,0-.1-.02-.13-.09l-.45-1.19h-2.65l-.46,1.19c-.02.06-.06.09-.13.09h-1.08c-.08,0-.13-.05-.09-.13ZM121.54,172.52l-.92-2.42-.92,2.42h1.83Z"/>
          <path d="M129.82,174.78v-2.31l-2.31-3.82s-.02-.04-.02-.06c0-.05.04-.08.1-.08h1.09c.06,0,.1.02.13.08l1.61,2.82,1.6-2.82c.02-.06.07-.08.13-.08h1.08c.09,0,.13.06.08.14l-2.31,3.81v2.32c0,.07-.04.11-.11.11h-.95c-.07,0-.11-.04-.11-.11Z"/>
          <path d="M134.15,172.29v-3.67c0-.07.05-.11.11-.11h.95c.07,0,.11.04.11.11v3.46c0,1.25.61,1.78,1.41,1.78s1.41-.53,1.41-1.78v-3.46c0-.07.05-.11.11-.11h.96c.06,0,.11.04.11.11v3.67c0,2.03-1.34,2.72-2.59,2.72s-2.58-.69-2.58-2.72Z"/>
          <path d="M142.48,174.78v-2.31l-2.31-3.82s-.02-.04-.02-.06c0-.05.04-.08.1-.08h1.09c.06,0,.1.02.13.08l1.61,2.82,1.6-2.82c.02-.06.07-.08.13-.08h1.08c.09,0,.13.06.08.14l-2.31,3.81v2.32c0,.07-.04.11-.11.11h-.95c-.07,0-.11-.04-.11-.11Z"/>
          <path d="M145.86,174.76l2.54-6.16c.02-.06.07-.09.13-.09h.81c.06,0,.1.02.13.09l2.55,6.16s0,.03,0,.05c0,.05-.03.08-.1.08h-1.1c-.06,0-.1-.02-.13-.09l-.45-1.19h-2.65l-.46,1.19c-.02.06-.06.09-.13.09h-1.08c-.08,0-.13-.05-.09-.13ZM149.85,172.52l-.92-2.42-.92,2.42h1.83Z"/>
          <path d="M156.37,175.73v-7.25c0-.06.06-.11.11-.11h.91c.06,0,.11.05.11.11v7.25c0,.06-.06.11-.11.11h-.91c-.06,0-.11-.05-.11-.11Z"/>
          <path d="M161.21,174.76l2.54-6.16c.02-.06.07-.09.13-.09h.81c.06,0,.1.02.13.09l2.55,6.16s0,.03,0,.05c0,.05-.03.08-.1.08h-1.1c-.06,0-.1-.02-.13-.09l-.45-1.19h-2.65l-.46,1.19c-.02.06-.06.09-.13.09h-1.08c-.08,0-.13-.05-.09-.13ZM165.19,172.52l-.92-2.42-.92,2.42h1.83Z"/>
          <path d="M168.37,172.64c0-1.39.82-2.34,2.1-2.34.59,0,1.09.23,1.42.63v-2.45c0-.07.04-.11.11-.11h.9c.07,0,.12.04.12.11v6.29c0,.07-.05.11-.12.11h-.81c-.07,0-.12-.03-.12-.11l-.03-.51c-.32.44-.84.71-1.47.71-1.28,0-2.1-.96-2.1-2.34ZM170.75,173.95c.72,0,1.22-.54,1.22-1.31s-.5-1.32-1.22-1.32-1.22.54-1.22,1.32.5,1.31,1.22,1.31Z"/>
          <path d="M175.01,174.78v-4.28c0-.07.04-.11.11-.11h.82c.06,0,.12.03.12.11l.02.54c.32-.48.87-.74,1.43-.74.67,0,1.17.3,1.41.83.33-.55.92-.83,1.54-.83.98,0,1.58.63,1.58,1.66v2.82c0,.07-.05.11-.11.11h-.91c-.07,0-.11-.04-.11-.11v-2.36c0-.75-.28-1.09-.8-1.09s-1.02.41-1.02,1.27v2.18c0,.07-.05.11-.11.11h-.91c-.07,0-.11-.04-.11-.11v-2.36c0-.75-.28-1.09-.8-1.09s-1.03.41-1.03,1.27v2.18c0,.07-.04.11-.11.11h-.9c-.07,0-.11-.04-.11-.11Z"/>
          <path d="M183.42,168.96c0-.37.28-.63.66-.63s.66.26.66.63-.28.63-.66.63-.66-.25-.66-.63ZM183.63,170.39h.9c.07,0,.11.04.11.11v4.28c0,.07-.04.11-.11.11h-.9c-.07,0-.11-.04-.11-.11v-4.28c0-.07.04-.11.11-.11Z"/>
          <path d="M186.15,174.78v-4.28c0-.07.04-.11.11-.11h.82c.06,0,.12.03.12.11l.02.51c.33-.48.89-.71,1.47-.71,1.04,0,1.64.63,1.64,1.66v2.82c0,.07-.05.11-.11.11h-.91c-.07,0-.11-.04-.11-.11v-2.36c0-.75-.27-1.09-.86-1.09-.55,0-1.08.41-1.08,1.27v2.18c0,.07-.04.11-.11.11h-.9c-.07,0-.11-.04-.11-.11Z"/>
          <path d="M191.71,168.96c0-.37.28-.63.66-.63s.66.26.66.63-.28.63-.66.63-.66-.25-.66-.63ZM191.92,170.39h.9c.07,0,.11.04.11.11v4.28c0,.07-.04.11-.11.11h-.9c-.07,0-.11-.04-.11-.11v-4.28c0-.07.04-.11.11-.11Z"/>
          <path d="M194.09,173.77s0-.02,0-.04c0-.05.03-.08.09-.1l.79-.22h.03s.09.02.1.07c.21.36.52.48.91.48s.66-.07.66-.33c0-.19-.19-.3-.67-.43l-.22-.06c-1.08-.31-1.5-.83-1.5-1.53,0-.77.7-1.32,1.72-1.32.87,0,1.48.37,1.76,1.13,0,.02.02.04.02.06,0,.04-.03.07-.08.08l-.79.26s-.03,0-.05,0c-.04,0-.07-.02-.1-.07-.16-.28-.39-.46-.78-.46-.29,0-.53.09-.53.32,0,.21.2.33.7.45l.21.06c1.11.27,1.48.75,1.48,1.49,0,.83-.75,1.36-1.78,1.36-.98,0-1.67-.42-1.96-1.2Z"/>
          <path d="M199.25,173.15v-1.75h-.66c-.07,0-.11-.05-.11-.11v-.79c0-.07.04-.11.11-.11h.66v-1.21c0-.06.04-.11.11-.11h.91c.06,0,.11.05.11.11v1.21h1.07c.07,0,.11.04.11.11v.79c0,.06-.04.11-.11.11h-1.07v1.82c0,.49.15.73.5.73.14,0,.25-.06.34-.22.03-.06.09-.09.15-.06l.68.31s.06.06.06.1c0,.02,0,.06-.03.09-.32.59-.82.81-1.33.81-.97,0-1.51-.61-1.51-1.83Z"/>
          <path d="M203.06,174.78v-4.28c0-.07.04-.11.11-.11h.82c.06,0,.12.03.12.11l.02.56c.31-.48.83-.74,1.37-.74.13,0,.22.02.3.03.07.02.1.06.1.12v.89c0,.07-.04.1-.1.1-.12,0-.26-.03-.44-.03-.61,0-1.19.42-1.19,1.13v2.22c0,.07-.04.11-.11.11h-.9c-.07,0-.11-.04-.11-.11Z"/>
          <path d="M206.73,172.64c0-1.39.82-2.34,2.1-2.34.63,0,1.15.26,1.47.71l.03-.51c0-.08.05-.11.12-.11h.81c.07,0,.12.04.12.11v4.28c0,.07-.05.11-.12.11h-.81c-.07,0-.12-.03-.12-.11l-.03-.51c-.32.44-.84.71-1.47.71-1.28,0-2.1-.96-2.1-2.34ZM209.12,173.95c.72,0,1.22-.54,1.22-1.31s-.5-1.32-1.22-1.32-1.22.54-1.22,1.32.5,1.31,1.22,1.31Z"/>
          <path d="M213.13,173.15v-1.75h-.66c-.07,0-.11-.05-.11-.11v-.79c0-.07.04-.11.11-.11h.66v-1.21c0-.06.04-.11.11-.11h.91c.06,0,.11.05.11.11v1.21h1.07c.07,0,.11.04.11.11v.79c0,.06-.04.11-.11.11h-1.07v1.82c0,.49.15.73.5.73.14,0,.25-.06.34-.22.03-.06.09-.09.15-.06l.68.31s.06.06.06.1c0,.02,0,.06-.03.09-.32.59-.82.81-1.33.81-.97,0-1.51-.61-1.51-1.83Z"/>
          <path d="M216.84,168.96c0-.37.28-.63.66-.63s.66.26.66.63-.28.63-.66.63-.66-.25-.66-.63ZM217.05,170.39h.9c.07,0,.11.04.11.11v4.28c0,.07-.04.11-.11.11h-.9c-.07,0-.11-.04-.11-.11v-4.28c0-.07.04-.11.11-.11Z"/>
          <path d="M221.08,174.8l-1.92-4.29s-.02-.04-.02-.06c0-.04.04-.07.1-.07h1.08c.06,0,.1.02.13.09l1.08,2.74,1.08-2.74c.02-.06.06-.09.13-.09h1.01c.08,0,.12.06.08.13l-1.92,4.29c-.02.06-.07.09-.13.09h-.58c-.06,0-.1-.03-.13-.09Z"/>
          <path d="M224.68,172.64c0-1.37.86-2.34,2.28-2.34s2.17,1.03,2.13,2.58c0,.07-.05.11-.12.11h-3.08c.1.62.48.99,1.08.99.46,0,.78-.17.99-.51.04-.06.09-.06.15-.05l.77.26c.07.03.1.08.06.15-.4.79-1.15,1.15-1.98,1.15-1.42,0-2.28-.97-2.28-2.34ZM226.95,171.3c-.53,0-.92.31-1.05.84h1.98c-.1-.53-.45-.84-.93-.84Z"/>
          <path d="M233.03,173.33s0-.03,0-.05c0-.05.03-.07.08-.09l.91-.22s.03,0,.04,0c.05,0,.08.03.1.08.23.56.59.82,1.24.82s1.04-.2,1.04-.67-.39-.71-1.04-.95l-.56-.2c-1.02-.35-1.64-.95-1.64-1.86,0-1.04.93-1.79,2.14-1.79,1.07,0,1.86.5,2.18,1.56,0,.02,0,.03,0,.05,0,.04-.03.07-.08.09l-.96.24s-.03,0-.05,0c-.04,0-.07-.03-.1-.08-.21-.52-.54-.71-1.01-.71-.56,0-.92.23-.92.61s.33.66,1.08.91l.45.15c1.16.38,1.72.93,1.72,1.98s-.92,1.82-2.25,1.82c-1.19,0-2.02-.58-2.36-1.69Z"/>
          <path d="M238.59,172.64c0-1.39.9-2.34,2.3-2.34,1.01,0,1.72.42,2.05,1.31,0,.02,0,.03,0,.04,0,.05-.03.09-.09.1l-.75.22h-.04s-.08-.02-.11-.07c-.2-.38-.53-.57-1-.57-.82,0-1.21.6-1.21,1.32s.39,1.31,1.21,1.31c.46,0,.82-.2,1-.6.04-.06.09-.09.15-.06l.83.2c.06.02.1.06.06.14-.35.93-1.12,1.36-2.11,1.36-1.42,0-2.31-.96-2.31-2.34Z"/>
          <path d="M244.2,174.78v-4.28c0-.07.04-.11.11-.11h.82c.06,0,.12.03.12.11l.02.56c.3-.48.83-.74,1.37-.74.13,0,.22.02.3.03.07.02.1.06.1.12v.89c0,.07-.04.1-.1.1-.12,0-.26-.03-.44-.03-.61,0-1.19.42-1.19,1.13v2.22c0,.07-.04.11-.11.11h-.9c-.07,0-.11-.04-.11-.11Z"/>
          <path d="M248.04,168.96c0-.37.28-.63.66-.63s.66.26.66.63-.28.63-.66.63-.66-.25-.66-.63ZM248.25,170.39h.9c.07,0,.11.04.11.11v4.28c0,.07-.04.11-.11.11h-.9c-.07,0-.11-.04-.11-.11v-4.28c0-.07.04-.11.11-.11Z"/>
          <path d="M252.29,174.8l-1.92-4.29s-.02-.04-.02-.06c0-.04.04-.07.1-.07h1.08c.06,0,.1.02.13.09l1.08,2.74,1.08-2.74c.02-.06.06-.09.13-.09h1.01c.08,0,.12.06.08.13l-1.92,4.29c-.02.06-.07.09-.13.09h-.58c-.06,0-.1-.03-.13-.09Z"/>
          <path d="M255.88,172.64c0-1.37.86-2.34,2.28-2.34s2.17,1.03,2.13,2.58c0,.07-.05.11-.12.11h-3.08c.1.62.48.99,1.08.99.46,0,.78-.17.99-.51.04-.06.09-.06.15-.05l.77.26c.07.03.1.08.06.15-.4.79-1.15,1.15-1.98,1.15-1.42,0-2.28-.97-2.28-2.34ZM258.16,171.3c-.53,0-.92.31-1.05.84h1.98c-.1-.53-.45-.84-.93-.84Z"/>
          <path d="M261.45,174.78v-4.28c0-.07.04-.11.11-.11h.82c.06,0,.12.03.12.11l.02.51c.33-.48.89-.71,1.47-.71,1.04,0,1.64.63,1.64,1.66v2.82c0,.07-.05.11-.11.11h-.91c-.07,0-.11-.04-.11-.11v-2.36c0-.75-.27-1.09-.86-1.09-.55,0-1.08.41-1.08,1.27v2.18c0,.07-.04.11-.11.11h-.9c-.07,0-.11-.04-.11-.11Z"/>
          <path d="M266.85,172.64c0-1.37.86-2.34,2.28-2.34s2.17,1.03,2.13,2.58c0,.07-.05.11-.12.11h-3.08c.1.62.48.99,1.08.99.46,0,.78-.17.99-.51.04-.06.09-.06.15-.05l.77.26c.07.03.1.08.06.15-.4.79-1.15,1.15-1.98,1.15-1.42,0-2.28-.97-2.28-2.34ZM269.12,171.3c-.53,0-.92.31-1.05.84h1.98c-.1-.53-.45-.84-.93-.84Z"/>
          <path d="M272.42,174.78v-4.28c0-.07.04-.11.11-.11h.82c.06,0,.12.03.12.11l.02.56c.31-.48.83-.74,1.37-.74.13,0,.22.02.3.03.07.02.1.06.1.12v.89c0,.07-.04.1-.1.1-.12,0-.26-.03-.44-.03-.61,0-1.19.42-1.19,1.13v2.22c0,.07-.04.11-.11.11h-.9c-.07,0-.11-.04-.11-.11Z"/>
        </g>
        <g>
          <g>
            <polygon class="cls-2" points="184.64 129.03 169 129.03 158.29 137.22 158.29 123.99 147.58 123.99 147.58 157.39 158.29 157.39 158.29 149.2 169 157.39 184.64 157.39 165.86 143.21 184.64 129.03"/>
            <path class="cls-2" d="M135.74,148.92h5v-24.93h-31.35v33.4h10.72v-8.46l11.08,8.46h15.65l-11.09-8.47ZM120.11,140.49v-8.23h10.45v8.23s-10.45,0-10.45,0Z"/>
            <path class="cls-2" d="M72,123.99v33.4h10.45v-8.47h10.45v8.47h10.45v-33.4h-31.35ZM82.45,140.49v-8.23h10.45v8.23h-10.45Z"/>
            <path class="cls-2" d="M275.23,123.65c4.6,0,8.55,1.68,11.83,5.02,3.29,3.35,4.94,7.35,4.94,12.01s-1.66,8.76-4.97,12.08c-3.31,3.32-7.34,4.97-12.08,4.97s-8.73-1.66-12.06-4.99c-3.33-3.33-4.99-7.35-4.99-12.05s1.68-8.79,5.03-12.09c3.36-3.3,7.46-4.95,12.31-4.95ZM274.95,133.21c-1.98,0-3.67.73-5.07,2.18-1.39,1.46-2.09,3.22-2.09,5.29s.7,3.82,2.1,5.28c1.41,1.46,3.09,2.19,5.05,2.19s3.69-.73,5.08-2.18c1.39-1.45,2.08-3.21,2.08-5.29s-.7-3.84-2.08-5.3c-1.39-1.45-3.08-2.17-5.08-2.17Z"/>
            <path class="cls-2" d="M238.41,123.61c4.6,0,8.54,1.68,11.83,5.02,3.29,3.35,4.93,7.35,4.93,12.01s-1.66,8.77-4.97,12.09c-3.31,3.31-7.34,4.96-12.08,4.96s-8.73-1.66-12.06-4.99c-3.33-3.33-4.99-7.35-4.99-12.06s1.68-8.79,5.03-12.08c3.36-3.3,7.46-4.95,12.31-4.95ZM238.12,133.18c-1.98,0-3.67.73-5.07,2.19-1.39,1.46-2.09,3.21-2.09,5.28s.7,3.82,2.11,5.28c1.4,1.46,3.08,2.19,5.05,2.19s3.69-.72,5.08-2.18c1.38-1.45,2.08-3.21,2.08-5.29s-.7-3.84-2.08-5.29c-1.39-1.45-3.08-2.17-5.08-2.17Z"/>
            <path class="cls-2" d="M215.78,123.69c2.69,0,3.81,2.01,2.5,4.47l-8.18,15.36c-1.3,2.45-.18,4.46,2.5,4.46h3.03c2.69,0,4.88,2.2,4.88,4.89s-2.19,4.89-4.88,4.89h-21.66c-2.68,0-3.81-2.02-2.5-4.47l8.13-15.35c1.31-2.46.18-4.47-2.5-4.47h-3.86c-2.68,0-4.87-2.2-4.87-4.9s2.19-4.89,4.87-4.89h22.55Z"/>
          </g>
          <g>
            <polygon points="184.64 129.03 169 129.03 158.29 137.22 158.29 123.99 147.58 123.99 147.58 157.39 158.29 157.39 158.29 149.2 169 157.39 184.64 157.39 165.86 143.21 184.64 129.03"/>
            <path d="M135.74,148.92h5v-24.93h-31.35v33.4h10.72v-8.46l11.08,8.46h15.65l-11.09-8.47ZM120.11,140.49v-8.23h10.45v8.23s-10.45,0-10.45,0Z"/>
            <path d="M72,123.99v33.4h10.45v-8.47h10.45v8.47h10.45v-33.4h-31.35ZM82.45,140.49v-8.23h10.45v8.23h-10.45Z"/>
            <path d="M275.23,123.65c4.6,0,8.55,1.68,11.83,5.02,3.29,3.35,4.94,7.35,4.94,12.01s-1.66,8.76-4.97,12.08c-3.31,3.32-7.34,4.97-12.08,4.97s-8.73-1.66-12.06-4.99c-3.33-3.33-4.99-7.35-4.99-12.05s1.68-8.79,5.03-12.09c3.36-3.3,7.46-4.95,12.31-4.95ZM274.95,133.21c-1.98,0-3.67.73-5.07,2.18-1.39,1.46-2.09,3.22-2.09,5.29s.7,3.82,2.1,5.28c1.41,1.46,3.09,2.19,5.05,2.19s3.69-.73,5.08-2.18c1.39-1.45,2.08-3.21,2.08-5.29s-.7-3.84-2.08-5.3c-1.39-1.45-3.08-2.17-5.08-2.17Z"/>
            <path d="M238.41,123.61c4.6,0,8.54,1.68,11.83,5.02,3.29,3.35,4.93,7.35,4.93,12.01s-1.66,8.77-4.97,12.09c-3.31,3.31-7.34,4.96-12.08,4.96s-8.73-1.66-12.06-4.99c-3.33-3.33-4.99-7.35-4.99-12.06s1.68-8.79,5.03-12.08c3.36-3.3,7.46-4.95,12.31-4.95ZM238.12,133.18c-1.98,0-3.67.73-5.07,2.19-1.39,1.46-2.09,3.21-2.09,5.28s.7,3.82,2.11,5.28c1.4,1.46,3.08,2.19,5.05,2.19s3.69-.72,5.08-2.18c1.38-1.45,2.08-3.21,2.08-5.29s-.7-3.84-2.08-5.29c-1.39-1.45-3.08-2.17-5.08-2.17Z"/>
            <path d="M215.78,123.69c2.69,0,3.81,2.01,2.5,4.47l-8.18,15.36c-1.3,2.45-.18,4.46,2.5,4.46h3.03c2.69,0,4.88,2.2,4.88,4.89s-2.19,4.89-4.88,4.89h-21.66c-2.68,0-3.81-2.02-2.5-4.47l8.13-15.35c1.31-2.46.18-4.47-2.5-4.47h-3.86c-2.68,0-4.87-2.2-4.87-4.9s2.19-4.89,4.87-4.89h22.55Z"/>
          </g>
        </g>
        <g>
          <rect x="95.19" y="181.99" width="170.12" height="16.67" rx="8.34" ry="8.34"/>
          <g>
            <path class="cls-1" d="M119.28,194.24v-3.12c-.25.22-.5.42-.74.57-.03.02-.06.03-.08.03-.05,0-.08-.03-.1-.08l-.42-.93s-.02-.05-.02-.07c0-.05.03-.07.08-.1.95-.46,1.78-1.37,2.32-2.26.03-.05.07-.07.1-.07.02,0,.05,0,.08.02l.77.39c.08.04.09.1.06.18-.2.39-.5.82-.85,1.22v4.22c0,.08-.05.13-.13.13h-.93c-.08,0-.13-.05-.13-.13ZM118.06,187.92s.03-.07.07-.1c.82-.46,1.46-1.14,1.91-1.9.05-.07.1-.09.18-.06l.82.41s.07.06.07.1c0,.03,0,.06-.03.09-.61,1.04-1.42,1.89-2.3,2.43-.03.02-.06.03-.08.03-.04,0-.08-.03-.1-.07l-.51-.85s-.03-.06-.03-.07ZM121.36,189.77v-.89c0-.08.05-.13.13-.13h4.96c.08,0,.13.05.13.13v.89c0,.08-.05.13-.13.13h-1.23v2.75c0,1.26-.37,1.69-2.15,1.69h-.29c-.08,0-.12-.04-.15-.1l-.38-.9s0-.04,0-.06c0-.07.05-.1.13-.09.18,0,.34.02.48.02,1.03,0,1.12-.27,1.12-.72v-2.59h-2.49c-.08,0-.13-.05-.13-.13ZM121.79,186.24h4.33c.08,0,.13.05.13.13v.89c0,.08-.05.13-.13.13h-4.33c-.08,0-.13-.05-.13-.13v-.89c0-.08.05-.13.13-.13Z"/>
            <path class="cls-1" d="M129.05,188.46h.78c.08,0,.13.05.13.13v4.09l.53-.11v-5.09h-1.7c-.08,0-.13-.05-.13-.13v-.85c0-.08.05-.13.13-.13h3.86c.08,0,.13.05.13.13v.85c0,.08-.05.13-.13.13h-1.05v1.73h.7l.03-.06c.64-.84,1.11-2.08,1.32-3.19.02-.08.07-.12.15-.11l.94.11c.08,0,.12.07.1.16-.07.32-.17.66-.29,1h2.45c.08,0,.13.05.13.13v.88c0,.08-.05.13-.13.13h-.36c-.11,1.31-.45,2.57-1.09,3.64.42.46.96.86,1.58,1.23.05.03.08.07.08.11,0,.02,0,.05-.03.07l-.59.92s-.06.07-.09.07c-.03,0-.06,0-.08-.03-.61-.38-1.15-.82-1.59-1.36-.53.55-1.19,1.01-1.98,1.41-.03,0-.05.02-.07.02-.04,0-.08-.02-.1-.07l-.52-.76s-.03-.06-.03-.08c0-.04.02-.07.08-.09.08-.04.16-.07.23-.1-1.18.33-2.59.63-3.82.82h-.03c-.07,0-.1-.04-.11-.11l-.1-.89v-.02c0-.07.05-.12.12-.13l.42-.06v-4.27c0-.08.05-.13.13-.13ZM132.63,192.04s.04,0,.05,0c.07,0,.1.05.1.12v.88s0,.04,0,.04c.58-.33,1.04-.71,1.41-1.12-.39-.71-.66-1.5-.81-2.31-.1.17-.21.33-.31.47-.03.04-.06.06-.09.06-.03,0-.07-.02-.09-.06l-.32-.45v.6c0,.08-.05.13-.13.13h-.82v1.95c.38-.09.72-.2,1.02-.29ZM134.87,190.93c.37-.74.54-1.61.63-2.65h-1.36c.11,1.03.33,1.9.73,2.65Z"/>
            <path class="cls-1" d="M139.48,189.89v-.37c0-.08.05-.13.13-.13h3.01v-.33h-2.75c-.08,0-.13-.05-.13-.13v-.4c0-.08.05-.13.13-.13h2.75v-.34h-3.43c-.08,0-.13-.05-.13-.13v-.44c0-.08.05-.13.13-.13h3.43v-.33h-2.75c-.08,0-.13-.05-.13-.13v-.47c0-.08.05-.13.13-.13h2.75v-.33c0-.08.05-.13.13-.13h.96c.08,0,.13.05.13.13v.33h2.76c.08,0,.13.05.13.13v.88h.65c.08,0,.13.05.13.13v.53c0,.08-.05.13-.13.13h-.65v.82c0,.08-.05.13-.13.13h-2.76v.33h3.1c.08,0,.13.05.13.13v.37c0,.08-.05.13-.13.13h-3.1v.34h3.56c.08,0,.13.05.13.13v.5c0,.08-.05.13-.13.13h-8.23c-.08,0-.13-.05-.13-.13v-.5c0-.08.05-.13.13-.13h3.45v-.34h-3.01c-.08,0-.13-.05-.13-.13ZM139.96,191.43h6.65c.08,0,.13.05.13.13v2.5c0,.08-.05.13-.13.13h-6.65c-.08,0-.13-.05-.13-.13v-2.5c0-.08.05-.13.13-.13ZM145.56,192.1h-4.54v.37h4.54v-.37ZM145.56,193.07h-4.54v.4h4.54v-.4ZM145.56,187.02h-1.72v.37h1.72v-.37ZM145.56,188h-1.72v.38h1.72v-.38Z"/>
            <path class="cls-1" d="M149.52,189.62v-.96c0-.08.05-.13.13-.13h3.45v-2.57c0-.08.05-.13.13-.13h1.07c.08,0,.13.05.13.13v2.57h3.48c.08,0,.13.05.13.13v.96c0,.08-.05.13-.13.13h-3.48v3.13h3.01c.08,0,.13.05.13.13v.92c0,.08-.05.13-.13.13h-7.3c-.08,0-.13-.05-.13-.13v-.92c0-.08.05-.13.13-.13h2.96v-3.13h-3.45c-.08,0-.13-.05-.13-.13Z"/>
            <path class="cls-1" d="M160.52,192.87v-.57c0-.08.05-.13.13-.13h3.05v-.41h-3.58c-.08,0-.13-.05-.13-.13v-.56c0-.08.05-.13.13-.13h3.58v-.39h-3.04c-.08,0-.13-.05-.13-.13v-.51c0-.08.05-.13.13-.13h3.04v-.37h-2.85c-.08,0-.13-.05-.13-.13v-1.56c0-.08.05-.13.13-.13h2.85v-.36h-3.43c-.08,0-.13-.05-.13-.13v-.59c0-.08.05-.13.13-.13h3.43v-.41c0-.08.05-.13.13-.13h.93c.08,0,.13.05.13.13v.41h3.39c.08,0,.13.05.13.13v.59c0,.08-.05.13-.13.13h-3.39v.36h2.84c.08,0,.13.05.13.13v1.56c0,.08-.05.13-.13.13h-2.84v.37h2.92c.08,0,.13.05.13.13v.98h.48c.08,0,.13.05.13.13v.65c0,.08-.05.13-.13.13h-.48v1.08c0,.08-.05.13-.13.13h-2.92c0,1.11-.3,1.37-1.7,1.37-.16,0-.33,0-.51,0-.08,0-.13-.04-.16-.1l-.27-.67s0-.05,0-.07c0-.06.04-.09.12-.08.2,0,.36.02.5.02.68,0,.81-.12.83-.46h-3.05c-.08,0-.13-.05-.13-.13ZM163.7,188.29h-1.79v.43h1.79v-.43ZM166.68,188.29h-1.79v.43h1.79v-.43ZM166.77,190.54h-1.88v.41h1.88v-.41ZM166.77,191.73h-1.88v.44h1.88v-.44Z"/>
            <path class="cls-1" d="M171.64,194.37c-.08,0-.13-.04-.16-.11l-.29-.85s0-.04,0-.05c0-.07.05-.1.13-.09.67.04.86-.11.86-.53v-.44c0-.37.02-1.04.04-1.65-.27.91-.67,1.76-1.17,2.46-.03.04-.06.06-.09.06-.03,0-.07-.02-.09-.07l-.49-.74s-.03-.06-.03-.08c0-.04,0-.07.04-.1.49-.57.93-1.38,1.2-2.21h-.95c-.08,0-.13-.05-.13-.13v-.77c0-.08.05-.13.13-.13h1.49c-.37-.35-.79-.69-1.15-.94-.05-.03-.07-.07-.07-.09,0-.04.02-.07.06-.09l.57-.45s.07-.04.1-.04c.03,0,.06,0,.08.03.23.16.49.37.74.6.26-.26.51-.57.64-.82h-2.28c-.08,0-.13-.05-.13-.13v-.77c0-.08.05-.13.13-.13h3.34c.08,0,.13.05.13.13v.77c0,.07,0,.1-.03.16-.26.52-.66,1.04-1.08,1.5.09.09.18.19.26.28h.98c.08,0,.13.05.13.13v.35c.49-.08.94-.22,1.33-.42-.26-.25-.48-.52-.67-.82-.17.16-.34.31-.52.44-.03.02-.06.03-.08.03-.04,0-.08-.02-.1-.07l-.48-.71s-.03-.06-.03-.08c0-.04.02-.07.07-.09.64-.43,1.13-1.11,1.38-1.75.03-.07.08-.11.16-.1l.9.08c.09,0,.14.07.1.15-.05.11-.1.23-.16.36h2.38c.08,0,.13.05.13.13v.67c0,.08-.05.13-.13.13h-.36c-.17.62-.47,1.14-.87,1.58.42.19.9.34,1.42.42.09.02.13.07.09.16l-.34.85c-.03.07-.08.1-.16.08-.67-.16-1.32-.44-1.88-.8-.57.37-1.24.64-2,.81h-.04c-.06,0-.1-.03-.12-.09l-.08-.2c-.11.61-.31,1.26-.52,1.71-.04.07-.1.09-.18.06l-.67-.3v1.34c0,1.11-.41,1.39-1.52,1.4ZM173.6,189.96h-.44v1.4c.23-.44.38-.97.44-1.4ZM174.49,191.72v-.75c0-.08.05-.13.13-.13h1.26c0-.18,0-.36,0-.55,0-.08.06-.13.14-.13h.87c.08,0,.13.06.13.14,0,.18-.02.36-.04.54h1.63c.08,0,.13.05.13.13,0,.51,0,1.29-.04,1.8-.09,1.21-.49,1.57-1.94,1.53-.08,0-.12-.03-.15-.1l-.27-.76s0-.04,0-.06c0-.06.04-.09.12-.09.77.03,1.04-.06,1.11-.5.04-.24.05-.68.05-.94h-.8c-.31,1.12-1.01,2.04-2.3,2.48-.02,0-.05,0-.07,0-.05,0-.08-.02-.11-.07l-.53-.78s-.03-.06-.03-.07c0-.05.03-.07.09-.09.95-.23,1.57-.73,1.83-1.48h-1.08c-.08,0-.13-.05-.13-.13ZM176.74,188.4c.28-.29.5-.64.63-1.04h-1.45c.22.41.49.76.82,1.04Z"/>
            <path class="cls-1" d="M181.41,189.62v-1.56c0-.08.05-.13.13-.13h3.26c.08,0,.13.05.13.13v3.1c0,.08-.05.13-.13.13h-2.25c-.04.95-.17,2.13-.45,2.94-.03.08-.09.1-.17.07l-.93-.35c-.08-.03-.1-.08-.08-.17.41-1.09.48-2.48.48-4.17ZM181.21,186.15h3.8c.08,0,.13.05.13.13v.82c0,.08-.05.13-.13.13h-3.8c-.08,0-.13-.05-.13-.13v-.82c0-.08.05-.13.13-.13ZM183.81,190.23v-1.27h-1.28v1.27h1.28ZM185.46,194.24l-.97-.35c-.06-.02-.08-.06-.08-.09,0-.03,0-.05.04-.07.83-1.21,1-2.74,1-4.74,0-.72,0-1.68,0-2.49,0-.08.04-.13.12-.14,1.07-.03,2.4-.14,3.35-.43h.06s.09.03.11.09l.25.9v.05c0,.06-.03.09-.09.11-.73.19-1.79.28-2.65.33v1.23h2.82c.08,0,.13.05.13.13v.85c0,.08-.05.13-.13.13h-.73v4.5c0,.08-.04.13-.13.13h-.87c-.08,0-.13-.05-.13-.13v-4.5h-.95c-.03,1.52-.24,3.22-.96,4.44-.04.07-.1.08-.18.06Z"/>
            <path class="cls-1" d="M199.61,186.88c-.09,2.22-1.1,3.79-2.91,4.52-.03,0-.05,0-.07,0-.05,0-.08-.02-.11-.06l-.46-.56c-.4,1.53-1.4,2.68-3.09,3.28-.02,0-.04.02-.06.02-.05,0-.08-.03-.12-.07l-.68-.95s-.03-.05-.03-.07c0-.05.04-.08.11-.1,2.11-.57,2.78-1.93,2.78-3.79,0-.13,0-.26,0-.41,0-.07.05-.12.13-.12h1.03c.08,0,.13.05.13.13,0,.11,0,.22,0,.32,0,.42-.03.82-.09,1.2,1.12-.39,1.82-1.26,1.99-2.29-1.62,0-3.85.02-6.02.04-.08,0-.13-.05-.13-.13v-.96c0-.08.05-.13.13-.13h7.34c.09,0,.14.05.13.13Z"/>
            <path class="cls-1" d="M202.54,190.65v-1.07c0-.07.04-.11.11-.11h7.14c.08,0,.11.04.11.11v1.08c0,.07-.04.11-.11.11h-7.14c-.08,0-.11-.05-.11-.12Z"/>
            <path class="cls-1" d="M214.48,194.2c-.06,0-.09-.02-.12-.07l-.75-.99s-.03-.06-.03-.08c0-.05.03-.07.09-.08,2.74-.46,4.78-2.3,5.25-5.19h-2.69c-.39.98-1.29,2.21-2.3,2.88-.03.02-.06.03-.08.03-.04,0-.07-.02-.1-.05l-.82-.74s-.05-.06-.05-.08c0-.04.02-.07.07-.09,1.25-.72,2.06-2.1,2.38-3,.02-.07.07-.1.14-.1h4.85c.08,0,.13.05.12.16-.37,4.15-2.55,6.47-5.91,7.41-.02,0-.04,0-.05,0Z"/>
            <path class="cls-1" d="M223.4,192.7c2.51-.77,4.43-2.99,4.86-4.65-1.33,0-2.71.03-4.04.03-.09,0-.13-.05-.13-.13v-.97c0-.09.04-.13.13-.13h5.36c-.12-.23-.26-.46-.41-.66-.02-.03-.03-.06-.03-.08,0-.04.03-.07.08-.09l.5-.16s.05,0,.07,0c.04,0,.08.02.11.06.33.4.61.9.76,1.35,0,.02,0,.04,0,.06,0,.05-.03.08-.08.11l-.53.2h-.06c-.06,0-.09-.03-.11-.08l-.03-.1c-.24,1.09-.74,2.14-1.41,3.07,1.07.76,1.99,1.55,2.67,2.37.02.03.04.06.04.08,0,.04-.02.07-.06.09l-.9.82s-.06.04-.08.04c-.04,0-.07-.02-.09-.07-.59-.8-1.41-1.68-2.33-2.39-1,1.1-2.25,1.97-3.56,2.45h-.07s-.08-.02-.11-.07l-.62-.95s-.03-.06-.03-.07c0-.05.03-.08.09-.1ZM231.04,187.11c-.15-.41-.42-.92-.71-1.29-.02-.03-.04-.06-.04-.08,0-.04.04-.07.09-.09l.49-.16s.04,0,.07,0c.04,0,.08.02.11.06.27.34.59.85.78,1.31,0,.02,0,.04,0,.06,0,.05-.03.08-.08.11l-.54.19h-.06s-.08-.03-.11-.08Z"/>
            <path class="cls-1" d="M234.01,190.65v-1.07c0-.07.04-.11.11-.11h7.14c.08,0,.11.04.11.11v1.08c0,.07-.04.11-.11.11h-7.14c-.08,0-.11-.05-.11-.12Z"/>
          </g>
        </g>
      </g>
      <g>
        <path d="M96.06,257.7v-1.42c0-.14.08-.22.22-.22h4.08c.27-.62.53-1.25.78-1.9.05-.13.14-.19.27-.18l1.76.26c.16.02.22.13.16.27-.19.53-.4,1.04-.62,1.55h7.71c.14,0,.22.08.22.22v1.42c0,.14-.08.22-.22.22h-2.53c-.43,1.38-1.02,2.48-1.75,3.36,1.34.46,2.69,1.01,3.97,1.63.08.03.13.1.13.16,0,.05-.03.11-.06.16l-1.12,1.5c-.05.06-.11.1-.18.1-.05,0-.1,0-.14-.03-1.41-.8-2.8-1.46-4.24-2.02-1.87,1.28-4.32,1.81-7.28,2.08h-.05c-.1,0-.18-.05-.22-.16l-.74-1.71s-.03-.08-.03-.11c0-.1.08-.16.21-.16,1.98-.05,3.87-.22,5.44-.85-1.22-.37-2.5-.67-3.82-.96-.11-.02-.16-.08-.16-.14,0-.05.02-.1.05-.14.56-.86,1.07-1.76,1.57-2.71h-3.19c-.14,0-.22-.08-.22-.22ZM98.43,255.28h-1.58c-.14,0-.22-.08-.22-.22v-3.12c0-.14.08-.22.22-.22h5.31v-1.2c0-.14.08-.22.22-.22h1.89c.14,0,.22.08.22.22v1.2h5.38c.14,0,.22.08.22.22v3.12c0,.14-.08.22-.22.22h-1.6c-.14,0-.22-.08-.22-.22v-1.47h-9.4v1.47c0,.14-.08.22-.22.22ZM100.8,259.78c.99.21,2.03.48,3.12.8.7-.66,1.26-1.52,1.66-2.66h-3.73c-.35.72-.72,1.34-1.06,1.86Z"/>
        <path d="M113.9,261.73c.72-1.65,1.17-4.19,1.33-6.15.02-.14.1-.22.24-.19l1.57.3c.14.03.21.13.19.29-.19,2.24-.62,4.83-1.31,6.58-.05.13-.16.18-.29.13l-1.62-.67c-.13-.06-.18-.16-.11-.29ZM118.16,262.59v-8.16c0-.14.08-.22.22-.22h1.76c.14,0,.22.08.22.22v7.49c0,.43.19.58.56.61.24.02.51.02.8.02.3,0,.59,0,.85-.02.74-.05,1.06-.32,1.14-3.04,0-.18.11-.26.27-.19l1.57.61c.13.05.18.13.18.27-.16,3.71-.83,4.27-2.9,4.39-.37.02-.87.03-1.34.03s-.98-.02-1.36-.03c-1.33-.05-1.97-.54-1.97-1.97ZM118.42,252.13s0-.08.03-.13l.83-1.34c.06-.11.16-.16.29-.13,1.58.34,3.43,1.06,4.88,1.98.08.05.13.11.13.18,0,.03-.02.08-.05.13l-.91,1.49c-.05.08-.1.11-.16.11-.05,0-.1-.02-.14-.05-1.33-.93-3.15-1.71-4.74-2.08-.11-.02-.16-.08-.16-.16ZM124.61,255.71s-.03-.1-.03-.13c0-.08.05-.13.14-.16l1.5-.54s.08-.02.11-.02c.08,0,.14.03.19.13.93,1.65,1.84,3.97,2.21,6.07v.05c0,.1-.05.18-.16.22l-1.65.66s-.08.03-.11.03c-.08,0-.14-.08-.16-.19-.3-2.06-1.02-4.18-2.05-6.11Z"/>
        <path d="M144.55,264.1c-1.55.22-3.09.37-4.51.37s-2.72-.14-3.79-.48c-1.62-.53-2.59-1.81-2.59-3.25s1.01-3.12,3.39-4.31c-.43-1.41-.5-3.15-.54-5.17,0-.14.08-.24.22-.24h1.94c.14,0,.22.1.22.24-.02.29-.02.58-.02.83,0,1.46.1,2.56.29,3.47,1.35-.45,2.91-.82,4.47-1.09l.06-.02h.02c.1,0,.16.06.19.18l.59,1.71.02.1c0,.1-.06.16-.18.18-2.37.35-4.75.94-6.29,1.71-1.47.69-2.05,1.57-2.05,2.3,0,.61.4,1.1,1.01,1.34.66.27,1.63.37,2.74.37,1.62,0,3.46-.22,4.83-.46l.06-.02c.11,0,.18.08.18.22l-.05,1.76c0,.13-.06.21-.21.24Z"/>
        <path d="M151.54,255.25s-.1.08-.16.08c-.05,0-.1-.03-.14-.06l-1.34-1.06c-.06-.05-.1-.11-.1-.16,0-.06.03-.11.1-.16,1.15-.88,2-2.24,2.32-3.33.03-.13.11-.19.26-.18l1.6.24c.16.02.24.11.19.24-.06.21-.16.43-.26.67h3.07c.14,0,.22.08.22.22v1.18c.64-.74,1.1-1.67,1.3-2.39.03-.14.13-.19.27-.18l1.57.24c.14.02.22.13.18.27-.06.21-.16.42-.24.64h3.67c.14,0,.22.08.22.22v1.31c0,.14-.08.22-.22.22h-1.92c.22.32.46.69.62,1.04.02.03.03.08.03.1,0,.1-.06.16-.18.18l-1.57.4s-.05.02-.06.02c-.11,0-.18-.08-.21-.19-.11-.5-.34-1.02-.64-1.54h-.62c-.43.69-.93,1.3-1.46,1.74-.05.05-.1.06-.16.06-.05,0-.1-.02-.16-.06l-1.22-1.07c-.06-.05-.1-.1-.1-.14,0-.06.05-.11.11-.16.16-.11.3-.24.45-.37h-1.46c.21.35.43.78.58,1.18.02.03.02.06.02.1,0,.08-.06.14-.18.18l-1.55.35s-.05.02-.06.02c-.11,0-.16-.08-.19-.19-.1-.54-.29-1.14-.54-1.63h-.45c-.46.75-1.01,1.46-1.58,1.95ZM150.21,260.22v-1.33c0-.14.08-.22.22-.22h5.52c.05-.43.08-.85.08-1.25-1.52.08-3.12.11-4.48.11-.13,0-.22-.06-.26-.19l-.37-1.36s-.02-.06-.02-.08c0-.11.08-.18.21-.18.35,0,.7.02,1.07.02,3.55,0,7.44-.29,9.83-.75l.06-.02c.1,0,.16.06.21.16l.69,1.36s.03.1.03.13c0,.08-.05.14-.16.16-1.34.24-3.06.42-4.71.53-.02.43-.03.91-.08,1.36h5.76c.14,0,.22.08.22.22v1.33c0,.14-.08.22-.22.22h-5.03c1.1,1.31,2.85,2.13,5.35,2.43.16.02.22.13.16.27l-.7,1.57c-.05.13-.14.16-.27.14-2.58-.43-4.83-1.55-6.2-3.42-1.12,1.84-3.28,3.03-6.15,3.46h-.05c-.1,0-.16-.05-.22-.14l-.75-1.54s-.03-.08-.03-.11c0-.08.06-.14.19-.16,2.79-.29,4.58-1.15,5.31-2.5h-5.01c-.14,0-.22-.08-.22-.22Z"/>
        <path d="M174.37,256.93c0,.06-.03.11-.08.16-.93.9-2.16,1.68-3.35,2.08-.03.02-.06.02-.1.02-.08,0-.16-.05-.21-.13l-.56-.9c0,.74,0,1.49-.05,2.24.03-.03.06-.05.11-.06,1.58-.38,2.91-1.15,3.84-2.05.05-.05.11-.08.16-.08s.11.03.16.1l.58.67s.08.11.08.16-.03.1-.08.14c-.99,1.07-2.45,2.02-3.94,2.51-.03.02-.06.02-.1.02-.08,0-.16-.05-.21-.13l-.61-1.06c-.11,1.34-.3,2.71-.69,3.99-.03.11-.08.16-.16.16-.03,0-.08-.02-.13-.05l-1.34-.8c-.11-.06-.14-.18-.1-.3.56-1.58.69-3.94.69-5.86,0-1.02,0-2.15-.02-2.98,0-.14.06-.22.21-.22h1.06c-.11-.53-.27-1.12-.45-1.63h-.62c-.14,0-.22-.08-.22-.22v-1.1c0-.14.08-.22.22-.22h2.21v-.8c0-.14.08-.22.22-.22h1.55c.14,0,.22.08.22.22v.8h2.1c.14,0,.22.08.22.22v1.1c0,.14-.08.22-.22.22h-.48c-.08.53-.24,1.14-.4,1.63h1.12c.14,0,.22.08.22.22v1.17c0,.14-.08.22-.22.22h-1.25l.51.59s.08.11.08.16ZM169.68,263.33c0-.08.05-.14.16-.16,1.95-.42,3.52-1.3,4.58-2.43.05-.06.11-.08.16-.08.06,0,.11.02.16.08l.74.77s.08.11.08.16-.03.1-.06.14c-1.1,1.26-2.96,2.51-4.75,2.99-.03,0-.05.02-.08.02-.08,0-.16-.05-.21-.14l-.74-1.22s-.03-.1-.03-.13ZM170.08,257.79l.06-.02c1.25-.29,2.4-.91,3.18-1.6h-3.25v1.62ZM172.58,252.93h-1.73c.18.5.34,1.12.45,1.63h.91c.16-.5.29-1.09.37-1.63ZM175.64,261.81v-8.18c0-.14.08-.22.22-.22h1.28c.19-.34.38-.7.53-1.02h-2.13c-.14,0-.22-.08-.22-.22v-1.2c0-.14.08-.22.22-.22h6.45c.14,0,.22.08.22.22v1.2c0,.14-.08.22-.22.22h-2.24c-.14.34-.34.7-.51,1.02h2.32c.14,0,.22.08.22.22v8.18c0,.14-.08.22-.22.22h-1.65c.61.48,1.52.94,2.37,1.2.14.05.21.16.13.3l-.66,1.25c-.06.13-.18.16-.3.11-.94-.37-1.91-.96-2.61-1.58-.05-.05-.08-.1-.08-.16,0-.05.03-.11.06-.16l.74-.96h-1.97l.77.96c.05.06.08.11.08.18,0,.05-.03.1-.06.13-.66.66-1.81,1.31-2.8,1.63-.03.02-.06.02-.08.02-.1,0-.18-.06-.22-.14l-.71-1.2s-.03-.1-.03-.13c0-.08.05-.14.16-.16.96-.22,1.87-.67,2.56-1.28h-1.39c-.14,0-.22-.08-.22-.22ZM179.99,254.85h-2.53v1.02h2.53v-1.02ZM179.99,257.18h-2.53v.99h2.53v-.99ZM179.99,259.49h-2.53v1.09h2.53v-1.09Z"/>
        <path d="M198.15,264.26c-1.18.14-2.3.22-3.36.22-.91,0-1.78-.06-2.59-.18-1.84-.29-2.79-1.36-2.79-2.58,0-.91.54-1.92,1.66-2.71.64-.46,1.47-.9,2.42-1.31-.34-.4-.78-.59-1.3-.59-.85,0-1.81.5-2.61,1.42l-1.52,2c-.05.06-.11.1-.18.1-.05,0-.1-.02-.14-.06l-1.33-1.04c-.06-.05-.1-.1-.1-.16,0-.05.03-.11.08-.16,1.38-1.41,2.66-3.12,3.43-4.82h-2.74c-.14,0-.22-.08-.22-.22v-1.41c0-.14.08-.22.22-.22h3.46c.22-.62.42-1.2.58-1.74.03-.13.13-.19.26-.16l1.76.4c.16.03.21.13.16.27-.16.46-.34.86-.48,1.23h4.91c.14,0,.22.08.22.22v1.41c0,.14-.08.22-.22.22h-5.7l-.82,1.5c.46-.21.99-.32,1.5-.32,1.01,0,2.02.42,2.66,1.36.99-.37,2.02-.74,3.06-1.1.03-.02.06-.02.11-.02.08,0,.14.05.18.14l.59,1.5s.02.06.02.1c0,.1-.05.16-.16.19-1.07.32-2.16.62-3.15.94.03.26.05.53.05.83,0,.46-.05.98-.14,1.54-.02.14-.1.21-.24.21l-1.62.02c-.16,0-.24-.1-.19-.26.13-.62.18-1.17.16-1.63-.78.34-1.44.67-1.92,1.07-.43.35-.64.7-.64,1.02,0,.4.34.72.98.88.51.13,1.18.19,1.95.19,1.14,0,2.47-.14,3.75-.37h.06c.11,0,.18.06.18.21l-.03,1.6c0,.14-.06.22-.21.24Z"/>
        <path d="M204.64,255.29l-.03-4.29c0-.14.08-.22.22-.22h12.37c.14,0,.22.08.22.22v4.29c0,.14-.08.22-.22.22h-3.94v1.36h3.94c.14,0,.22.08.22.22v7.31c0,.14-.08.22-.22.22h-9.68c-.14,0-.22-.08-.22-.22v-7.31c0-.14.08-.22.22-.22h3.81v-1.36h-4.69l.02.18c0,3.39-.34,6.83-1.26,8.96-.05.13-.16.16-.29.1l-1.55-.77c-.13-.06-.18-.18-.11-.3.9-1.98,1.2-4.95,1.2-8.39ZM215.43,253.85v-1.33h-8.77v1.33h8.77ZM211.35,259.97v-1.36h-2.13v1.36h2.13ZM211.35,262.9v-1.41h-2.13v1.41h2.13ZM215.48,259.97v-1.36h-2.22v1.36h2.22ZM215.48,262.9v-1.41h-2.22v1.41h2.22Z"/>
        <path d="M223.04,251.36c.02-.14.11-.21.26-.19l1.78.13c.14.02.22.1.21.26-.27,1.94-.45,4.19-.45,6.45,0,1.9.13,3.81.42,5.54l.02.05v.02c0,.1-.08.18-.21.18l-1.78.14h-.02c-.13,0-.21-.06-.22-.19-.27-1.73-.4-3.65-.4-5.62,0-2.26.16-4.59.4-6.75ZM228.07,264.48l-1.26-1.47c-.05-.06-.06-.11-.06-.14,0-.08.06-.13.18-.16,2.91-.61,3.84-2.35,3.97-4.75.03-.58.05-1.17.05-1.79l-4.27.02c-.14,0-.22-.08-.22-.22v-1.63c0-.14.08-.22.22-.22l4.21-.02c-.03-.96-.1-1.9-.14-2.79-.02,0-.02-.02-.02-.02,0-.14.08-.21.22-.21h1.73c.14,0,.22.08.24.21.05.86.1,1.81.13,2.8l2.64-.02c.14,0,.22.08.22.22v1.63c0,.14-.08.22-.22.22h-2.61c0,.74,0,1.44-.03,2.13-.16,3.41-1.78,5.55-4.66,6.31l-.1.02c-.08,0-.14-.03-.21-.11Z"/>
        <path d="M241.23,260.56c-.06,0-.13-.03-.18-.1l-1.02-1.42s-.06-.1-.06-.14c0-.06.05-.13.11-.18,3.09-2.05,5.44-3.67,7.65-5.19-1.78.05-3.63.11-5.31.14-.14,0-.22-.08-.22-.22l-.02-1.63c0-.14.08-.22.22-.22h8.79c.14,0,.22.08.22.22l.02,1.38c0,.13-.05.21-.14.27l-4.13,2.69c.5-.1.99-.14,1.47-.14,1.28,0,2.43.35,3.3,1.02.91.74,1.39,1.81,1.39,2.93,0,1.47-.83,3.02-2.61,3.97-.99.5-2.35.78-3.67.78-1.17,0-2.3-.22-3.09-.74-.86-.56-1.3-1.41-1.3-2.23,0-.66.27-1.3.82-1.74.53-.43,1.28-.67,2.06-.67,1.58,0,3.22,1.01,3.04,3.31.48-.14.93-.34,1.28-.56.91-.56,1.3-1.33,1.3-2.03,0-.53-.22-1.04-.59-1.41-.62-.62-1.7-1.02-2.98-1.02s-2.8.4-4.31,1.41c-.51.38-1.14.86-1.89,1.46-.06.05-.11.06-.16.06ZM244.87,262.35c.4.38,1.06.56,1.78.58.05-.18.06-.34.06-.5,0-.96-.7-1.55-1.34-1.55-.21,0-.42.05-.58.18-.19.14-.29.35-.29.58,0,.26.13.53.37.72Z"/>
        <path d="M257.94,261.59c-.06-.05-.1-.1-.1-.14,0-.03.02-.06.06-.11l1.14-1.17c.08-.08.18-.1.27-.03,1.17.82,2.38,1.87,3.35,3.11.03.05.05.08.05.13s-.03.1-.08.14l-1.39,1.18s-.08.06-.13.06-.1-.03-.14-.1c-.77-1.09-1.94-2.29-3.02-3.07Z"/>
        <path d="M58.32,292.72v-5.33c-.43.38-.85.72-1.26.98-.05.03-.1.05-.13.05-.08,0-.13-.05-.18-.14l-.72-1.58s-.03-.08-.03-.11c0-.08.05-.13.13-.18,1.62-.79,3.04-2.34,3.97-3.86.05-.08.11-.11.18-.11.03,0,.08.02.13.03l1.31.67c.13.06.16.18.1.3-.34.67-.85,1.39-1.46,2.08v7.2c0,.14-.08.22-.22.22h-1.58c-.14,0-.22-.08-.22-.22ZM56.24,281.92c0-.06.05-.13.13-.18,1.39-.78,2.5-1.95,3.27-3.25.08-.13.18-.16.3-.1l1.39.7c.08.03.11.1.11.18,0,.05-.02.1-.05.16-1.04,1.78-2.42,3.23-3.94,4.15-.05.03-.1.05-.13.05-.06,0-.13-.05-.18-.13l-.86-1.46s-.05-.1-.05-.13ZM61.89,285.09v-1.52c0-.14.08-.22.22-.22h8.48c.14,0,.22.08.22.22v1.52c0,.14-.08.22-.22.22h-2.1v4.71c0,2.14-.62,2.88-3.67,2.88h-.5c-.13,0-.21-.06-.26-.18l-.64-1.54s-.02-.06-.02-.1c0-.11.08-.18.22-.16.3.02.58.03.82.03,1.76,0,1.91-.46,1.91-1.23v-4.42h-4.26c-.14,0-.22-.08-.22-.22ZM62.61,279.05h7.39c.14,0,.22.08.22.22v1.52c0,.14-.08.22-.22.22h-7.39c-.14,0-.22-.08-.22-.22v-1.52c0-.14.08-.22.22-.22Z"/>
        <path d="M75.02,282.85h1.33c.14,0,.22.08.22.22v7l.91-.19v-8.69h-2.9c-.14,0-.22-.08-.22-.22v-1.46c0-.14.08-.22.22-.22h6.6c.14,0,.22.08.22.22v1.46c0,.14-.08.22-.22.22h-1.79v2.96h1.2l.05-.1c1.09-1.44,1.89-3.55,2.26-5.46.03-.14.11-.21.26-.19l1.6.19c.14.02.21.11.18.27-.11.54-.29,1.12-.5,1.71h4.19c.14,0,.22.08.22.22v1.5c0,.14-.08.22-.22.22h-.61c-.19,2.24-.77,4.39-1.86,6.21.72.78,1.63,1.47,2.71,2.1.08.05.13.11.13.19,0,.03-.02.08-.05.13l-1.01,1.57c-.05.08-.1.11-.16.11-.05,0-.1-.02-.14-.05-1.04-.66-1.97-1.41-2.72-2.32-.9.94-2.03,1.73-3.38,2.42-.05.02-.08.03-.13.03-.06,0-.13-.03-.18-.11l-.9-1.3s-.05-.1-.05-.14c0-.06.03-.13.13-.16.13-.06.27-.11.4-.18-2.02.56-4.42,1.07-6.53,1.41h-.05c-.11,0-.18-.06-.19-.19l-.18-1.52v-.03c0-.13.08-.21.21-.22l.72-.1v-7.3c0-.14.08-.22.22-.22ZM81.14,288.96s.06-.02.08-.02c.11,0,.18.08.18.21l-.02,1.5v.06c.99-.56,1.78-1.22,2.4-1.92-.67-1.22-1.12-2.56-1.38-3.95-.18.29-.35.56-.53.8-.05.06-.1.1-.16.1-.05,0-.11-.03-.16-.1l-.54-.77v1.02c0,.14-.08.22-.22.22h-1.39v3.33c.64-.16,1.23-.34,1.74-.5ZM84.96,287.06c.62-1.26.93-2.75,1.07-4.53h-2.32c.19,1.76.56,3.25,1.25,4.53Z"/>
        <path d="M92.1,288.34v-1.52c0-.14.08-.22.22-.22h6.16v-1.74h-5.17c-.14,0-.22-.08-.22-.22v-1.47c0-.14.08-.22.22-.22h5.17v-1.65c-1.63.11-3.19.14-4.64.14-.13,0-.22-.06-.26-.19l-.4-1.52v-.06c0-.11.06-.18.21-.18,3.78.02,8.12-.21,11.11-.85.03,0,.05-.02.08-.02.08,0,.14.05.19.14l.78,1.46s.03.08.03.11c0,.08-.06.14-.18.16-1.41.29-2.91.53-4.69.67v1.78h4.77c.14,0,.22.08.22.22v1.47c0,.14-.08.22-.22.22h-4.77v1.74h5.7c.14,0,.22.08.22.22v1.52c0,.14-.08.22-.22.22h-5.7v1.57c0,1.94-.66,2.79-3.87,2.79h-.53c-.13,0-.21-.05-.26-.18l-.59-1.6s-.02-.06-.02-.1c0-.11.1-.18.24-.16.35.02.66.03.93.03,1.7,0,1.86-.42,1.86-.98v-1.38h-6.16c-.14,0-.22-.08-.22-.22Z"/>
        <path d="M110.34,287.9c0-.16.08-.24.22-.22l1.01.11c.14.02.21.08.21.21-.03,1.2-.16,2.9-.45,4.19-.03.14-.13.21-.27.18l-1.07-.29c-.14-.03-.19-.13-.16-.27.32-1.2.5-2.74.51-3.91ZM112.11,292.74v-5.75c-.62.05-1.25.08-1.83.1-.14,0-.22-.08-.24-.22l-.1-1.34v-.03c0-.13.08-.21.22-.21.24.02.48.02.74.02.29-.37.56-.75.83-1.14-.5-.64-1.14-1.39-1.78-2-.06-.05-.1-.11-.1-.18,0-.05.02-.08.03-.13l.62-1.28c.05-.1.1-.13.16-.13.05,0,.1.02.16.06.05.06.11.13.18.19.38-.69.77-1.57,1.02-2.34.05-.13.14-.18.29-.13l1.28.45c.14.05.19.16.13.29-.4.96-.98,2.08-1.54,3.01.19.22.37.43.54.64.46-.77.9-1.55,1.25-2.29.05-.08.1-.13.18-.13.03,0,.08.02.13.03l1.15.64c.13.06.16.18.1.3-.74,1.38-1.79,2.96-2.64,4.08.46-.03.91-.05,1.28-.08-.06-.29-.14-.54-.22-.78-.02-.05-.03-.08-.03-.1,0-.1.06-.16.16-.19l.85-.26.08-.02c.1,0,.16.06.19.16.24.69.46,1.57.61,2.37v-1.73c0-.14.08-.22.22-.22h8.18c.14,0,.22.08.22.22v3.01c0,.14-.08.22-.22.22h-1.35c-.14,0-.22-.08-.22-.22v-1.57h-5.04v1.57c0,.16-.06.22-.22.22h-1.34c-.14,0-.22-.06-.22-.22v-.51s-.03.03-.06.03l-.94.3-.1.02c-.1,0-.16-.06-.18-.19-.02-.19-.03-.37-.06-.56l-.62.08v5.92c0,.14-.06.22-.22.22h-1.3c-.14,0-.22-.08-.22-.22ZM114.34,287.95l.85-.16h.06c.1,0,.18.06.19.18.21.94.4,2.19.48,3.19,1.44-.82,2.02-2.03,1.99-4.05,0-.14.08-.22.22-.22h1.39c.14,0,.22.1.22.29-.02,2.83-.88,4.51-2.79,5.68-.05.03-.1.05-.14.05-.06,0-.11-.02-.18-.08l-1.22-1.12-.66.11s-.03.02-.05.02c-.13,0-.19-.08-.19-.21-.02-1.04-.18-2.43-.37-3.39v-.06c0-.11.06-.18.18-.21ZM116.21,279.45h2.85v-.88c0-.16.08-.22.22-.22h1.57c.14,0,.22.06.22.22v.88h3.04c.14,0,.22.08.22.22v1.23c0,.14-.08.22-.22.22h-3.04v.94h2.54c.14,0,.22.08.22.22v1.17c0,.14-.08.22-.22.22h-6.95c-.14,0-.22-.08-.22-.22v-1.17c0-.14.08-.22.22-.22h2.38v-.94h-2.85c-.14,0-.22-.08-.22-.22v-1.23c0-.14.08-.22.22-.22ZM120.61,286.88h1.33c.14,0,.22.08.22.22v3.31c0,.34.08.42.27.45.1.02.19,0,.29,0,.43-.03.51-.48.58-1.75,0-.18.11-.26.26-.19l1.09.45c.13.05.18.13.18.27-.08,1.98-.29,2.91-1.78,2.96-.19.02-.42.02-.62.02-.24,0-.5,0-.67-.02-1.02-.11-1.36-.48-1.36-1.31v-4.19c0-.14.08-.22.22-.22Z"/>
        <path d="M129.38,284.29c2,0,3.97-.06,5.86-.19-.21-.54-.4-1.09-.58-1.63-1.58.1-3.22.18-4.95.22-.14,0-.22-.08-.24-.21l-.21-1.49v-.05c0-.13.08-.19.21-.19,1.62-.03,3.2-.08,4.69-.16l-.37-1.52v-.08c0-.1.06-.16.19-.18l1.7-.16s.03-.02.03-.02c.13,0,.19.08.22.19.1.51.21,1.06.35,1.62,1.31-.11,2.51-.24,3.58-.4h.05c.13,0,.19.06.21.21l.16,1.52v.05c0,.11-.06.19-.18.19-1.09.11-2.18.22-3.28.3.19.51.4,1.07.61,1.6,1.34-.11,2.62-.26,3.84-.43h.05c.13,0,.19.06.21.19l.21,1.5v.05c0,.11-.06.19-.18.19-1.09.14-2.19.27-3.31.37.37.69.77,1.34,1.18,1.9.03.06.05.11.05.14,0,.08-.05.13-.14.16l-1.67.59s-.06.02-.1.02c-.08,0-.14-.03-.19-.11-.54-.82-1.01-1.67-1.42-2.51-2.1.14-4.24.24-6.43.26-.14,0-.22-.06-.24-.21l-.14-1.5v-.03c0-.13.08-.21.22-.21ZM139.09,292.53c-1.02.14-1.98.21-2.83.21-1.06,0-1.98-.1-2.75-.27-2.61-.54-3.75-1.91-3.75-3.67,0-.3.03-.62.1-.96.03-.13.11-.19.24-.21l1.79-.24h.05c.13,0,.19.1.16.24-.05.26-.08.5-.08.72,0,1.14.69,1.84,2.1,2.15.5.11,1.1.16,1.78.16.94,0,2.05-.11,3.3-.34h.06c.13,0,.19.06.18.21l-.11,1.78c-.02.13-.08.21-.22.22Z"/>
        <path d="M153.49,292l-.66-1.66s-.02-.06-.02-.1c0-.1.06-.16.21-.16,3.51-.16,4.91-2.11,4.91-4.15,0-.38-.06-.77-.16-1.15-.43-1.68-1.74-2.69-3.27-3.03-.02,2.43-1.1,6.07-2.61,8.31-.51.75-1.33,1.14-2.18,1.14-.8,0-1.62-.32-2.24-.98-.88-.91-1.36-2.21-1.36-3.6,0-1.87.86-3.91,2.79-5.43,1.25-.99,2.87-1.47,4.45-1.47,2.83,0,5.65,1.52,6.5,4.51.18.62.27,1.25.27,1.84,0,3.23-2.56,5.87-6.37,6.1h-.03c-.11,0-.19-.06-.24-.18ZM148.95,288.66c.21.21.45.32.69.32.26,0,.51-.14.72-.43,1.12-1.67,2.05-4.96,2-6.82-.83.16-1.62.51-2.27,1.06-1.22,1.01-1.92,2.45-1.92,3.76,0,.78.26,1.54.78,2.11Z"/>
        <path d="M164.08,287.09v-4.5c0-.14.08-.22.22-.22h2.3v-1.1h-2.56c-.14,0-.22-.08-.22-.22v-1.33c0-.14.08-.22.22-.22h2.56v-.91c0-.14.08-.22.22-.22h1.36c.14,0,.22.08.22.22v.91h2.4c.14,0,.22.08.22.22v1.33c0,.14-.08.22-.22.22h-2.4v1.1h2.29c.14,0,.22.08.22.22v4.5c0,.14-.08.22-.22.22h-1.84c.58.88,1.38,1.81,2.23,2.4.06.05.11.11.11.18,0,.05-.02.1-.05.14l-.8,1.28c-.05.06-.1.11-.16.11-.05,0-.1-.03-.14-.08-.61-.62-1.22-1.47-1.68-2.38l.03,3.76c0,.14-.08.22-.22.22h-1.31c-.14,0-.22-.08-.22-.22l.03-3.41c-.5,1.14-1.15,2.14-1.94,2.87-.05.05-.1.08-.14.08-.06,0-.11-.05-.16-.11l-.91-1.38s-.05-.1-.05-.13c0-.06.05-.13.11-.18,1.09-.74,2.05-1.95,2.59-3.15h-1.87c-.14,0-.22-.08-.22-.22ZM166.69,283.89h-1.04v1.94h1.04v-1.94ZM169.36,283.89h-1.03v1.94h1.03v-1.94ZM171.62,289.86v-8.21c0-.14.08-.22.22-.22h1.41c.19-.34.35-.72.45-1.02h-2.16c-.14,0-.22-.08-.22-.22v-1.12c0-.14.08-.22.22-.22h6.48c.14,0,.22.08.22.22v1.12c0,.14-.08.22-.22.22h-2.48c-.11.32-.26.7-.4,1.02h2.45c.14,0,.22.08.22.22v8.21c0,.14-.08.22-.22.22h-1.74c.66.53,1.58.93,2.42,1.1.16.03.21.13.14.27l-.56,1.28c-.05.13-.14.19-.27.14-.95-.29-1.91-.77-2.67-1.41-.06-.05-.1-.11-.1-.16s.02-.1.05-.14l.64-1.07.02-.02h-1.84l.71,1.07s.06.11.06.16-.02.08-.06.13c-.71.64-1.76,1.17-2.83,1.44-.03,0-.06.02-.08.02-.1,0-.16-.05-.21-.14l-.62-1.26s-.03-.08-.03-.11c0-.08.06-.14.18-.16.99-.16,1.92-.56,2.54-1.14h-1.47c-.14,0-.22-.08-.22-.22ZM176.07,282.88h-2.71v1.02h2.71v-1.02ZM176.07,285.2h-2.71v1.01h2.71v-1.01ZM176.07,287.52h-2.71v1.01h2.71v-1.01Z"/>
        <path d="M187.47,278.97l-.14,3.86c.74-.69,1.46-1.26,2.08-1.66.67-.45,1.41-.66,2.08-.66,1.33,0,2.43.86,2.43,2.54,0,1.57-.4,3.87-.4,5.59,0,.82.45,1.2,1.15,1.2.38,0,.85-.11,1.36-.35.05-.02.1-.02.13-.02.1,0,.14.06.14.19l-.03,1.87c0,.13-.06.21-.19.24-.58.19-1.15.29-1.7.29-1.73,0-3.06-.99-3.07-2.93-.03-1.81.29-3.65.38-5.39.05-.7-.22-1.06-.66-1.06-.19,0-.4.06-.64.19-.83.45-2.02,1.57-3.15,2.82-.05,1.62-.08,3.3-.08,4.85,0,.64,0,1.25.02,1.84,0,.14-.08.22-.22.22h-1.78c-.13,0-.19-.08-.19-.21l.1-4.13c-.61.99-1.25,1.92-1.84,2.69-.05.06-.1.1-.14.1-.06,0-.11-.03-.16-.08l-1.26-1.28s-.06-.11-.06-.16.02-.11.06-.16c1.14-1.28,2.59-3.07,3.49-4.55l.03-1.14-2.98.06c-.14,0-.22-.08-.22-.22v-1.55c0-.14.06-.22.21-.22l3.03-.05c.03-1.06.05-2.02.05-2.75,0-.14.08-.22.22-.22l1.75.02c.16,0,.22.08.22.22Z"/>
        <path d="M201.39,288.56c-.06,0-.13-.03-.18-.1l-1.02-1.42s-.06-.1-.06-.14c0-.06.05-.13.11-.18,3.09-2.05,5.44-3.67,7.65-5.19-1.78.05-3.63.11-5.31.14-.14,0-.22-.08-.22-.22l-.02-1.63c0-.14.08-.22.22-.22h8.79c.14,0,.22.08.22.22l.02,1.38c0,.13-.05.21-.14.27l-4.13,2.69c.5-.1.99-.14,1.47-.14,1.28,0,2.43.35,3.3,1.02.91.74,1.39,1.81,1.39,2.93,0,1.47-.83,3.03-2.61,3.97-.99.5-2.35.78-3.67.78-1.17,0-2.3-.22-3.09-.74-.86-.56-1.3-1.41-1.3-2.22,0-.66.27-1.3.82-1.75.53-.43,1.28-.67,2.06-.67,1.58,0,3.22,1.01,3.04,3.31.48-.14.93-.34,1.28-.56.91-.56,1.3-1.33,1.3-2.03,0-.53-.22-1.04-.59-1.41-.62-.62-1.7-1.02-2.98-1.02s-2.8.4-4.31,1.41c-.51.38-1.14.86-1.89,1.46-.06.05-.11.06-.16.06ZM205.03,290.35c.4.38,1.06.56,1.78.58.05-.18.06-.34.06-.5,0-.96-.7-1.55-1.34-1.55-.21,0-.42.05-.58.18-.19.14-.29.35-.29.58,0,.26.13.53.37.72Z"/>
        <path d="M217.54,290.87c2-2.87,3.27-6.88,3.67-10.29.02-.14.1-.22.24-.21l1.91.22c.14.02.21.11.19.27-.53,3.81-1.82,8.1-3.67,11.03-.08.11-.18.14-.3.08l-1.95-.8c-.08-.05-.13-.1-.13-.18,0-.03.02-.08.05-.13ZM225.7,280.65l1.81-.51s.06-.02.1-.02c.08,0,.14.05.19.13,1.75,3.02,3.36,7.62,3.94,10.74.02.02.02.03.02.05,0,.11-.06.18-.18.21l-2.1.56s-.06.02-.08.02c-.11,0-.18-.06-.19-.19-.5-3.47-1.79-7.55-3.63-10.69-.02-.03-.03-.08-.03-.11,0-.08.05-.14.16-.18ZM228.56,279.84c0-1.04.83-1.87,1.87-1.87s1.89.85,1.89,1.87-.85,1.89-1.89,1.89-1.87-.83-1.87-1.89ZM230.44,280.69c.46,0,.83-.38.83-.85s-.37-.82-.83-.82-.83.37-.83.82.38.85.83.85Z"/>
        <path d="M236.43,286.58v-1.83c0-.13.06-.19.19-.19h12.2c.13,0,.19.06.19.19v1.84c0,.13-.06.19-.19.19l-12.2-.02c-.13,0-.19-.06-.19-.19Z"/>
        <path d="M259.11,292.45h-1.89c-.14,0-.22-.06-.22-.22v-12.87c0-.16.08-.22.22-.22h1.89c.14,0,.22.06.22.22v4.23c2.46.45,5.15,1.23,7.28,2.16.1.03.14.1.14.18,0,.03-.02.08-.03.11l-.94,1.73c-.06.13-.16.16-.29.1-1.89-.91-4.07-1.62-6.16-2.05v6.42c0,.16-.08.22-.22.22Z"/>
        <path d="M274.43,292.39h-.02c-.06,0-.13-.03-.18-.11l-1.26-1.55s-.06-.1-.06-.14c0-.06.06-.13.16-.16,3.65-1.12,4.51-2.98,4.69-5.79h-5.54c-.14,0-.22-.08-.22-.22v-1.63c0-.14.08-.22.22-.22h5.57c-.02-.85-.05-1.84-.1-3.1,0-.13.06-.22.22-.22h1.9c.14,0,.22.08.22.22.02,1.25.03,2.24.03,3.1h4.96c.14,0,.22.08.22.22v1.63c0,.14-.08.22-.22.22h-4.99c-.18,3.57-1.41,6.34-5.52,7.75l-.1.02Z"/>
        <path d="M290.19,286.58v-1.83c0-.13.06-.19.19-.19h12.2c.13,0,.19.06.19.19v1.84c0,.13-.06.19-.19.19l-12.2-.02c-.13,0-.19-.06-.19-.19Z"/>
      </g>
    </g>
  </g>
</svg>