<?xml version="1.0" encoding="UTF-8"?>
<svg id="_レイヤー_2" data-name="レイヤー 2" xmlns="http://www.w3.org/2000/svg" viewBox="0 0 328.92 106.23">
  <defs>
    <style>
      .cls-1 {
        fill: #fff;
      }
    </style>
  </defs>
  <g id="_01データ" data-name="01データ">
    <g>
      <g>
        <path d="M20.66,70.52v-9.2c0-.11.06-.17.17-.17h1.49c.1,0,.16.04.22.12l4.26,6.58v-6.54c0-.11.06-.17.17-.17h1.36c.1,0,.17.06.17.17v9.2c0,.11-.07.17-.17.17h-1.49c-.1,0-.16-.04-.2-.12l-4.28-6.6v6.55c0,.11-.06.17-.17.17h-1.34c-.11,0-.17-.06-.17-.17Z"/>
        <path d="M30.28,70.5l3.8-9.21c.04-.1.11-.13.19-.13h1.21c.1,0,.16.04.19.13l3.81,9.21s.01.05.01.07c0,.07-.05.12-.14.12h-1.64c-.08,0-.16-.04-.19-.13l-.67-1.78h-3.96l-.68,1.78c-.04.1-.1.13-.19.13h-1.61c-.12,0-.19-.07-.13-.19ZM36.23,67.15l-1.37-3.61-1.37,3.61h2.73Z"/>
        <path d="M41.3,70.52v-9.2c0-.11.06-.17.17-.17h1.42c.1,0,.17.06.17.17v4.37l3.81-4.44c.06-.07.13-.1.22-.1h1.66c.1,0,.14.05.14.11,0,.02-.02.06-.05.1l-3.01,3.41,3.46,5.72s.02.06.02.08c0,.07-.05.12-.14.12h-1.68c-.08,0-.16-.04-.19-.12l-2.63-4.51-1.61,1.82v2.64c0,.11-.07.17-.17.17h-1.42c-.11,0-.17-.06-.17-.17Z"/>
        <path d="M50.44,70.5l3.8-9.21c.04-.1.11-.13.19-.13h1.21c.1,0,.16.04.19.13l3.81,9.21s.01.05.01.07c0,.07-.05.12-.14.12h-1.64c-.08,0-.16-.04-.19-.13l-.67-1.78h-3.96l-.68,1.78c-.04.1-.1.13-.19.13h-1.61c-.12,0-.19-.07-.13-.19ZM56.39,67.15l-1.37-3.61-1.37,3.61h2.73Z"/>
        <path d="M61.46,70.52v-9.2c0-.11.06-.17.17-.17h3.17c3.17,0,4.82,1.76,4.82,4.77s-1.66,4.76-4.82,4.76h-3.17c-.11,0-.17-.06-.17-.17ZM67.79,65.93c0-2-1.08-3.12-3.19-3.12h-1.39v6.22h1.39c2.11,0,3.19-1.12,3.19-3.11Z"/>
        <path d="M71.11,70.5l3.8-9.21c.04-.1.11-.13.19-.13h1.21c.1,0,.16.04.19.13l3.81,9.21s.01.05.01.07c0,.07-.05.12-.14.12h-1.64c-.08,0-.16-.04-.19-.13l-.67-1.78h-3.96l-.68,1.78c-.04.1-.1.13-.19.13h-1.61c-.12,0-.19-.07-.13-.19ZM77.06,67.15l-1.37-3.61-1.37,3.61h2.73Z"/>
        <path d="M89.44,70.52v-3.45l-3.45-5.71s-.04-.06-.04-.08c0-.07.06-.12.16-.12h1.63c.1,0,.16.04.19.12l2.41,4.21,2.39-4.21c.04-.08.11-.12.19-.12h1.61c.13,0,.19.1.12.2l-3.45,5.7v3.47c0,.11-.06.17-.17.17h-1.42c-.11,0-.17-.06-.17-.17Z"/>
        <path d="M95.91,66.8v-5.48c0-.11.07-.17.17-.17h1.42c.11,0,.17.06.17.17v5.17c0,1.87.91,2.66,2.11,2.66s2.11-.79,2.11-2.66v-5.17c0-.11.07-.17.17-.17h1.43c.1,0,.17.06.17.17v5.48c0,3.03-2,4.07-3.87,4.07s-3.86-1.03-3.86-4.07Z"/>
        <path d="M108.37,70.52v-3.45l-3.45-5.71s-.04-.06-.04-.08c0-.07.06-.12.16-.12h1.63c.1,0,.16.04.19.12l2.41,4.21,2.39-4.21c.04-.08.11-.12.19-.12h1.61c.13,0,.19.1.12.2l-3.45,5.7v3.47c0,.11-.06.17-.17.17h-1.42c-.11,0-.17-.06-.17-.17Z"/>
        <path d="M113.43,70.5l3.8-9.21c.04-.1.11-.13.19-.13h1.21c.1,0,.16.04.19.13l3.81,9.21s.01.05.01.07c0,.07-.05.12-.14.12h-1.64c-.08,0-.16-.04-.19-.13l-.67-1.78h-3.96l-.68,1.78c-.04.1-.1.13-.19.13h-1.61c-.12,0-.19-.07-.13-.19ZM119.38,67.15l-1.37-3.61-1.37,3.61h2.73Z"/>
        <path d="M129.14,71.95v-10.83c0-.1.08-.17.17-.17h1.36c.08,0,.17.07.17.17v10.83c0,.1-.08.17-.17.17h-1.36c-.08,0-.17-.07-.17-.17Z"/>
        <path d="M136.38,70.5l3.8-9.21c.04-.1.11-.13.19-.13h1.21c.1,0,.16.04.19.13l3.81,9.21s.01.05.01.07c0,.07-.05.12-.14.12h-1.64c-.08,0-.16-.04-.19-.13l-.67-1.78h-3.96l-.68,1.78c-.04.1-.1.13-.19.13h-1.61c-.12,0-.19-.07-.13-.19ZM142.32,67.15l-1.37-3.61-1.37,3.61h2.73Z"/>
        <path d="M147.08,67.33c0-2.07,1.22-3.5,3.14-3.5.89,0,1.63.35,2.12.95v-3.66c0-.11.06-.17.17-.17h1.34c.11,0,.18.06.18.17v9.4c0,.11-.07.17-.18.17h-1.21c-.11,0-.18-.05-.18-.17l-.05-.76c-.48.66-1.26,1.06-2.2,1.06-1.92,0-3.14-1.43-3.14-3.49ZM150.64,69.28c1.08,0,1.82-.8,1.82-1.96s-.74-1.97-1.82-1.97-1.82.8-1.82,1.97.74,1.96,1.82,1.96Z"/>
        <path d="M157,70.52v-6.39c0-.11.06-.17.17-.17h1.22c.1,0,.18.05.18.17l.04.8c.48-.72,1.3-1.1,2.14-1.1,1.01,0,1.75.44,2.11,1.24.49-.82,1.38-1.24,2.3-1.24,1.46,0,2.36.94,2.36,2.48v4.21c0,.11-.07.17-.17.17h-1.36c-.11,0-.17-.06-.17-.17v-3.53c0-1.12-.42-1.63-1.2-1.63s-1.52.61-1.52,1.9v3.26c0,.11-.07.17-.17.17h-1.36c-.11,0-.17-.06-.17-.17v-3.53c0-1.12-.42-1.63-1.2-1.63s-1.54.61-1.54,1.9v3.26c0,.11-.06.17-.17.17h-1.34c-.11,0-.17-.06-.17-.17Z"/>
        <path d="M169.58,61.82c0-.55.42-.94.98-.94s.98.38.98.94-.42.94-.98.94-.98-.37-.98-.94ZM169.89,63.96h1.34c.11,0,.17.06.17.17v6.39c0,.11-.06.17-.17.17h-1.34c-.11,0-.17-.06-.17-.17v-6.39c0-.11.06-.17.17-.17Z"/>
        <path d="M173.66,70.52v-6.39c0-.11.06-.17.17-.17h1.22c.1,0,.18.05.18.17l.04.77c.49-.72,1.33-1.07,2.19-1.07,1.56,0,2.46.94,2.46,2.48v4.21c0,.11-.07.17-.17.17h-1.36c-.11,0-.17-.06-.17-.17v-3.53c0-1.12-.41-1.63-1.28-1.63-.83,0-1.61.61-1.61,1.9v3.26c0,.11-.06.17-.17.17h-1.34c-.11,0-.17-.06-.17-.17Z"/>
        <path d="M181.97,61.82c0-.55.42-.94.98-.94s.98.38.98.94-.42.94-.98.94-.98-.37-.98-.94ZM182.29,63.96h1.34c.11,0,.17.06.17.17v6.39c0,.11-.06.17-.17.17h-1.34c-.11,0-.17-.06-.17-.17v-6.39c0-.11.06-.17.17-.17Z"/>
        <path d="M185.54,69.02s-.01-.04-.01-.06c0-.07.05-.12.13-.14l1.19-.32h.05c.07-.01.13.04.16.11.31.54.78.72,1.36.72s.98-.11.98-.49c0-.29-.29-.44-1-.65l-.32-.1c-1.62-.46-2.24-1.25-2.24-2.28,0-1.15,1.04-1.98,2.57-1.98,1.29,0,2.22.55,2.63,1.69.01.02.02.06.02.08,0,.06-.05.11-.12.12l-1.19.38s-.05.01-.07.01c-.06,0-.11-.04-.14-.11-.24-.42-.59-.68-1.16-.68-.43,0-.79.13-.79.48,0,.31.3.49,1.04.67l.31.08c1.66.41,2.21,1.12,2.21,2.23,0,1.24-1.12,2.03-2.66,2.03-1.46,0-2.49-.62-2.93-1.8Z"/>
        <path d="M193.26,68.08v-2.61h-.98c-.11,0-.17-.07-.17-.17v-1.18c0-.11.06-.17.17-.17h.98v-1.81c0-.1.06-.17.17-.17h1.36c.1,0,.17.07.17.17v1.81h1.59c.11,0,.17.06.17.17v1.18c0,.1-.06.17-.17.17h-1.59v2.72c0,.73.23,1.09.76,1.09.22,0,.37-.1.5-.32.05-.1.13-.13.23-.08l1.02.46c.06.04.1.08.1.14,0,.04-.01.08-.05.13-.48.89-1.22,1.21-1.99,1.21-1.45,0-2.25-.91-2.25-2.73Z"/>
        <path d="M198.94,70.52v-6.39c0-.11.06-.17.17-.17h1.22c.1,0,.18.05.18.17l.04.84c.46-.72,1.25-1.1,2.05-1.1.19,0,.32.02.46.05.11.02.14.08.14.18v1.33c0,.11-.06.14-.14.14-.18,0-.38-.05-.66-.05-.91,0-1.78.62-1.78,1.69v3.31c0,.11-.06.17-.17.17h-1.34c-.11,0-.17-.06-.17-.17Z"/>
        <path d="M204.44,67.33c0-2.07,1.22-3.5,3.14-3.5.94,0,1.71.4,2.2,1.06l.05-.76c0-.12.07-.17.18-.17h1.21c.11,0,.18.06.18.17v6.39c0,.11-.07.17-.18.17h-1.21c-.11,0-.18-.05-.18-.17l-.05-.76c-.48.66-1.26,1.06-2.2,1.06-1.92,0-3.14-1.43-3.14-3.49ZM208,69.28c1.08,0,1.82-.8,1.82-1.96s-.74-1.97-1.82-1.97-1.82.8-1.82,1.97.74,1.96,1.82,1.96Z"/>
        <path d="M214,68.08v-2.61h-.98c-.11,0-.17-.07-.17-.17v-1.18c0-.11.06-.17.17-.17h.98v-1.81c0-.1.06-.17.17-.17h1.36c.1,0,.17.07.17.17v1.81h1.59c.11,0,.17.06.17.17v1.18c0,.1-.06.17-.17.17h-1.59v2.72c0,.73.23,1.09.76,1.09.22,0,.37-.1.5-.32.05-.1.13-.13.23-.08l1.02.46c.06.04.1.08.1.14,0,.04-.01.08-.05.13-.48.89-1.22,1.21-1.99,1.21-1.45,0-2.25-.91-2.25-2.73Z"/>
        <path d="M219.55,61.82c0-.55.42-.94.98-.94s.98.38.98.94-.42.94-.98.94-.98-.37-.98-.94ZM219.86,63.96h1.34c.11,0,.17.06.17.17v6.39c0,.11-.06.17-.17.17h-1.34c-.11,0-.17-.06-.17-.17v-6.39c0-.11.06-.17.17-.17Z"/>
        <path d="M225.9,70.56l-2.87-6.4s-.02-.06-.02-.08c0-.06.06-.11.16-.11h1.61c.1,0,.16.04.19.13l1.61,4.09,1.62-4.09c.04-.1.1-.13.19-.13h1.51c.12,0,.18.08.12.19l-2.87,6.4c-.04.08-.11.13-.19.13h-.86c-.08,0-.16-.05-.19-.13Z"/>
        <path d="M231.27,67.33c0-2.05,1.28-3.5,3.41-3.5s3.25,1.54,3.18,3.85c-.01.11-.07.17-.18.17h-4.61c.16.92.72,1.48,1.62,1.48.68,0,1.16-.25,1.47-.77.06-.08.13-.1.23-.07l1.15.4c.11.05.14.12.1.23-.6,1.17-1.71,1.71-2.96,1.71-2.12,0-3.41-1.45-3.41-3.49ZM234.67,65.33c-.79,0-1.37.46-1.57,1.26h2.96c-.16-.79-.67-1.26-1.39-1.26Z"/>
        <path d="M243.75,68.35s-.01-.05-.01-.07c0-.07.05-.11.12-.13l1.36-.32s.05-.01.06-.01c.07,0,.12.05.14.12.35.84.89,1.22,1.86,1.22s1.55-.3,1.55-1.01-.59-1.07-1.56-1.42l-.84-.3c-1.52-.53-2.45-1.42-2.45-2.78,0-1.56,1.39-2.67,3.2-2.67,1.6,0,2.78.74,3.26,2.33.01.02.01.05.01.07,0,.06-.05.11-.12.13l-1.43.36s-.05.01-.07.01c-.06,0-.11-.05-.14-.12-.31-.78-.8-1.07-1.51-1.07-.84,0-1.38.35-1.38.91s.49.98,1.61,1.35l.67.23c1.73.56,2.57,1.39,2.57,2.96s-1.38,2.72-3.37,2.72c-1.78,0-3.02-.86-3.53-2.52Z"/>
        <path d="M252.07,67.33c0-2.07,1.34-3.5,3.44-3.5,1.51,0,2.57.62,3.06,1.96.01.02.01.05.01.06,0,.07-.05.13-.13.16l-1.12.32h-.06c-.06.01-.12-.04-.17-.11-.3-.56-.79-.85-1.49-.85-1.22,0-1.81.9-1.81,1.97s.59,1.96,1.81,1.96c.7,0,1.22-.3,1.5-.9.06-.08.13-.13.23-.1l1.24.3c.1.02.14.1.1.2-.53,1.39-1.67,2.03-3.15,2.03-2.12,0-3.45-1.43-3.45-3.49Z"/>
        <path d="M260.46,70.52v-6.39c0-.11.06-.17.17-.17h1.22c.1,0,.18.05.18.17l.04.84c.46-.72,1.25-1.1,2.05-1.1.19,0,.32.02.46.05.11.02.14.08.14.18v1.33c0,.11-.06.14-.14.14-.18,0-.38-.05-.66-.05-.91,0-1.78.62-1.78,1.69v3.31c0,.11-.06.17-.17.17h-1.34c-.11,0-.17-.06-.17-.17Z"/>
        <path d="M266.2,61.82c0-.55.42-.94.98-.94s.98.38.98.94-.42.94-.98.94-.98-.37-.98-.94ZM266.52,63.96h1.34c.11,0,.17.06.17.17v6.39c0,.11-.06.17-.17.17h-1.34c-.11,0-.17-.06-.17-.17v-6.39c0-.11.06-.17.17-.17Z"/>
        <path d="M272.55,70.56l-2.87-6.4s-.02-.06-.02-.08c0-.06.06-.11.16-.11h1.61c.1,0,.16.04.19.13l1.61,4.09,1.62-4.09c.04-.1.1-.13.19-.13h1.51c.12,0,.18.08.12.19l-2.87,6.4c-.04.08-.11.13-.19.13h-.86c-.08,0-.16-.05-.19-.13Z"/>
        <path d="M277.93,67.33c0-2.05,1.28-3.5,3.41-3.5s3.25,1.54,3.18,3.85c-.01.11-.07.17-.18.17h-4.61c.16.92.72,1.48,1.62,1.48.68,0,1.16-.25,1.47-.77.06-.08.13-.1.23-.07l1.15.4c.11.05.14.12.1.23-.6,1.17-1.71,1.71-2.96,1.71-2.12,0-3.41-1.45-3.41-3.49ZM281.32,65.33c-.79,0-1.37.46-1.57,1.26h2.96c-.16-.79-.67-1.26-1.39-1.26Z"/>
        <path d="M286.26,70.52v-6.39c0-.11.06-.17.17-.17h1.22c.1,0,.18.05.18.17l.04.77c.49-.72,1.33-1.07,2.2-1.07,1.56,0,2.46.94,2.46,2.48v4.21c0,.11-.07.17-.17.17h-1.36c-.11,0-.17-.06-.17-.17v-3.53c0-1.12-.41-1.63-1.28-1.63-.83,0-1.61.61-1.61,1.9v3.26c0,.11-.06.17-.17.17h-1.34c-.11,0-.17-.06-.17-.17Z"/>
        <path d="M294.32,67.33c0-2.05,1.28-3.5,3.41-3.5s3.25,1.54,3.18,3.85c-.01.11-.07.17-.18.17h-4.61c.16.92.72,1.48,1.62,1.48.68,0,1.16-.25,1.47-.77.06-.08.13-.1.23-.07l1.15.4c.11.05.14.12.1.23-.6,1.17-1.71,1.71-2.96,1.71-2.12,0-3.41-1.45-3.41-3.49ZM297.71,65.33c-.79,0-1.37.46-1.57,1.26h2.96c-.16-.79-.67-1.26-1.39-1.26Z"/>
        <path d="M302.65,70.52v-6.39c0-.11.06-.17.17-.17h1.22c.1,0,.18.05.18.17l.04.84c.46-.72,1.25-1.1,2.05-1.1.19,0,.32.02.46.05.11.02.14.08.14.18v1.33c0,.11-.06.14-.14.14-.18,0-.38-.05-.66-.05-.91,0-1.78.62-1.78,1.69v3.31c0,.11-.06.17-.17.17h-1.34c-.11,0-.17-.06-.17-.17Z"/>
      </g>
      <g>
        <polygon points="168.41 8.1 145.03 8.1 129.02 20.34 129.02 .57 113 .57 113 50.5 129.02 50.5 129.02 38.26 145.03 50.5 168.41 50.5 140.33 29.3 168.41 8.1"/>
        <path d="M95.3,37.83h7.48V.57h-46.88v49.93h16.02v-12.65l16.56,12.65h23.39l-16.59-12.66ZM71.93,25.24v-12.3h15.62v12.3s-15.62,0-15.62,0Z"/>
        <path d="M0,.57v49.93h15.63v-12.66h15.62v12.66h15.62V.57H0ZM15.63,25.24v-12.3h15.62v12.3h-15.62Z"/>
        <path d="M303.85.05c6.87,0,12.78,2.5,17.69,7.51,4.92,5,7.38,10.99,7.38,17.96s-2.48,13.1-7.43,18.06c-4.96,4.96-10.98,7.43-18.07,7.43s-13.05-2.48-18.03-7.47c-4.97-4.97-7.47-10.99-7.47-18.02s2.51-13.14,7.52-18.07c5.02-4.93,11.15-7.4,18.4-7.4ZM303.43,14.35c-2.96,0-5.49,1.09-7.58,3.26-2.08,2.19-3.13,4.81-3.13,7.9s1.05,5.7,3.14,7.89c2.1,2.18,4.62,3.27,7.56,3.27s5.52-1.09,7.6-3.25c2.07-2.17,3.11-4.8,3.11-7.91s-1.04-5.75-3.11-7.92c-2.08-2.17-4.61-3.25-7.6-3.25Z"/>
        <path d="M248.8,0c6.87,0,12.77,2.51,17.69,7.51,4.92,5,7.38,10.98,7.38,17.96s-2.48,13.11-7.43,18.07c-4.96,4.95-10.98,7.42-18.06,7.42s-13.06-2.49-18.03-7.46c-4.97-4.98-7.47-10.98-7.47-18.03s2.51-13.13,7.52-18.07c5.02-4.93,11.15-7.4,18.4-7.4ZM248.37,14.3c-2.97,0-5.49,1.09-7.58,3.27-2.08,2.18-3.13,4.8-3.13,7.89s1.05,5.71,3.15,7.89c2.1,2.19,4.61,3.27,7.55,3.27s5.51-1.08,7.59-3.25c2.07-2.17,3.11-4.8,3.11-7.91s-1.04-5.74-3.11-7.91c-2.08-2.17-4.61-3.25-7.59-3.25Z"/>
        <path d="M214.97.11c4.02,0,5.69,3.01,3.74,6.68l-12.23,22.97c-1.95,3.66-.27,6.67,3.73,6.67h4.53c4.02,0,7.29,3.29,7.29,7.32s-3.28,7.32-7.29,7.32h-32.39c-4.01,0-5.7-3.02-3.74-6.69l12.15-22.94c1.95-3.68.27-6.69-3.74-6.69h-5.77c-4.01,0-7.29-3.29-7.29-7.32S177.25.11,181.26.11h33.71Z"/>
      </g>
      <g>
        <rect x="37.66" y="81.31" width="254.34" height="24.93" rx="12.46" ry="12.46"/>
        <g>
          <path class="cls-1" d="M73.67,99.62v-4.67c-.38.34-.74.63-1.11.85-.04.03-.08.04-.11.04-.07,0-.11-.04-.15-.13l-.63-1.39s-.03-.07-.03-.1c0-.07.04-.11.11-.15,1.42-.69,2.66-2.04,3.47-3.38.04-.07.1-.1.15-.1.03,0,.07.01.11.03l1.15.59c.11.06.14.15.08.27-.29.59-.74,1.22-1.27,1.82v6.3c0,.13-.07.2-.2.2h-1.39c-.13,0-.2-.07-.2-.2ZM71.85,90.17c0-.06.04-.11.11-.15,1.22-.69,2.19-1.71,2.86-2.84.07-.11.15-.14.27-.08l1.22.62c.07.03.1.08.1.15,0,.04-.01.08-.04.14-.91,1.55-2.12,2.83-3.45,3.63-.04.03-.08.04-.11.04-.06,0-.11-.04-.15-.11l-.76-1.27s-.04-.08-.04-.11ZM76.8,92.94v-1.33c0-.13.07-.2.2-.2h7.42c.13,0,.2.07.2.2v1.33c0,.13-.07.2-.2.2h-1.83v4.12c0,1.88-.55,2.52-3.21,2.52h-.43c-.11,0-.18-.06-.22-.15l-.56-1.34s-.01-.06-.01-.08c0-.1.07-.15.2-.14.27.01.5.03.71.03,1.54,0,1.67-.41,1.67-1.08v-3.87h-3.73c-.13,0-.2-.07-.2-.2ZM77.43,87.66h6.47c.13,0,.2.07.2.2v1.33c0,.13-.07.2-.2.2h-6.47c-.13,0-.2-.07-.2-.2v-1.33c0-.13.07-.2.2-.2Z"/>
          <path class="cls-1" d="M88.29,90.98h1.16c.13,0,.2.07.2.2v6.12l.8-.17v-7.61h-2.54c-.13,0-.2-.07-.2-.2v-1.27c0-.13.07-.2.2-.2h5.77c.13,0,.2.07.2.2v1.27c0,.13-.07.2-.2.2h-1.57v2.59h1.05l.04-.08c.95-1.26,1.65-3.11,1.97-4.78.03-.13.1-.18.22-.17l1.4.17c.13.01.18.1.15.24-.1.48-.25.98-.43,1.5h3.67c.13,0,.2.07.2.2v1.32c0,.13-.07.2-.2.2h-.53c-.17,1.96-.67,3.84-1.62,5.43.63.69,1.43,1.29,2.37,1.83.07.04.11.1.11.17,0,.03-.01.07-.04.11l-.88,1.37c-.04.07-.08.1-.14.1-.04,0-.08-.01-.13-.04-.91-.57-1.72-1.23-2.38-2.03-.78.83-1.78,1.51-2.96,2.12-.04.01-.07.03-.11.03-.06,0-.11-.03-.15-.1l-.78-1.13s-.04-.08-.04-.13c0-.06.03-.11.11-.14.11-.06.24-.1.35-.15-1.76.49-3.87.94-5.71,1.23h-.04c-.1,0-.15-.06-.17-.17l-.15-1.33v-.03c0-.11.07-.18.18-.2l.63-.08v-6.39c0-.13.07-.2.2-.2ZM93.64,96.33s.06-.01.07-.01c.1,0,.15.07.15.18v1.32s-.01.06-.01.06c.87-.49,1.55-1.06,2.1-1.68-.59-1.06-.98-2.24-1.2-3.46-.15.25-.31.49-.46.7-.04.06-.08.08-.14.08-.04,0-.1-.03-.14-.08l-.48-.67v.9c0,.13-.07.2-.2.2h-1.22v2.91c.56-.14,1.08-.29,1.53-.43ZM96.99,94.66c.55-1.11.81-2.41.94-3.96h-2.03c.17,1.54.49,2.84,1.09,3.96Z"/>
          <path class="cls-1" d="M103.89,93.11v-.56c0-.13.07-.2.2-.2h4.5v-.49h-4.1c-.13,0-.2-.07-.2-.2v-.6c0-.13.07-.2.2-.2h4.1v-.5h-5.13c-.13,0-.2-.07-.2-.2v-.66c0-.13.07-.2.2-.2h5.13v-.49h-4.1c-.13,0-.2-.07-.2-.2v-.7c0-.13.07-.2.2-.2h4.1v-.49c0-.13.07-.2.2-.2h1.43c.13,0,.2.07.2.2v.49h4.13c.13,0,.2.07.2.2v1.32h.97c.13,0,.2.07.2.2v.8c0,.13-.07.2-.2.2h-.97v1.23c0,.13-.07.2-.2.2h-4.13v.49h4.64c.13,0,.2.07.2.2v.56c0,.13-.07.2-.2.2h-4.64v.5h5.32c.13,0,.2.07.2.2v.74c0,.13-.07.2-.2.2h-12.3c-.13,0-.2-.07-.2-.2v-.74c0-.13.07-.2.2-.2h5.15v-.5h-4.5c-.13,0-.2-.07-.2-.2ZM104.6,95.42h9.95c.13,0,.2.07.2.2v3.74c0,.13-.07.2-.2.2h-9.95c-.13,0-.2-.07-.2-.2v-3.74c0-.13.07-.2.2-.2ZM112.98,96.41h-6.79v.56h6.79v-.56ZM112.98,97.87h-6.79v.6h6.79v-.6ZM112.98,88.82h-2.58v.56h2.58v-.56ZM112.98,90.29h-2.58v.57h2.58v-.57Z"/>
          <path class="cls-1" d="M118.89,92.72v-1.43c0-.13.07-.2.2-.2h5.16v-3.84c0-.13.07-.2.2-.2h1.6c.13,0,.2.07.2.2v3.84h5.2c.13,0,.2.07.2.2v1.43c0,.13-.07.2-.2.2h-5.2v4.68h4.5c.13,0,.2.07.2.2v1.37c0,.13-.07.2-.2.2h-10.91c-.13,0-.2-.07-.2-.2v-1.37c0-.13.07-.2.2-.2h4.43v-4.68h-5.16c-.13,0-.2-.07-.2-.2Z"/>
          <path class="cls-1" d="M135.33,97.58v-.85c0-.13.07-.2.2-.2h4.57v-.62h-5.35c-.13,0-.2-.07-.2-.2v-.84c0-.13.07-.2.2-.2h5.35v-.59h-4.55c-.13,0-.2-.07-.2-.2v-.76c0-.13.07-.2.2-.2h4.55v-.55h-4.26c-.13,0-.2-.07-.2-.2v-2.34c0-.13.07-.2.2-.2h4.26v-.53h-5.13c-.13,0-.2-.07-.2-.2v-.88c0-.13.07-.2.2-.2h5.13v-.62c0-.13.07-.2.2-.2h1.39c.13,0,.2.07.2.2v.62h5.07c.13,0,.2.07.2.2v.88c0,.13-.07.2-.2.2h-5.07v.53h4.24c.13,0,.2.07.2.2v2.34c0,.13-.07.2-.2.2h-4.24v.55h4.37c.13,0,.2.07.2.2v1.47h.71c.13,0,.2.07.2.2v.97c0,.13-.07.2-.2.2h-.71v1.61c0,.13-.07.2-.2.2h-4.37c-.01,1.65-.45,2.05-2.54,2.05-.24,0-.49,0-.76-.01-.11,0-.2-.06-.24-.15l-.41-.99s-.01-.07-.01-.1c0-.08.06-.14.18-.13.29.01.53.03.74.03,1.02,0,1.22-.18,1.25-.69h-4.57c-.13,0-.2-.07-.2-.2ZM140.09,90.73h-2.68v.64h2.68v-.64ZM144.55,90.73h-2.67v.64h2.67v-.64ZM144.69,94.09h-2.82v.62h2.82v-.62ZM144.69,95.87h-2.82v.66h2.82v-.66Z"/>
          <path class="cls-1" d="M151.96,99.82c-.11,0-.2-.06-.24-.17l-.43-1.27s-.01-.06-.01-.07c0-.1.07-.15.2-.14,1.01.06,1.29-.17,1.29-.8v-.66c0-.55.03-1.55.06-2.46-.41,1.36-.99,2.63-1.75,3.68-.04.06-.08.08-.14.08-.04,0-.1-.03-.14-.1l-.73-1.11s-.04-.08-.04-.13c0-.06.01-.11.06-.15.73-.85,1.39-2.06,1.79-3.31h-1.42c-.13,0-.2-.07-.2-.2v-1.15c0-.13.07-.2.2-.2h2.23c-.56-.52-1.18-1.04-1.72-1.4-.07-.04-.1-.1-.1-.14,0-.06.03-.1.08-.14l.85-.67s.1-.06.15-.06c.04,0,.08.01.13.04.35.24.73.56,1.11.9.39-.39.76-.85.95-1.23h-3.4c-.13,0-.2-.07-.2-.2v-1.15c0-.13.07-.2.2-.2h5c.13,0,.2.07.2.2v1.15c.01.1,0,.15-.04.24-.39.77-.98,1.56-1.61,2.24.14.14.27.28.39.42h1.47c.13,0,.2.07.2.2v.52c.73-.13,1.4-.34,1.99-.63-.39-.38-.71-.78-.99-1.22-.25.24-.5.46-.77.66-.04.03-.08.04-.13.04-.06,0-.11-.03-.15-.1l-.71-1.06s-.04-.08-.04-.13c0-.06.03-.1.1-.14.95-.64,1.7-1.65,2.06-2.62.04-.11.13-.17.24-.15l1.35.13c.14.01.21.1.15.22-.07.17-.15.35-.24.53h3.56c.13,0,.2.07.2.2v1.01c0,.13-.07.2-.2.2h-.53c-.25.92-.7,1.71-1.3,2.37.63.28,1.34.5,2.13.63.14.03.2.11.14.24l-.5,1.27c-.04.11-.13.15-.24.13-1.01-.24-1.97-.66-2.82-1.19-.85.55-1.85.95-2.98,1.2h-.06c-.08.01-.15-.04-.18-.14l-.11-.29c-.17.91-.46,1.88-.78,2.55-.06.11-.15.14-.27.08l-.99-.45v2c0,1.67-.62,2.07-2.27,2.09ZM154.89,93.22h-.66v2.09c.35-.66.57-1.44.66-2.09ZM156.22,95.85v-1.12c0-.13.07-.2.2-.2h1.88c.01-.27.01-.53.01-.83,0-.13.08-.2.21-.2h1.3c.13.01.2.08.2.21-.01.27-.03.53-.06.81h2.44c.13,0,.2.07.2.2,0,.76,0,1.93-.06,2.69-.14,1.81-.73,2.35-2.9,2.28-.11,0-.18-.04-.22-.15l-.41-1.13s-.01-.06-.01-.08c0-.08.06-.14.18-.14,1.15.04,1.56-.08,1.65-.74.06-.36.07-1.02.07-1.4h-1.19c-.46,1.68-1.51,3.05-3.45,3.71-.03.01-.07.01-.1.01-.07,0-.13-.03-.17-.1l-.8-1.16s-.04-.08-.04-.11c0-.07.04-.11.14-.14,1.42-.35,2.35-1.09,2.73-2.21h-1.61c-.13,0-.2-.07-.2-.2ZM159.58,90.88c.42-.43.74-.95.94-1.55h-2.17c.32.62.73,1.13,1.23,1.55Z"/>
          <path class="cls-1" d="M166.56,92.72v-2.34c0-.13.07-.2.2-.2h4.87c.13,0,.2.07.2.2v4.64c0,.13-.07.2-.2.2h-3.36c-.06,1.41-.25,3.18-.67,4.4-.04.13-.14.15-.25.11l-1.39-.52c-.13-.04-.15-.13-.11-.25.62-1.62.71-3.71.71-6.23ZM166.27,87.52h5.69c.13,0,.2.07.2.2v1.23c0,.13-.07.2-.2.2h-5.69c-.13,0-.2-.07-.2-.2v-1.23c0-.13.07-.2.2-.2ZM170.16,93.63v-1.9h-1.92v1.9h1.92ZM172.63,99.62l-1.46-.52c-.08-.03-.13-.08-.13-.14,0-.04.01-.07.06-.11,1.25-1.81,1.5-4.09,1.5-7.09,0-1.08,0-2.51-.01-3.73,0-.13.06-.2.18-.21,1.6-.04,3.59-.21,5.01-.64h.08c.07-.01.14.04.17.14l.38,1.34v.07c.01.08-.04.14-.14.17-1.09.28-2.67.42-3.96.49v1.83h4.22c.13,0,.2.07.2.2v1.27c0,.13-.07.2-.2.2h-1.09v6.72c0,.13-.06.2-.2.2h-1.3c-.13,0-.2-.07-.2-.2v-6.72h-1.42c-.04,2.27-.36,4.82-1.43,6.64-.06.1-.15.13-.27.08Z"/>
          <path class="cls-1" d="M193.78,88.61c-.14,3.32-1.64,5.66-4.36,6.75-.04.01-.07.01-.1.01-.07,0-.13-.03-.17-.08l-.69-.84c-.6,2.28-2.09,4.01-4.62,4.9-.03.01-.06.03-.08.03-.07,0-.13-.04-.18-.1l-1.02-1.41s-.04-.07-.04-.11c0-.07.06-.13.17-.15,3.15-.85,4.16-2.89,4.16-5.66,0-.2,0-.39-.01-.62,0-.11.07-.18.2-.18h1.54c.13.01.2.07.2.2.01.17.01.32.01.48,0,.63-.04,1.22-.14,1.79,1.68-.59,2.72-1.88,2.97-3.42-2.42,0-5.76.03-9.01.06-.13,0-.2-.07-.2-.2v-1.44c0-.13.07-.2.2-.2h10.98c.14,0,.21.07.2.2Z"/>
          <path class="cls-1" d="M198.16,94.24v-1.6c0-.11.06-.17.17-.17h10.67c.11,0,.17.06.17.17v1.61c0,.11-.06.17-.17.17h-10.67c-.11-.01-.17-.07-.17-.18Z"/>
          <path class="cls-1" d="M216.01,99.55c-.08,0-.14-.03-.18-.1l-1.12-1.48c-.03-.06-.04-.08-.04-.13,0-.07.04-.11.14-.13,4.09-.69,7.14-3.45,7.84-7.76h-4.02c-.59,1.47-1.93,3.31-3.43,4.3-.04.03-.08.04-.13.04-.06,0-.1-.03-.15-.07l-1.23-1.11s-.07-.08-.07-.13c0-.06.03-.1.1-.14,1.86-1.08,3.08-3.14,3.56-4.48.03-.11.1-.15.21-.15h7.26c.13-.01.2.07.18.24-.55,6.21-3.81,9.68-8.84,11.08-.03.01-.06.01-.07.01Z"/>
          <path class="cls-1" d="M229.35,97.31c3.75-1.15,6.62-4.47,7.27-6.95-1.99,0-4.05.04-6.04.04-.14,0-.2-.07-.2-.2v-1.46c0-.14.06-.2.2-.2h8.01c-.18-.35-.39-.69-.62-.98-.03-.04-.04-.08-.04-.13,0-.06.04-.11.13-.14l.74-.24s.07-.01.1-.01c.06,0,.11.03.17.08.49.6.91,1.34,1.13,2.02.01.03.01.06.01.08,0,.07-.04.13-.13.17l-.8.29h-.08c-.08.01-.14-.04-.17-.13l-.04-.15c-.36,1.62-1.11,3.19-2.1,4.59,1.6,1.13,2.97,2.31,3.99,3.54.03.04.06.08.06.13,0,.06-.03.1-.08.14l-1.34,1.22s-.08.06-.13.06c-.06,0-.1-.03-.14-.1-.88-1.19-2.1-2.51-3.49-3.57-1.5,1.64-3.36,2.94-5.32,3.66h-.1c-.07.01-.13-.03-.17-.1l-.92-1.41s-.04-.08-.04-.11c0-.07.04-.13.14-.15ZM240.77,88.96c-.22-.62-.63-1.37-1.06-1.93-.03-.04-.06-.08-.06-.13,0-.06.06-.11.14-.14l.73-.24s.06-.01.1-.01c.06,0,.11.03.17.08.41.5.88,1.27,1.16,1.96.01.03.01.06.01.08,0,.07-.04.13-.13.17l-.81.28h-.08c-.07.01-.13-.04-.17-.13Z"/>
          <path class="cls-1" d="M245.2,94.24v-1.6c0-.11.06-.17.17-.17h10.67c.11,0,.17.06.17.17v1.61c0,.11-.06.17-.17.17h-10.67c-.11-.01-.17-.07-.17-.18Z"/>
        </g>
      </g>
    </g>
  </g>
</svg>