<?xml version="1.0" encoding="UTF-8"?>
<svg id="_レイヤー_2" data-name="レイヤー 2" xmlns="http://www.w3.org/2000/svg" viewBox="0 0 81.41 75.36">
  <defs>
    <style>
      .cls-1 {
        fill: #fff;
      }
    </style>
  </defs>
  <g id="_01データ" data-name="01データ">
    <g>
      <g>
        <g>
          <path d="M40.59,73.36c-16.54,0-30-13.46-30-30s13.46-30,30-30,30,13.46,30,30-13.46,30-30,30Z"/>
          <path class="cls-1" d="M40.59,15.36c15.4,0,28,12.6,28,28s-12.6,28-28,28-28-12.6-28-28,12.6-28,28-28M40.59,11.36c-17.65,0-32,14.36-32,32s14.35,32,32,32,32-14.36,32-32S58.23,11.36,40.59,11.36h0Z"/>
        </g>
        <path class="cls-1" d="M43.4,40.68l10.98-12.77h-2.6l-9.54,11.09-7.62-11.09h-8.79l11.52,16.77-11.52,13.39h2.6l10.07-11.71,8.05,11.71h8.79l-11.95-17.39h0ZM39.83,44.82l-1.17-1.67-9.29-13.28h4l7.49,10.72,1.17,1.67,9.74,13.94h-4l-7.95-11.37h0Z"/>
      </g>
      <g>
        <path d="M7.14,31.41L.11,28.07c-.1-.05-.14-.13-.09-.23l.77-1.63c.04-.09.11-.13.2-.14l5.62-.55-4.32-2.05c-.1-.05-.14-.13-.09-.24l.7-1.47c.05-.1.14-.12.24-.08l7.03,3.34c.1.05.14.13.09.23l-.77,1.62c-.04.09-.11.14-.2.14l-5.65.56,4.34,2.06c.1.05.14.13.09.23l-.71,1.48c-.04.1-.13.12-.23.08Z"/>
        <path d="M11.18,23.59l-6.09-4.84c-.09-.07-.1-.16-.04-.25l3.33-4.19c.06-.08.17-.1.25-.03l1.12.89c.09.07.09.17.03.25l-2.16,2.72,1.04.83,1.91-2.4c.07-.09.16-.1.24-.04l1.08.86c.09.07.1.17.03.25l-1.91,2.4,1.17.93,2.24-2.83c.06-.08.17-.1.25-.03l1.12.89c.09.07.09.17.03.25l-3.41,4.3c-.07.09-.16.09-.25.02Z"/>
        <path d="M17.36,16.65l-6.87-4.67s-.04-.03-.06-.04c-.04-.07-.03-.14.05-.2l1.62-1.17c.08-.06.16-.07.24,0l3.84,2.87-1.51-4.54c-.04-.1,0-.17.08-.23l1.11-.8c.07-.05.15-.06.24,0l3.91,2.83-1.58-4.5c-.03-.1,0-.17.08-.23l1.6-1.15c.1-.07.21-.04.23.08l2.23,8.01c.03.09,0,.16-.09.22l-1.13.81c-.06.05-.15.05-.23,0l-3.89-2.94,1.54,4.63c.04.09,0,.17-.07.22l-1.12.8c-.07.05-.16.07-.23,0Z"/>
        <path d="M24.9,9.58s-.03-.04-.03-.06c-.02-.07,0-.14.07-.19l1.31-.89s.03-.02.05-.03c.07-.02.14,0,.19.06.43.47.9.56,1.52.34.5-.18.78-.48.65-.84-.14-.38-.55-.45-1.26-.44h-.9c-1.31.04-2.33-.45-2.75-1.58-.5-1.37.36-2.78,1.88-3.33,1.27-.47,2.51-.25,3.42.88.02.02.03.04.03.06.03.08,0,.14-.07.19l-1.36.97s-.04.03-.06.03c-.07.03-.13,0-.19-.06-.42-.46-.79-.5-1.17-.36-.42.16-.66.46-.54.79.12.32.48.43,1.36.41l.64-.02c1.52-.04,2.44.4,2.9,1.66.5,1.35-.31,2.76-2,3.38-1.44.53-2.78.2-3.68-.95Z"/>
        <path d="M39.35,8.02s-.09-.01-.14-.05c-.34-.22-.7-.47-1.08-.71-.22.24-.47.46-.74.63-.43.29-.93.46-1.45.52-1.14.13-2.34-.31-2.93-1.33-.17-.29-.28-.63-.32-1-.09-.75.12-1.58.78-2.26-.32-.43-.48-.85-.53-1.25-.15-1.32.97-2.41,2.28-2.55.83-.09,1.72.19,2.43,1.01.03.04.05.08.05.12,0,.05-.02.1-.06.16l-1.03,1.09s-.07.06-.11.06c-.05,0-.1-.02-.16-.08-.29-.35-.6-.47-.84-.44-.35.04-.58.35-.54.71.02.19.12.39.32.58.28.25,1.17.83,2.23,1.49.2-.35.39-.72.53-1.07.03-.07.08-.12.14-.13.03,0,.07.01.12.04l1.39.75c.06.03.1.08.11.14,0,.03,0,.07-.03.11-.17.32-.37.73-.62,1.16.38.23.76.45,1.11.66.05.03.09.08.1.13,0,.04-.01.08-.04.13l-.83,1.29c-.04.05-.08.09-.13.1ZM35.79,6.56c.2-.02.39-.09.57-.23.05-.05.11-.09.17-.14-.66-.44-1.26-.83-1.7-1.14-.15.22-.18.44-.16.65,0,.09.03.18.06.25.19.44.63.64,1.06.59Z"/>
        <path d="M44.55,8.25l.86-5.96-2.31-.33c-.11-.02-.16-.09-.14-.19l.22-1.57c.02-.11.09-.17.2-.15l6.67.96c.11.02.17.09.15.2l-.23,1.57c-.01.1-.09.16-.2.14l-2.31-.33-.86,5.96c-.02.11-.09.17-.2.15l-1.7-.25c-.11-.02-.16-.09-.14-.2Z"/>
        <path d="M51.53,5.48c.96-2.33,3.26-3.24,5.5-2.32,2.24.92,3.24,3.18,2.28,5.51-.96,2.33-3.25,3.24-5.49,2.32-2.24-.92-3.25-3.18-2.29-5.51ZM54.58,9.13c1.14.47,2.25-.06,2.75-1.27.5-1.21.07-2.37-1.06-2.84-1.14-.47-2.26.06-2.76,1.27-.5,1.21-.06,2.37,1.07,2.84Z"/>
        <path d="M59.06,13.13l4.62-6.26c.07-.09.16-.11.24-.04l2.19,1.62c1.81,1.34,2.14,2.85.98,4.43-1.16,1.57-2.72,1.71-4.53.37l-.68-.51-1.18,1.6c-.06.09-.16.1-.25.04l-1.36-1c-.09-.07-.1-.16-.03-.25ZM65.41,11.61c.53-.72.31-1.3-.36-1.8l-.64-.48-1.49,2.02.64.48c.68.5,1.3.53,1.86-.22Z"/>
        <path d="M65.14,18.02l5.6-5.4c.08-.08.17-.08.25,0l1.19,1.24c.07.08.07.18,0,.25l-5.6,5.4c-.08.08-.18.08-.25,0l-1.19-1.24c-.08-.08-.07-.17.01-.25Z"/>
        <path d="M71.01,18.43c2.11-1.4,4.5-.86,5.8,1.11.97,1.47.97,2.97.07,4.24-.02.03-.04.05-.05.06-.06.04-.14.03-.19-.03l-1.31-1.17s-.04-.02-.05-.04c-.03-.05-.03-.12,0-.19.29-.59.25-1.18-.14-1.77-.66-.99-1.82-1.18-2.95-.43-1.13.75-1.4,1.9-.75,2.88.45.67,1.07,1.03,1.93.82.12-.02.19,0,.22.11l.56,1.66c.04.11,0,.18-.08.21-1.56.46-3.23-.07-4.31-1.69-1.36-2.06-.86-4.37,1.25-5.77Z"/>
        <path d="M74.18,27.4s.04-.03.06-.03c.07-.03.14,0,.19.07l.9,1.31s.02.03.03.05c.03.07,0,.14-.06.19-.46.43-.55.91-.32,1.52.19.5.49.78.84.64.38-.14.44-.55.43-1.26l-.02-.9c-.04-1.31.44-2.34,1.57-2.77,1.37-.52,2.78.34,3.35,1.85.48,1.27.28,2.51-.85,3.43-.01.02-.04.03-.06.04-.08.03-.14,0-.19-.07l-.98-1.35s-.03-.04-.04-.06c-.03-.07,0-.13.06-.19.46-.43.49-.79.35-1.18-.16-.42-.46-.66-.79-.54-.32.12-.43.48-.4,1.36l.03.64c.05,1.52-.38,2.44-1.63,2.92-1.35.51-2.76-.29-3.4-1.98-.54-1.44-.23-2.78.92-3.7Z"/>
      </g>
    </g>
  </g>
</svg>