<?xml version="1.0" encoding="UTF-8"?>
<svg id="_レイヤー_2" data-name="レイヤー 2" xmlns="http://www.w3.org/2000/svg" viewBox="0 0 267.56 122.26">
  <defs>
    <style>
      .cls-1 {
        fill: #fff;
      }
    </style>
  </defs>
  <g id="_01データ" data-name="01データ">
    <g>
      <g>
        <g>
          <g>
            <path d="M134.33,73.36c-16.54,0-30-13.46-30-30s13.46-30,30-30,30,13.46,30,30-13.46,30-30,30Z"/>
            <path class="cls-1" d="M134.32,15.36c15.4,0,28,12.6,28,28s-12.6,28-28,28-28-12.6-28-28,12.6-28,28-28M134.32,11.36c-17.65,0-32,14.35-32,32s14.35,32,32,32,32-14.35,32-32-14.35-32-32-32h0Z"/>
          </g>
          <path class="cls-1" d="M137.13,40.68l10.98-12.77h-2.6l-9.54,11.09-7.62-11.09h-8.79l11.52,16.77-11.52,13.39h2.6l10.07-11.71,8.05,11.71h8.79l-11.95-17.39h0ZM133.57,44.82l-1.17-1.67-9.29-13.28h4l7.49,10.72,1.17,1.67,9.74,13.94h-4l-7.95-11.37h0Z"/>
        </g>
        <g>
          <path d="M100.88,31.41l-7.03-3.34c-.1-.05-.14-.13-.09-.23l.77-1.63c.04-.09.11-.13.2-.14l5.62-.55-4.32-2.05c-.1-.05-.14-.13-.09-.24l.7-1.47c.05-.1.14-.12.24-.08l7.03,3.34c.1.05.14.13.09.23l-.77,1.62c-.04.09-.11.14-.2.14l-5.65.55,4.34,2.06c.1.05.14.13.09.23l-.71,1.48c-.05.1-.13.12-.23.08Z"/>
          <path d="M104.91,23.59l-6.09-4.84c-.09-.07-.1-.16-.04-.25l3.33-4.19c.06-.08.17-.1.25-.03l1.12.89c.09.07.09.17.03.25l-2.16,2.72,1.04.83,1.91-2.4c.07-.09.16-.1.24-.04l1.08.86c.09.07.1.17.03.25l-1.91,2.4,1.17.93,2.24-2.83c.06-.08.17-.1.25-.03l1.12.89c.09.07.09.17.03.25l-3.41,4.3c-.07.09-.16.09-.25.02Z"/>
          <path d="M111.09,16.65l-6.87-4.67s-.04-.03-.06-.04c-.04-.07-.03-.14.05-.2l1.62-1.17c.08-.06.16-.07.24,0l3.84,2.87-1.51-4.54c-.04-.1,0-.17.08-.23l1.11-.8c.07-.05.15-.06.24,0l3.91,2.83-1.58-4.5c-.03-.1,0-.17.08-.23l1.6-1.15c.1-.07.21-.04.23.08l2.23,8.01c.03.09,0,.16-.09.22l-1.13.81c-.06.05-.15.05-.23,0l-3.89-2.94,1.54,4.63c.04.09,0,.17-.07.22l-1.12.8c-.07.05-.16.07-.23,0Z"/>
          <path d="M118.64,9.58s-.03-.04-.03-.06c-.03-.07,0-.14.07-.19l1.31-.89s.03-.02.05-.03c.07-.02.14,0,.19.06.43.47.9.56,1.52.34.5-.18.78-.48.65-.84-.14-.38-.55-.45-1.26-.44h-.9c-1.31.04-2.33-.45-2.75-1.58-.5-1.37.36-2.77,1.88-3.33,1.27-.47,2.51-.26,3.42.88.02.02.03.04.03.06.03.07,0,.14-.07.19l-1.36.97s-.04.03-.06.03c-.07.03-.13,0-.19-.06-.42-.46-.79-.5-1.17-.36-.42.16-.66.46-.54.79.12.32.48.43,1.36.41l.64-.02c1.52-.04,2.44.4,2.9,1.66.5,1.35-.31,2.76-2,3.38-1.44.53-2.78.2-3.68-.95Z"/>
          <path d="M133.08,8.02s-.09-.01-.14-.05c-.34-.22-.7-.47-1.08-.71-.22.24-.47.46-.74.63-.43.29-.93.46-1.45.52-1.14.13-2.34-.31-2.93-1.33-.17-.29-.28-.63-.32-1-.09-.75.12-1.58.78-2.26-.32-.43-.48-.85-.53-1.25-.15-1.32.97-2.41,2.28-2.55.83-.09,1.72.19,2.43,1.01.03.04.05.07.05.11,0,.05-.02.1-.06.16l-1.03,1.09s-.07.06-.11.06c-.05,0-.1-.02-.16-.08-.29-.35-.6-.47-.84-.44-.35.04-.58.35-.54.7.02.19.12.39.32.58.28.25,1.17.83,2.23,1.49.2-.35.39-.72.53-1.07.03-.07.08-.12.14-.13.03,0,.07.01.12.04l1.39.75c.06.03.1.08.11.14,0,.03,0,.07-.03.11-.17.32-.37.73-.62,1.16.38.23.76.45,1.11.66.05.03.09.08.1.13,0,.04-.01.08-.04.13l-.83,1.29c-.04.05-.08.09-.13.1ZM129.52,6.56c.2-.02.39-.09.57-.23.05-.05.11-.09.17-.14-.66-.44-1.26-.83-1.7-1.14-.15.22-.18.44-.16.65,0,.09.03.18.06.25.19.44.63.64,1.06.59Z"/>
          <path d="M138.29,8.25l.86-5.96-2.31-.33c-.11-.02-.16-.09-.14-.19l.22-1.57c.02-.11.09-.17.2-.15l6.67.96c.11.02.17.09.15.2l-.23,1.57c-.01.1-.09.16-.2.14l-2.31-.33-.86,5.96c-.02.11-.09.17-.2.15l-1.7-.24c-.11-.02-.16-.09-.14-.2Z"/>
          <path d="M145.27,5.48c.96-2.33,3.26-3.24,5.5-2.32,2.24.92,3.24,3.18,2.28,5.51-.96,2.33-3.25,3.24-5.49,2.32s-3.25-3.18-2.29-5.51ZM148.32,9.13c1.14.47,2.25-.06,2.75-1.27.5-1.21.07-2.37-1.06-2.84-1.14-.47-2.26.06-2.76,1.27-.5,1.21-.06,2.37,1.07,2.84Z"/>
          <path d="M152.79,13.13l4.62-6.26c.07-.09.16-.11.24-.04l2.19,1.62c1.81,1.34,2.14,2.85.98,4.43-1.16,1.57-2.72,1.71-4.53.37l-.68-.51-1.18,1.6c-.06.09-.16.1-.25.04l-1.36-1c-.09-.07-.1-.16-.03-.25ZM159.14,11.61c.53-.72.31-1.3-.36-1.8l-.64-.48-1.49,2.02.64.48c.68.5,1.3.53,1.86-.22Z"/>
          <path d="M158.87,18.02l5.6-5.4c.08-.08.17-.08.25,0l1.19,1.24c.08.08.07.18,0,.25l-5.6,5.4c-.08.08-.18.07-.26,0l-1.19-1.24c-.07-.08-.07-.17.01-.25Z"/>
          <path d="M164.75,18.43c2.11-1.4,4.5-.86,5.8,1.11.97,1.47.97,2.97.07,4.24-.02.03-.04.05-.05.06-.06.04-.14.03-.19-.03l-1.31-1.17s-.04-.02-.05-.04c-.03-.05-.03-.12,0-.19.29-.59.25-1.18-.14-1.77-.66-.99-1.82-1.18-2.95-.43-1.13.75-1.4,1.9-.75,2.88.45.67,1.07,1.03,1.93.82.12-.02.19,0,.22.11l.56,1.66c.04.11,0,.18-.08.21-1.56.46-3.23-.07-4.31-1.69-1.36-2.06-.86-4.37,1.25-5.77Z"/>
          <path d="M167.92,27.4s.04-.03.06-.03c.07-.02.14,0,.19.07l.9,1.31s.02.03.03.05c.03.07,0,.14-.06.19-.46.43-.55.91-.32,1.52.19.5.49.78.84.64.38-.15.44-.55.43-1.26l-.02-.9c-.04-1.31.44-2.34,1.57-2.77,1.37-.52,2.78.34,3.35,1.85.48,1.27.28,2.51-.85,3.43-.01.02-.04.03-.06.03-.08.03-.14,0-.19-.07l-.98-1.35s-.03-.04-.04-.06c-.03-.07,0-.13.06-.19.46-.43.49-.79.35-1.18-.16-.42-.46-.66-.79-.54-.32.12-.43.48-.4,1.36l.03.64c.05,1.52-.38,2.44-1.63,2.92-1.35.51-2.76-.29-3.4-1.98-.54-1.44-.23-2.78.92-3.7Z"/>
        </g>
      </g>
      <g>
        <path d="M.03,98.73l4.02-6.29-3.75-5.89s-.03-.08-.03-.11c0-.1.06-.16.19-.16h2.13c.13,0,.19.05.27.16l2.67,4.39,2.66-4.39c.05-.11.14-.16.26-.16h2.11c.18,0,.26.13.16.27l-3.74,5.86,4.03,6.32s.03.08.03.11c0,.1-.06.16-.19.16h-2.13c-.13,0-.19-.05-.27-.16l-2.96-4.83-2.93,4.83c-.05.11-.14.16-.26.16H.19c-.18,0-.24-.13-.16-.27Z"/>
        <path d="M15.95,86.69c3.33,0,9.08-.02,12.53-.08.14,0,.22.06.22.22v1.68c0,.14-.08.22-.22.22-1.17-.02-2.21.14-3.2.61-2.43,1.09-3.84,2.83-3.84,4.35,0,1.62,1.63,2.98,5.38,2.98.16,0,.24.08.21.24l-.32,1.82c-.03.14-.11.21-.26.21-5.22-.11-7.33-2.48-7.33-4.99,0-1.79,1.07-3.65,2.82-4.83.26-.18.53-.32.8-.45-2.14.06-4.8.14-6.74.18-.14,0-.22-.06-.22-.22l-.03-1.71v-.03c0-.13.08-.19.21-.19ZM25.27,90.63l.72-.3s.08-.02.13-.02c.06,0,.13.03.18.1.51.61,1.09,1.63,1.39,2.4.02.03.02.06.02.1,0,.1-.05.16-.14.19l-.82.34s-.08.03-.11.03c-.08,0-.14-.06-.18-.16-.29-.8-.75-1.68-1.27-2.37-.05-.05-.06-.1-.06-.14,0-.06.05-.13.14-.16ZM28.65,92.66c-.08,0-.14-.05-.19-.16-.29-.75-.82-1.68-1.3-2.29-.05-.05-.06-.1-.06-.14,0-.06.05-.13.13-.16l.72-.29s.08-.03.11-.03c.06,0,.13.03.19.1.53.58,1.14,1.6,1.43,2.35.02.03.02.06.02.1,0,.08-.05.14-.14.19l-.8.3s-.06.03-.1.03Z"/>
        <path d="M34.29,99.18v-13.56c0-.16.08-.22.22-.22h11.11c.14,0,.22.06.22.22v13.56c0,.14-.08.22-.22.22h-11.11c-.14,0-.22-.08-.22-.22ZM43.75,91.19v-3.86h-7.36v3.86h7.36ZM43.75,97.42v-4.26h-7.36v4.26h7.36Z"/>
        <path d="M63.77,88.23l.02,1.36c0,.1-.02.16-.05.24-.69,1.65-2.35,4.27-3.87,6.03.58.43,1.17.88,1.79,1.36.06.06.11.11.11.18,0,.03-.03.08-.06.13l-1.25,1.5c-.05.06-.11.1-.16.1s-.11-.03-.16-.08c-1.3-1.28-3.78-3.19-5.49-4.27-.08-.05-.11-.1-.11-.16,0-.05.02-.1.06-.14l1.09-1.2c.06-.06.13-.1.19-.1.05,0,.08.02.13.05.74.46,1.46.94,2.18,1.44,1.09-1.22,2.34-3.09,3.07-4.66h-4.67c-1.15,1.81-2.58,3.63-3.99,4.85-.05.05-.11.06-.18.06-.05,0-.1-.02-.14-.05l-1.52-1.06c-.06-.05-.11-.11-.11-.18,0-.05.03-.1.1-.14,2.29-1.89,4.48-4.71,5.51-7.43.05-.13.16-.18.29-.14l1.73.45c.14.03.21.13.16.26-.19.43-.43.91-.69,1.39h5.81c.14,0,.22.06.22.21Z"/>
        <path d="M76.12,98.67l-.66-1.66s-.02-.06-.02-.1c0-.1.06-.16.21-.16,3.51-.16,4.91-2.11,4.91-4.15,0-.38-.06-.77-.16-1.15-.43-1.68-1.75-2.69-3.27-3.03-.02,2.43-1.11,6.07-2.61,8.31-.51.75-1.33,1.14-2.18,1.14-.8,0-1.62-.32-2.24-.98-.88-.91-1.36-2.21-1.36-3.6,0-1.87.86-3.91,2.79-5.43,1.25-.99,2.86-1.47,4.45-1.47,2.83,0,5.65,1.52,6.5,4.51.18.62.27,1.25.27,1.84,0,3.23-2.56,5.87-6.37,6.1h-.03c-.11,0-.19-.06-.24-.18ZM71.57,95.32c.21.21.45.32.69.32.26,0,.51-.14.72-.43,1.12-1.66,2.05-4.96,2-6.82-.83.16-1.62.51-2.27,1.06-1.22,1.01-1.92,2.45-1.92,3.76,0,.78.26,1.54.79,2.11Z"/>
        <path d="M86.8,92.71c.27-1.6.42-3.59.4-4.98,0-.14.1-.22.24-.21l.88.08c.14.02.21.08.21.21-.02,1.63-.08,3.63-.38,5.46-.03.16-.14.21-.29.14l-.9-.43c-.11-.06-.18-.14-.16-.27ZM91.56,91c-.08,0-.14-.08-.16-.19-.1-.82-.29-1.71-.54-2.48v11.06c0,.14-.08.22-.22.22h-1.46c-.14,0-.22-.08-.22-.22v-14.15c0-.14.08-.22.22-.22h1.46c.14,0,.22.08.22.22v2.5s.02-.02.03-.02l.64-.21s.06-.02.1-.02c.1,0,.16.06.19.16.22.64.46,1.52.62,2.26h3.23v-.67h-2.74c-.14,0-.22-.08-.22-.22v-.77c0-.14.08-.22.22-.22h2.74v-.64h-3.25c-.14,0-.22-.08-.22-.22v-.99c0-.14.08-.22.22-.22h3.25v-.7c0-.14.08-.22.22-.22h1.63c.14,0,.22.08.22.22v.7h3.43c.14,0,.22.08.22.22v.99c0,.14-.08.22-.22.22h-3.43v.64h2.93c.14,0,.22.08.22.22v.77c0,.14-.08.22-.22.22h-2.93v.67h3.67c.14,0,.22.08.22.22v.98c0,.14-.08.22-.22.22h-9.19c-.14,0-.22-.08-.22-.22v-.27l-.34.13s-.08.03-.11.03ZM94.37,99.61h-1.54c-.14,0-.22-.08-.22-.22v-7.17c0-.14.08-.22.22-.22h7.78c.14,0,.22.08.22.22v5.09c0,1.54-.4,2.32-3.22,2.27-.14,0-.22-.06-.27-.19l-.38-1.14s-.02-.06-.02-.08c0-.11.08-.19.22-.18.14,0,.29.02.4.02,1.17,0,1.26-.34,1.26-.77v-.11h-4.24v2.26c0,.14-.08.22-.22.22ZM98.84,93.25h-4.24v.82h4.24v-.82ZM98.84,95.24h-4.24v.72h4.24v-.72Z"/>
        <path d="M105.78,89.17h2.59v-1.2h-2.13c-.14,0-.22-.08-.22-.22v-1.28c0-.14.08-.22.22-.22h2.13v-1.01c0-.16.08-.22.22-.22h1.44c.14,0,.22.06.22.22v1.01h2.03c.16,0,.22.08.22.22v1.28c0,.14-.06.22-.22.22h-2.03v1.2h2.43c.14,0,.22.08.22.22v1.28c0,.14-.08.22-.22.22h-.7c-.11.64-.27,1.28-.5,1.84h1.07c.14,0,.22.08.22.22v1.26c0,.14-.08.22-.22.22h-2.3v1.3h2.16c.16,0,.22.08.22.22v1.28c0,.14-.06.22-.22.22h-2.16v1.9c0,.14-.08.22-.22.22h-1.44c-.14,0-.22-.08-.22-.22v-1.9h-2.23c-.14,0-.22-.08-.22-.22v-1.28c0-.14.08-.22.22-.22h2.23v-1.3h-2.42c-.14,0-.22-.08-.22-.22v-1.26c0-.14.08-.22.22-.22h1.12c-.11-.59-.32-1.26-.54-1.84h-.75c-.16,0-.22-.08-.22-.22v-1.28c0-.14.06-.22.22-.22ZM108.74,92.74h1.06c.22-.59.38-1.23.48-1.84h-2.03c.21.56.38,1.25.5,1.84ZM113.32,99.37v-13.69c0-.14.08-.22.22-.22h6.05c.14,0,.22.08.22.22v.8c0,.62,0,1.26-.02,1.86-.05,1.7-.8,2.22-3.15,2.18-.13,0-.21-.06-.26-.19l-.4-1.23-.02-.1c0-.1.08-.16.22-.16,1.22.05,1.68-.1,1.73-.72.03-.29.03-.62.03-.83h-2.77v3.83h4.56c.14,0,.22.08.22.24-.03,1.95-.42,3.86-1.26,5.43.4.38.86.7,1.41.94.13.06.18.16.11.29l-.66,1.33c-.03.1-.1.14-.18.14-.03,0-.08-.02-.13-.05-.58-.34-1.09-.75-1.55-1.25-.45.5-.96.93-1.55,1.26-.05.03-.1.05-.13.05-.08,0-.13-.05-.18-.13l-.67-1.1v1.1c0,.14-.08.22-.22.22h-1.42c-.14,0-.22-.08-.22-.22ZM116.55,96.66c-.62-1.12-1.02-2.43-1.22-3.91h-.14v4.9c.51-.24.98-.58,1.36-.99ZM117.54,95.18c.35-.75.58-1.58.64-2.42h-1.25c.1.91.3,1.71.61,2.42Z"/>
        <path d="M124.96,92.42c-.08,0-.14-.05-.19-.14l-.69-1.44s-.02-.08-.02-.11c0-.08.05-.14.16-.18.7-.19,1.41-.46,2.05-.8-.53-.59-1.12-1.12-1.7-1.57-.05-.05-.08-.1-.08-.16,0-.05.03-.1.1-.14l1.06-.74s.11-.06.16-.06.1.03.16.06c.67.53,1.23,1.1,1.76,1.71.72-.53,1.3-1.12,1.65-1.71h-3.1c-.14,0-.22-.08-.22-.22v-1.25c0-.14.08-.22.22-.22l5.49.02c.11,0,.19.03.26.14.26.4.56.8.91,1.18.56-.45,1.06-.98,1.46-1.58.05-.08.11-.11.18-.11.05,0,.08.02.13.05l1.22.72c.08.05.13.11.13.18,0,.03-.02.08-.06.13-.5.69-1.11,1.33-1.78,1.87.27.22.56.45.87.67.67-.58,1.23-1.17,1.73-1.86.05-.06.1-.11.18-.11.03,0,.08.02.13.05l1.23.74c.06.05.11.11.11.18,0,.05-.02.1-.06.14-.48.66-1.07,1.28-1.68,1.82.61.29,1.26.54,1.94.7.14.05.21.14.14.29l-.66,1.5c-.06.13-.16.16-.29.11-.71-.24-1.41-.54-2.1-.9v.37c0,.14-.08.22-.22.22h-1.3v1.54h3.43c.16,0,.22.08.22.22v1.31c0,.14-.06.22-.22.22h-3.43v1.6c0,.37.13.48.54.51.16.02.32.03.5.03.21,0,.43-.02.64-.03.67-.05.83-.32.9-1.31.02-.18.11-.24.27-.19l1.39.46c.13.05.19.13.18.27-.14,2.13-.62,2.61-2.56,2.69-.27.02-.59.03-.91.03-.35,0-.69-.02-.95-.03-1.12-.05-2.02-.27-2.02-1.58v-2.45h-1.92c-.4,2.19-1.55,3.78-4.79,4.31h-.06c-.1,0-.16-.05-.22-.14l-.75-1.5s-.03-.08-.03-.11c0-.08.06-.14.19-.16,2.4-.32,3.3-.94,3.63-2.39h-3.04c-.14,0-.22-.08-.22-.22v-1.31c0-.14.08-.22.22-.22h3.23c.03-.5.03-1.01.03-1.54h-1.12c-.14,0-.22-.08-.22-.22v-.34c-.71.42-1.41.75-2.06.98-.03.02-.06.03-.1.03ZM131.25,87.59c-.54.94-1.44,1.89-2.48,2.71h5.17c-1.06-.75-1.98-1.65-2.69-2.71ZM132.2,93.51v-1.54h-1.71c0,.51-.02,1.04-.03,1.54h1.75Z"/>
        <path d="M142.59,90.53c1.33-1.31,2.37-3.33,2.87-5.22.03-.14.13-.19.27-.18l1.62.32c.14.03.21.13.16.27-.29,1.02-.62,1.97-1.07,2.88v10.77c0,.14-.08.22-.22.22h-1.57c-.14,0-.22-.08-.22-.22v-7.7c-.34.48-.67.86-1.01,1.18-.05.05-.1.08-.13.08-.08,0-.13-.06-.16-.16l-.61-1.95-.02-.1c0-.08.03-.14.1-.21ZM147.44,87.73h9.6c.14,0,.22.08.22.22v1.23c0,.14-.08.22-.22.22h-9.6c-.14,0-.22-.08-.22-.22v-1.23c0-.14.08-.22.22-.22ZM147.96,94.68h8.52c.16,0,.22.08.22.22v4.23c0,.16-.06.22-.22.22h-8.52c-.14,0-.22-.06-.22-.22v-4.23c0-.14.08-.22.22-.22ZM148.21,90.15h7.97c.14,0,.22.08.22.22v1.04c0,.14-.08.22-.22.22h-7.97c-.14,0-.22-.08-.22-.22v-1.04c0-.14.08-.22.22-.22ZM148.23,92.34h7.96c.14,0,.22.08.22.22v1.06c0,.14-.08.22-.22.22h-7.96c-.14,0-.22-.08-.22-.22v-1.06c0-.14.08-.22.22-.22ZM148.07,86.84v-1.12c0-.14.08-.22.22-.22h7.89c.14,0,.22.08.22.22v1.12c0,.14-.08.22-.22.22h-7.89c-.14,0-.22-.08-.22-.22ZM154.71,97.83v-1.62h-4.99v1.62h4.99Z"/>
        <path d="M167.11,99.29c-2.34,0-4.6-1.26-4.72-4.29-.02-.37-.02-.78-.02-1.23,0-2.15.14-5.19.24-7.78,0-.14.08-.22.22-.22l1.84.05c.14,0,.22.08.22.22-.18,2.67-.3,5.43-.3,7.46v.99c.06,1.84,1.28,2.64,2.64,2.64.96,0,1.98-.4,2.72-1.1.75-.77,1.15-1.81,1.44-3.39.03-.11.08-.18.16-.18.05,0,.1.02.13.05l1.6,1.01c.1.06.14.16.11.3-.34,1.41-.78,2.51-1.66,3.54-1.04,1.23-2.85,1.94-4.62,1.94Z"/>
        <path d="M187.09,98.95c-5.22-.11-7.33-2.48-7.33-4.99,0-1.79,1.07-3.65,2.82-4.83.26-.18.53-.32.8-.45-2.14.06-4.8.14-6.74.18-.14,0-.22-.06-.22-.22l-.03-1.71v-.03c0-.13.08-.19.21-.19,3.33,0,9.08-.02,12.53-.08.14,0,.22.06.22.22v1.68c0,.14-.08.22-.22.22-1.17-.02-2.21.14-3.2.61-2.43,1.09-3.84,2.83-3.84,4.35,0,1.62,1.63,2.98,5.38,2.98.16,0,.24.08.21.24l-.32,1.82c-.03.14-.11.21-.26.21Z"/>
        <path d="M194.5,90.2c0-1.1.03-2.27.08-3.46.02-.16.1-.22.24-.21l1.89.19c.14.02.21.11.19.26-.16,1.38-.26,2.75-.26,4.03,0,2.16.29,4,1.02,4.87.18.21.38.32.62.32.54,0,1.2-.61,1.74-2.06.03-.11.1-.16.16-.16.05,0,.1.02.14.06l1.2,1.26s.08.11.08.18-.02.13-.05.19c-.85,1.97-2.08,2.85-3.27,2.85-.98,0-1.9-.58-2.56-1.65-.99-1.49-1.25-3.89-1.25-6.67ZM202.41,88.07c0-.06.03-.11.11-.16l1.42-.93s.1-.05.14-.05c.06,0,.11.02.16.06,2.35,2.11,3.73,5.44,3.74,8.85,0,.14-.06.22-.19.26l-1.76.38h-.06c-.11,0-.18-.06-.18-.21-.08-2.88-.99-6.08-3.3-8.07-.06-.05-.1-.1-.1-.14Z"/>
        <path d="M213.28,90.95c2,0,3.97-.06,5.86-.19-.21-.54-.4-1.09-.58-1.63-1.58.1-3.22.18-4.95.22-.14,0-.22-.08-.24-.21l-.21-1.49v-.05c0-.13.08-.19.21-.19,1.62-.03,3.2-.08,4.69-.16l-.37-1.52v-.08c0-.1.06-.16.19-.18l1.7-.16s.03-.02.03-.02c.13,0,.19.08.22.19.1.51.21,1.06.35,1.62,1.31-.11,2.51-.24,3.59-.4h.05c.13,0,.19.06.21.21l.16,1.52v.05c0,.11-.06.19-.18.19-1.09.11-2.18.22-3.28.3.19.51.4,1.07.61,1.6,1.35-.11,2.62-.26,3.84-.43h.05c.13,0,.19.06.21.19l.21,1.5v.05c0,.11-.06.19-.18.19-1.09.14-2.19.27-3.31.37.37.69.77,1.34,1.19,1.9.03.06.05.11.05.14,0,.08-.05.13-.14.16l-1.66.59s-.06.02-.1.02c-.08,0-.14-.03-.19-.11-.54-.82-1.01-1.66-1.43-2.51-2.1.14-4.24.24-6.43.26-.14,0-.22-.06-.24-.21l-.14-1.5v-.03c0-.13.08-.21.22-.21ZM223,99.19c-1.02.14-1.98.21-2.83.21-1.06,0-1.98-.1-2.75-.27-2.61-.54-3.75-1.9-3.75-3.67,0-.3.03-.62.1-.96.03-.13.11-.19.24-.21l1.79-.24h.05c.13,0,.19.1.16.24-.05.26-.08.5-.08.72,0,1.14.69,1.84,2.1,2.14.5.11,1.1.16,1.78.16.95,0,2.05-.11,3.3-.34h.06c.13,0,.19.06.18.21l-.11,1.78c-.02.13-.08.21-.22.22Z"/>
        <path d="M241.93,92.23h-4.05l.03,2.1c1.41.58,2.88,1.46,4.31,2.66.06.05.1.11.1.18,0,.05-.02.1-.06.14l-1.22,1.44c-.05.06-.1.1-.16.1-.05,0-.1-.03-.16-.08-.88-.85-1.84-1.62-2.87-2.22-.21,1.09-.82,2.02-1.84,2.47-.58.24-1.25.37-1.92.37-1.28,0-2.58-.46-3.25-1.41-.35-.5-.53-1.04-.53-1.57,0-.85.43-1.66,1.26-2.19.67-.42,1.58-.67,2.67-.67.46,0,.96.05,1.49.14l-.03-1.44h-5.12c-.14,0-.22-.08-.22-.22v-1.46c0-.14.08-.22.22-.22h5.09l-.03-1.55h-5.36c-.14,0-.22-.08-.22-.22v-1.46c0-.14.08-.22.22-.22h5.33l-.03-1.36c0-.16.06-.24.22-.24l1.86-.02c.14,0,.22.08.22.22v1.39l4.37-.02c.14,0,.22.08.22.22v1.47c0,.14-.08.22-.22.22h-4.37v1.54h4.05c.14,0,.22.08.22.22v1.47c0,.14-.08.22-.22.22ZM232.6,96.98c.27.35.85.56,1.41.56.34,0,.67-.08.94-.22.51-.27.77-.66.85-1.47l.02-.21s-.05-.03-.08-.03c-.62-.26-1.19-.37-1.7-.37-.45,0-.83.1-1.14.27-.35.21-.54.53-.54.86,0,.21.08.42.24.61Z"/>
        <path d="M250.5,99.32l-.85-1.65s-.03-.08-.03-.11c0-.08.08-.14.21-.16,2.56-.16,4.15-.98,4.56-2.05-.34.4-1.01.61-1.7.61-.77,0-1.6-.26-2.1-.8-.5-.56-.73-1.3-.73-2.05,0-.9.34-1.79.99-2.34.61-.53,1.39-.72,2.08-.72.4,0,.77.06,1.06.16l-.02-1.02h-6.5c-.14,0-.22-.08-.22-.22v-1.6c0-.14.08-.22.22-.22h6.45l-.03-1.52v-.02c0-.13.08-.21.22-.21h1.79c.14,0,.22.08.22.22l-.02,1.52h4.4c.14,0,.22.08.22.22v1.6c0,.14-.08.22-.22.22h-4.42v.82l.02,1.95c.26.5.46,1.2.46,2.06,0,.24-.02.48-.05.74-.3,2.34-2.37,4.35-5.76,4.71h-.03c-.11,0-.19-.05-.24-.14ZM252.2,93.78c.19.27.53.4.87.4.32,0,.66-.13.85-.37.22-.3.27-.64.27-.93,0-.16-.02-.29-.03-.4-.06-.22-.26-.42-.4-.53-.18-.11-.4-.19-.64-.19-.32,0-.67.14-.9.45-.16.22-.26.51-.26.8s.08.56.24.77Z"/>
        <path d="M262.18,96.81c0-1.47,1.2-2.67,2.69-2.67s2.69,1.18,2.69,2.67-1.18,2.71-2.69,2.71-2.69-1.2-2.69-2.71ZM266.42,96.81c0-.85-.71-1.54-1.57-1.54s-1.54.69-1.54,1.54.69,1.57,1.54,1.57,1.57-.7,1.57-1.57Z"/>
        <path d="M45.09,121.59l-.93-1.74s-.03-.08-.03-.13c0-.08.06-.14.19-.16,6.07-1.04,7.86-4.55,8.39-7.6-2.93.03-6.6.08-9.32.1-.14,0-.21-.08-.21-.22v-1.71c0-.14.06-.22.22-.22l11.64-.02c.16,0,.22.08.22.22-.35,6.21-3.41,10.32-9.89,11.62h-.06c-.1,0-.18-.03-.22-.13Z"/>
        <path d="M65.01,121.65c-.27,0-.54-.02-.85-.03-.13-.02-.21-.08-.26-.19l-.5-1.49s-.02-.06-.02-.08c0-.11.08-.18.22-.16.4.03.74.06,1.04.06,1.2,0,1.62-.3,1.63-.94.03-1.1.03-2.58.05-3.84-1.28,1.97-3.28,4.1-5.6,5.46-.05.02-.1.03-.14.03-.06,0-.11-.03-.18-.08l-1.17-1.25s-.06-.11-.06-.14c0-.06.05-.13.13-.18,2.22-1.14,4.16-2.91,5.36-4.64h-4.91c-.14,0-.22-.08-.22-.22v-1.46c0-.14.08-.22.22-.22h6.48l-.02-2.05v-.02c0-.13.08-.21.22-.21h1.55c.14,0,.22.08.22.22l.02,2.05h2.06c.14,0,.22.08.22.22v1.46c0,.14-.08.22-.22.22h-2.06l.03,3.25c0,.56.03,1.28.02,1.87-.08,1.55-1.09,2.35-3.28,2.35Z"/>
        <path d="M87.22,121.06h-11.51c-.14,0-.22-.08-.22-.22v-11.12c0-.14.08-.22.22-.22l11.51-.02c.14,0,.22.08.22.22v11.14c0,.14-.08.22-.22.22ZM85.14,119v-7.51h-7.33v7.51h7.33Z"/>
        <path d="M93.15,115.94v-1.82c0-.13.06-.19.19-.19h12.2c.13,0,.19.06.19.19v1.84c0,.13-.06.19-.19.19l-12.2-.02c-.13,0-.19-.06-.19-.19Z"/>
        <path d="M117.7,121.32l-.18-1.68v-.03c0-.14.1-.21.26-.16.51.19,1.04.27,1.52.27.79,0,1.47-.22,1.89-.66.38-.4.59-.91.59-1.41,0-1.04-.9-2.08-2.95-2.08-.61,0-1.31.1-2.13.3v3.73c0,1.55-.96,2.21-2.14,2.21-.5,0-1.02-.11-1.54-.32-1.23-.51-2.18-1.52-2.18-2.75,0-.7.29-1.47,1.01-2.27.79-.88,1.75-1.52,2.85-1.97v-2.21l-3.27.02c-.14,0-.22-.08-.22-.22v-1.5c0-.14.08-.22.22-.22l3.25-.02v-1.98c-.02-.14.06-.22.21-.22h1.67c.14,0,.22.08.22.22l-.03,1.97,3.3-.02c.14,0,.22.08.22.22v1.52c0,.14-.08.22-.22.22l-3.31.02c-.02.56-.02,1.12-.02,1.68.78-.14,1.49-.22,2.14-.22,3.38,0,5.06,1.92,5.06,3.95,0,.9-.34,1.82-1.03,2.61-.88,1.02-2.16,1.47-3.44,1.47-.53,0-1.07-.08-1.57-.22-.13-.03-.18-.11-.19-.24ZM112.9,118.64c0,.45.3.82.8,1.02.14.06.29.1.42.1.34,0,.58-.21.58-.61.02-.72.02-1.63.02-2.62-.62.34-1.17.77-1.54,1.36-.19.26-.27.51-.27.75ZM120.55,110.37c0-.06.03-.11.11-.16l1.17-.86s.1-.06.14-.06c.06,0,.11.02.16.06,1.1.86,2.27,2.11,2.87,3.23.02.05.03.1.03.13,0,.06-.05.13-.13.18l-1.38.91s-.1.05-.14.05c-.06,0-.13-.05-.16-.13-.56-1.14-1.57-2.35-2.58-3.19-.06-.05-.1-.11-.1-.16Z"/>
        <path d="M130.05,122.01l-1.38-.66c-.13-.05-.16-.14-.13-.29.66-2.14.85-4.98.85-8.23,0-1.04-.02-3.54-.03-4.45,0-.14.08-.22.22-.22h6.82c.14,0,.22.08.22.22v1.36c0,.14-.08.22-.22.22h-1.3c-.08.32-.18.64-.32.94h1.54c.14,0,.22.06.22.22v5.81c0,.14-.08.22-.22.22h-1.3v2.98c0,1.38-.29,2.13-2.21,2.06-.14,0-.22-.06-.26-.19l-.34-1.2c-.06.18-.14.34-.22.48-.06.13-.18.16-.3.11l-.86-.38c-.13-.06-.16-.16-.1-.3.42-.85.75-1.84.86-2.83.02-.16.11-.22.26-.19l.9.18c.14.03.19.13.18.27-.11.72-.29,1.52-.54,2.26l.27.02c.54,0,.64-.19.64-.67v-2.58h-1.41c-.14,0-.22-.08-.22-.22v-5.81c0-.16.08-.22.22-.22h.86c.14-.32.27-.64.34-.94h-1.84v2.72c0,3.55-.22,6.87-.91,9.2-.05.14-.16.18-.29.11ZM135.06,113.38v-1.12h-1.9v1.12h1.9ZM135.06,115.83v-1.18h-1.9v1.18h1.9ZM135.4,117.91l.81-.16h.06c.11,0,.18.06.21.18.13.85.4,1.74.67,2.51.58-.22,1.12-.53,1.55-.88.05-.05.1-.08.14-.08.06,0,.11.03.16.08l.83.86c.05.06.08.11.08.18,0,.05-.02.08-.06.13-.59.61-1.57,1.22-2.46,1.52-.05.02-.08.02-.11.02-.08,0-.14-.03-.19-.11l-.62-1.04-.3.14s-.08.02-.11.02c-.08,0-.14-.05-.18-.14-.26-.83-.5-1.97-.66-2.96v-.05c0-.11.06-.18.18-.21ZM137.22,108.16h5.87c.14,0,.22.08.22.22v1.3c0,.14-.08.22-.22.22h-2.11c-.13.3-.27.61-.4.86h2.13c.14,0,.22.08.22.22v8.16c0,.14-.08.22-.22.22h-5.27c-.14,0-.22-.08-.22-.22v-8.16c0-.14.08-.22.22-.22h1.21c.14-.27.29-.58.42-.86h-1.86c-.14,0-.22-.08-.22-.22v-1.3c0-.14.08-.22.22-.22ZM141.29,113.17v-1.01h-2.43v1.01h2.43ZM141.29,115.54v-.99h-2.43v.99h2.43ZM141.29,117.99v-1.06h-2.43v1.06h2.43ZM141.22,119.44s.1.02.16.06c.53.45,1.36.85,2.1,1.07.16.05.19.16.13.3l-.69,1.22c-.06.13-.16.16-.29.11-.83-.35-1.73-.9-2.35-1.49-.05-.05-.08-.11-.08-.16,0-.06.03-.11.06-.16l.8-.88c.05-.06.1-.08.16-.08Z"/>
        <path d="M148.11,112.9c0-1.1.03-2.27.08-3.46.02-.16.1-.22.24-.21l1.89.19c.14.02.21.11.19.26-.16,1.38-.26,2.75-.26,4.03,0,2.16.29,4,1.03,4.87.18.21.38.32.62.32.54,0,1.2-.61,1.74-2.06.03-.11.1-.16.16-.16.05,0,.1.02.14.06l1.2,1.26s.08.11.08.18-.02.13-.05.19c-.85,1.97-2.08,2.85-3.27,2.85-.98,0-1.91-.58-2.56-1.65-.99-1.49-1.25-3.89-1.25-6.67ZM156.02,110.77c0-.06.03-.11.11-.16l1.42-.93s.1-.05.14-.05c.06,0,.11.02.16.06,2.35,2.11,3.73,5.44,3.75,8.85,0,.14-.06.22-.19.26l-1.76.38h-.06c-.11,0-.18-.06-.18-.21-.08-2.88-.99-6.08-3.3-8.07-.06-.05-.1-.1-.1-.14Z"/>
        <path d="M171.76,121.99c-2.34,0-4.59-1.26-4.72-4.29-.02-.37-.02-.78-.02-1.23,0-2.14.14-5.19.24-7.78,0-.14.08-.22.22-.22l1.84.05c.14,0,.22.08.22.22-.18,2.67-.3,5.43-.3,7.46v.99c.06,1.84,1.28,2.64,2.64,2.64.96,0,1.98-.4,2.72-1.1.75-.77,1.15-1.81,1.44-3.39.03-.11.08-.18.16-.18.05,0,.1.02.13.05l1.6,1.01c.1.06.14.16.11.3-.34,1.41-.79,2.51-1.67,3.54-1.04,1.23-2.85,1.94-4.62,1.94Z"/>
        <path d="M195.22,114.93h-4.05l.03,2.1c1.41.58,2.88,1.46,4.31,2.66.06.05.1.11.1.18,0,.05-.02.1-.06.14l-1.22,1.44c-.05.06-.1.1-.16.1-.05,0-.1-.03-.16-.08-.88-.85-1.84-1.62-2.87-2.22-.21,1.09-.82,2.02-1.84,2.47-.58.24-1.25.37-1.92.37-1.28,0-2.58-.46-3.25-1.41-.35-.5-.53-1.04-.53-1.57,0-.85.43-1.66,1.26-2.19.67-.42,1.58-.67,2.67-.67.46,0,.96.05,1.49.14l-.03-1.44h-5.12c-.14,0-.22-.08-.22-.22v-1.46c0-.14.08-.22.22-.22h5.09l-.03-1.55h-5.36c-.14,0-.22-.08-.22-.22v-1.46c0-.14.08-.22.22-.22h5.33l-.03-1.36c0-.16.06-.24.22-.24l1.86-.02c.14,0,.22.08.22.22v1.39l4.37-.02c.14,0,.22.08.22.22v1.47c0,.14-.08.22-.22.22h-4.37v1.54h4.05c.14,0,.22.08.22.22v1.47c0,.14-.08.22-.22.22ZM185.89,119.68c.27.35.85.56,1.41.56.34,0,.67-.08.94-.22.51-.27.77-.66.85-1.47l.02-.21s-.05-.03-.08-.03c-.62-.26-1.19-.37-1.7-.37-.45,0-.83.1-1.14.27-.35.21-.54.53-.54.86,0,.21.08.42.24.61Z"/>
        <path d="M203.79,122.02l-.85-1.65s-.03-.08-.03-.11c0-.08.08-.14.21-.16,2.56-.16,4.15-.98,4.56-2.05-.34.4-1.01.61-1.7.61-.77,0-1.6-.26-2.1-.8-.5-.56-.73-1.3-.73-2.05,0-.9.34-1.79.99-2.34.61-.53,1.39-.72,2.08-.72.4,0,.77.06,1.06.16l-.02-1.02h-6.5c-.14,0-.22-.08-.22-.22v-1.6c0-.14.08-.22.22-.22h6.45l-.03-1.52v-.02c0-.13.08-.21.22-.21h1.79c.14,0,.22.08.22.22l-.02,1.52h4.4c.14,0,.22.08.22.22v1.6c0,.14-.08.22-.22.22h-4.42v.82l.02,1.95c.26.5.46,1.2.46,2.06,0,.24-.02.48-.05.74-.3,2.34-2.37,4.35-5.76,4.71h-.03c-.11,0-.19-.05-.24-.14ZM205.49,116.48c.19.27.53.4.87.4.32,0,.66-.13.85-.37.22-.3.27-.64.27-.93,0-.16-.02-.29-.03-.4-.06-.22-.26-.42-.4-.53-.18-.11-.4-.19-.64-.19-.32,0-.67.14-.9.45-.16.22-.26.51-.26.8s.08.56.24.77Z"/>
        <path d="M220.6,120.84c0-.8.61-1.36,1.41-1.36s1.41.56,1.41,1.36-.61,1.38-1.41,1.38-1.41-.58-1.41-1.38ZM221.05,107.98h1.82c.14,0,.22.08.22.22l-.18,9.73c0,.14-.08.22-.22.22h-1.46c-.14,0-.22-.08-.22-.22l-.19-9.73c0-.14.08-.22.22-.22Z"/>
      </g>
    </g>
  </g>
</svg>