<?xml version="1.0" encoding="UTF-8"?>
<svg id="_レイヤー_2" data-name="レイヤー 2" xmlns="http://www.w3.org/2000/svg" viewBox="0 0 360 87">
  <defs>
    <style>
      .cls-1 {
        fill: #fff;
      }

      .cls-2 {
        fill: #06c755;
      }
    </style>
  </defs>
  <g id="_00.CTA" data-name="00.CTA">
    <g>
      <rect class="cls-1" width="360" height="87"/>
      <g>
        <g>
          <path d="M41.33,70.81v-1.16c0-.11.06-.17.17-.17h4.46v-3.91h-3.96c-.11,0-.17-.06-.17-.17v-1.14c0-.11.06-.17.17-.17h9.62c.11,0,.17.06.17.17v1.14c0,.11-.06.17-.17.17h-3.98v3.91h4.52c.11,0,.17.06.17.17v1.16c0,.11-.06.17-.17.17h-4.52v3.47c0,.11-.06.17-.17.17h-1.34c-.11,0-.17-.06-.17-.17v-3.47h-4.46c-.11,0-.17-.06-.17-.17ZM42.43,66.58s-.02-.07-.02-.1c0-.06.04-.11.11-.13l1.12-.36s.05-.01.07-.01c.06,0,.11.04.14.1.47.71.94,1.65,1.21,2.47.01.02.01.05.01.06,0,.07-.05.13-.12.16l-1.17.49s-.06.02-.08.02c-.06,0-.11-.05-.13-.12-.26-.78-.7-1.85-1.13-2.58ZM48.52,68.64s.02-.07.05-.11c.49-.66.97-1.64,1.23-2.45.04-.11.1-.14.2-.11l1.16.37c.11.04.14.11.11.22-.29.89-.8,1.96-1.34,2.65-.06.08-.13.11-.23.06l-1.09-.52c-.06-.02-.1-.07-.1-.12Z"/>
          <path d="M55.94,74.3v-10.16c0-.12.06-.17.17-.17h8.32c.11,0,.17.05.17.17v10.16c0,.11-.06.17-.17.17h-8.32c-.11,0-.17-.06-.17-.17ZM63.03,68.31v-2.89h-5.52s0,2.89,0,2.89h5.52ZM63.03,72.98v-3.19h-5.52s0,3.19,0,3.19h5.52Z"/>
          <path d="M72.75,74.06s.01-.06.04-.1l2.41-3.3c-.32.12-.67.19-1.04.19-1.75,0-2.99-1.28-2.99-3.15s1.4-3.25,3.47-3.25,3.47,1.4,3.47,3.33c0,1.16-.41,2.19-1.73,4.01l-1.64,2.27c-.06.07-.12.11-.21.11h-1.62c-.1,0-.14-.05-.14-.11ZM74.64,69.33c.96,0,1.64-.64,1.64-1.58s-.68-1.58-1.64-1.58-1.63.64-1.63,1.58.67,1.58,1.63,1.58Z"/>
          <path d="M81.8,72.25c.6,0,1.05.42,1.05,1.02s-.46,1.03-1.05,1.03-1.06-.43-1.06-1.03.46-1.02,1.06-1.02ZM80.74,68.43c0-.59.46-1.02,1.05-1.02.6,0,1.06.43,1.06,1.02s-.46,1.03-1.06,1.03c-.6,0-1.05-.43-1.05-1.03Z"/>
          <path d="M85.64,69.4c0-3.11,1.38-4.95,3.7-4.95s3.69,1.85,3.69,4.95-1.37,4.94-3.69,4.94-3.69-1.85-3.69-4.94ZM89.33,72.63c1.16,0,1.88-1.02,1.88-3.23s-.72-3.24-1.88-3.24-1.87,1.02-1.87,3.24.71,3.23,1.87,3.23Z"/>
          <path d="M95.78,69.4c0-3.11,1.38-4.95,3.69-4.95s3.69,1.85,3.69,4.95-1.37,4.94-3.7,4.94-3.69-1.85-3.69-4.94ZM99.47,72.63c1.16,0,1.88-1.02,1.88-3.23s-.72-3.24-1.88-3.24-1.87,1.02-1.87,3.24.71,3.23,1.87,3.23Z"/>
          <path d="M107.88,70.09c-.41,0-.62.42-.67,1.24,0,.1-.06.17-.17.17h-1.09c-.1,0-.17-.07-.17-.17.05-1.84.76-2.88,1.97-2.88,1.61,0,1.97,1.58,2.71,1.58.41,0,.62-.42.66-1.24,0-.11.07-.17.18-.17h1.08c.11,0,.18.08.18.25-.07,1.79-.75,2.78-1.97,2.78-1.61,0-1.98-1.57-2.71-1.57Z"/>
          <path d="M117.13,74v-7.03s-1.74.68-1.74.68c-.02.01-.06.02-.08.02-.05,0-.1-.04-.14-.11l-.24-.47s-.02-.07-.02-.1c0-.06.02-.1.07-.14l2.52-2.15c.07-.07.13-.08.2-.08h1.02c.11,0,.17.06.17.17v9.2c0,.11-.06.17-.17.17h-1.42c-.11,0-.17-.06-.17-.17Z"/>
          <path d="M122.99,73.97l3.37-7.69h-4.26c-.11,0-.18-.07-.18-.17v-1.32c0-.11.07-.17.18-.17h6.37c.11,0,.17.06.17.17v.44c0,.07-.01.14-.04.2l-3.66,8.59c-.05.08-.11.13-.19.13h-1.63c-.12,0-.18-.07-.13-.19Z"/>
          <path d="M131.22,68.43c0-.59.46-1.02,1.05-1.02s1.06.43,1.06,1.02-.46,1.03-1.06,1.03-1.05-.43-1.05-1.03ZM132.28,72.25c.6,0,1.06.42,1.06,1.02s-.46,1.03-1.06,1.03-1.05-.43-1.05-1.03.46-1.02,1.05-1.02Z"/>
          <path d="M136.12,69.41c0-3.11,1.38-4.95,3.69-4.95s3.69,1.85,3.69,4.95-1.37,4.94-3.69,4.94-3.69-1.85-3.69-4.94ZM139.81,72.63c1.16,0,1.88-1.02,1.88-3.23s-.72-3.24-1.88-3.24-1.87,1.02-1.87,3.24.71,3.23,1.87,3.23Z"/>
          <path d="M146.26,69.41c0-3.11,1.38-4.95,3.69-4.95s3.69,1.85,3.69,4.95-1.37,4.94-3.7,4.94-3.69-1.85-3.69-4.94ZM149.95,72.63c1.16,0,1.88-1.02,1.88-3.23s-.72-3.24-1.88-3.24-1.87,1.02-1.87,3.24.71,3.23,1.87,3.23Z"/>
          <path d="M162.52,72.7v-.73c0-.11.06-.17.17-.17h3.91v-.53h-4.58c-.11,0-.17-.06-.17-.17v-.72c0-.11.06-.17.17-.17h4.58v-.5h-3.9c-.11,0-.17-.06-.17-.17v-.65c0-.11.06-.17.17-.17h3.9v-.47h-3.65c-.11,0-.17-.06-.17-.17v-2c0-.11.06-.17.17-.17h3.65v-.46h-4.39c-.11,0-.17-.06-.17-.17v-.76c0-.11.06-.17.17-.17h4.39v-.53c0-.11.06-.17.17-.17h1.19c.11,0,.17.06.17.17v.53h4.34c.11,0,.17.06.17.17v.76c0,.11-.06.17-.17.17h-4.34v.46h3.63c.11,0,.17.06.17.17v2c0,.11-.06.17-.17.17h-3.63v.47h3.74c.11,0,.17.06.17.17v1.26h.61c.11,0,.17.06.17.17v.83c0,.11-.06.17-.17.17h-.61v1.38c0,.11-.06.17-.17.17h-3.74c-.01,1.42-.38,1.75-2.17,1.75-.2,0-.42,0-.65-.01-.1,0-.17-.05-.2-.13l-.35-.85s-.01-.06-.01-.08c0-.07.05-.12.16-.11.25.01.46.02.64.02.88,0,1.04-.16,1.07-.59h-3.91c-.11,0-.17-.06-.17-.17ZM166.6,66.84h-2.29v.55h2.29v-.55ZM170.41,66.84h-2.29v.55h2.29v-.55ZM170.53,69.72h-2.41v.53h2.41v-.53ZM170.53,71.24h-2.41v.56h2.41v-.56Z"/>
          <path d="M182.47,63.79c.04-.1.11-.13.2-.12l1.43.24c.12.02.16.11.11.22-.16.32-.37.66-.61.94h2.46c.11,0,.17.06.17.17v1.09c0,.11-.06.17-.17.17h-10.58c-.11,0-.17-.06-.17-.17v-1.09c0-.11.06-.17.17-.17h2.4c-.16-.29-.35-.61-.59-.91-.04-.05-.05-.08-.05-.11,0-.06.04-.1.12-.11l1.35-.24h.05c.07,0,.12.02.17.08.34.41.62.88.83,1.28h1.98c.3-.36.55-.84.73-1.27ZM177.22,74.63h-1.1c-.11,0-.17-.06-.17-.17v-7.16c0-.11.06-.17.17-.17h4.67c.11,0,.17.06.17.17v5.5c0,1.43-.45,1.77-2.17,1.74-.1,0-.16-.05-.19-.14l-.35-.97s-.01-.05-.01-.06c0-.08.06-.13.17-.13.9.01,1.12-.1,1.12-.52v-.5s-2.12,0-2.12,0v2.24c0,.11-.06.17-.17.17ZM179.51,68.4h-2.12v.8h2.12v-.8ZM179.51,70.32h-2.12v.79h2.12v-.79ZM181.86,72.25v-4.69c0-.11.06-.17.17-.17h1.01c.11,0,.17.06.17.17v4.69c0,.11-.06.17-.17.17h-1.01c-.11,0-.17-.06-.17-.17ZM182.44,73.26c0-.08.06-.13.17-.13.16,0,.29.01.42.01.97,0,1.12-.18,1.12-.62v-5.34c0-.11.06-.17.17-.17h1.15c.11,0,.17.06.17.17v5.62c0,1.46-.53,1.86-2.58,1.83-.1,0-.16-.05-.19-.14l-.41-1.18s-.01-.05-.01-.06Z"/>
          <path d="M188.91,69.12v-1.09c0-.11.06-.17.17-.17h4.61c-.79-.44-1.67-.89-2.33-1.19-.06-.02-.1-.07-.1-.12s.02-.08.06-.12l.83-.79s.08-.06.13-.06c.04,0,.06,0,.1.02.64.34,1.47.8,2.25,1.28.72-.43,1.4-.96,1.83-1.44h-6.31c-.11,0-.17-.06-.17-.17v-1.03c0-.11.06-.17.17-.17h8.18c.11,0,.17.06.17.17v1.07c0,.08-.01.14-.07.2-.68.78-1.67,1.61-2.55,2.17.08.06.17.11.24.17h3.26c.11,0,.17.06.17.17v1.09c0,.07-.01.13-.05.22-.43,1.04-1.14,2.11-1.86,2.88-.04.04-.08.06-.13.06-.04,0-.07-.01-.11-.04l-1.05-.73s-.07-.07-.07-.12c0-.04.02-.08.07-.12.65-.55,1.17-1.31,1.46-1.98h-2.67v3.39c0,1.31-.47,1.91-2.95,1.91h-.44c-.1,0-.16-.05-.19-.13l-.47-1.19s-.01-.05-.01-.07c0-.07.06-.12.17-.11.28.01.53.02.74.02,1.5,0,1.61-.29,1.61-.83v-3h-4.51c-.11,0-.17-.06-.17-.17Z"/>
          <path d="M202.21,73.77c.28-.84.46-1.95.48-2.93,0-.11.07-.17.18-.16l.78.1c.11.01.16.07.16.17-.02.96-.14,2.16-.41,3.11-.02.11-.1.14-.2.12l-.86-.2c-.11-.02-.16-.1-.12-.2ZM205.45,74.62h-1.07c-.11,0-.17-.06-.17-.17v-4.32c-.6.04-1.2.06-1.73.07-.11,0-.16-.06-.17-.17l-.1-1v-.02c0-.1.07-.16.17-.16h.68c.25-.28.49-.56.73-.85-.46-.52-1-1.02-1.51-1.45-.05-.04-.07-.08-.07-.13,0-.04.01-.06.02-.1l.52-.98c.04-.06.08-.1.13-.1.02,0,.06.01.1.05.06.06.13.11.19.17.32-.52.66-1.18.88-1.75.04-.1.11-.13.22-.1l1.02.35c.11.04.14.11.1.2-.32.7-.79,1.56-1.26,2.19.17.18.35.35.52.53.41-.58.78-1.16,1.08-1.71.04-.06.07-.08.13-.08.02,0,.06.01.1.02l.94.52c.06.04.1.08.1.14,0,.02-.01.06-.04.1-.65,1.01-1.56,2.15-2.29,2.95.53-.02,1.02-.05,1.43-.08-.07-.2-.13-.4-.2-.58-.01-.04-.02-.06-.02-.08,0-.06.05-.11.12-.13l.66-.19s.05-.01.06-.01c.07,0,.13.04.16.11.31.68.58,1.51.73,2.24,0,.02.01.04.01.06,0,.07-.05.12-.13.14l-.79.22s-.04.01-.05.01c-.08,0-.13-.06-.14-.14l-.07-.43c-.24.04-.52.06-.79.08v4.41c0,.11-.06.17-.17.17ZM205.97,71.06s-.01-.04-.01-.05c0-.08.06-.13.14-.16l.71-.14s.04-.01.06-.01c.07,0,.12.05.14.13.22.77.42,1.82.5,2.65v.04c0,.08-.05.13-.14.16l-.85.16s-.04.01-.05,0c-.08,0-.13-.05-.13-.14-.05-.89-.18-1.82-.37-2.63ZM207.85,68.08s-.08.06-.12.06-.08-.01-.12-.05l-.89-.7s-.06-.07-.06-.11c0-.05.01-.08.05-.12.78-.9,1.32-2.12,1.59-3.35.02-.11.08-.16.19-.14l1.13.13c.11.01.17.08.14.19-.06.3-.17.66-.28.96h3.09c.11,0,.17.06.17.17,0,1,.02,2.13.02,3.29s-.02,2.31-.11,3.37c-.17,2.06-1,2.9-3.43,2.81-.1,0-.16-.06-.19-.14l-.46-1.21s-.01-.05-.01-.07c0-.08.06-.13.16-.12.17.01.32.01.47.01,1.46,0,1.83-.41,1.93-1.45.1-.96.12-1.93.12-2.9,0-.78-.01-1.55-.01-2.31h-2.3c-.3.6-.67,1.2-1.09,1.69ZM207.89,68.73s-.05-.07-.05-.11c0-.05.04-.1.1-.12l1-.49s.07-.02.1-.02c.05,0,.1.02.13.07.56.73,1.06,1.63,1.37,2.48.01.02.01.05.01.07,0,.06-.04.11-.11.14l-1.06.5s-.06.02-.08.02c-.06,0-.11-.05-.13-.12-.28-.85-.73-1.71-1.27-2.43Z"/>
          <path d="M216.21,64.94c2.5,0,6.8-.01,9.39-.06.11,0,.17.05.17.17v1.26c0,.11-.06.17-.17.17-.88-.01-1.65.11-2.4.46-1.82.82-2.88,2.12-2.88,3.26,0,1.21,1.22,2.23,4.03,2.23.12,0,.18.06.16.18l-.24,1.37c-.02.11-.08.16-.19.16-3.91-.08-5.49-1.86-5.49-3.74,0-1.34.8-2.73,2.11-3.62.19-.13.4-.24.6-.34-1.61.05-3.6.11-5.05.13-.11,0-.17-.05-.17-.17l-.02-1.28v-.02c0-.1.06-.14.16-.14ZM223.19,67.9l.54-.23s.06-.01.1-.01c.05,0,.1.02.13.07.38.46.82,1.22,1.04,1.8.01.02.01.05.01.07,0,.07-.04.12-.11.14l-.61.25s-.06.02-.08.02c-.06,0-.11-.05-.13-.12-.22-.6-.56-1.26-.95-1.78-.04-.04-.05-.07-.05-.11,0-.05.04-.1.11-.12ZM225.72,69.42c-.06,0-.11-.04-.14-.12-.22-.56-.61-1.26-.97-1.71-.04-.04-.05-.07-.05-.11,0-.05.04-.1.1-.12l.54-.22s.06-.02.08-.02c.05,0,.1.02.14.07.4.43.85,1.2,1.07,1.76.01.02.01.05.01.07,0,.06-.04.11-.11.14l-.6.23s-.05.02-.07.02Z"/>
          <path d="M229.8,68.52v-1.22c0-.11.06-.17.17-.17h3.69v-3.26c0-.11.06-.17.17-.17h1.36c.11,0,.17.06.17.17v3.26h3.75c.11,0,.17.06.17.17v1.22c0,.11-.06.17-.17.17h-3.75v4.01h4.45c.11,0,.17.06.17.17v1.2c0,.11-.06.17-.17.17h-10.55c-.11,0-.17-.06-.17-.17v-1.2c0-.11.06-.17.17-.17h4.41v-4.01h-3.69c-.11,0-.17-.06-.17-.17Z"/>
          <path d="M243.64,74.3v-10.16c0-.12.06-.17.17-.17h8.32c.11,0,.17.05.17.17v10.16c0,.11-.06.17-.17.17h-8.32c-.11,0-.17-.06-.17-.17ZM250.73,68.32v-2.89h-5.52v2.89h5.52ZM250.73,72.98v-3.19h-5.52v3.19h5.52Z"/>
          <path d="M255.82,69.95c0-.06.02-.11.08-.14,1.08-.67,2.09-1.79,2.6-3.01h-2.16c-.11,0-.17-.06-.17-.17v-1.07c0-.11.06-.17.17-.17h1.16v-1.54c0-.12.06-.17.17-.17h1.15c.11,0,.17.05.17.17v1.54h.96c.11,0,.17.06.17.17v1.04c0,.07-.01.13-.04.2-.19.56-.53,1.19-.94,1.78.4.42.91.83,1.37,1.07.08.06.12.13.07.23l-.52,1.14c-.02.06-.07.1-.12.1-.04,0-.07-.01-.11-.05-.3-.26-.64-.6-.92-.98l.05,4.37c0,.11-.06.17-.17.17h-1.14c-.11,0-.17-.06-.17-.17l.04-4.02c-.35.32-.7.61-1.02.84-.04.02-.07.04-.1.04-.06,0-.1-.04-.13-.11l-.46-1.18s-.01-.05-.01-.07ZM259.2,73.49s.04-.08.11-.12c1.68-.73,2.12-2.12,2.17-3.98h-.74c-.11,0-.17-.06-.17-.17v-4.99c0-.11.06-.17.17-.17h5.41c.11,0,.17.06.17.17l-.02,4.99c0,.11-.06.17-.17.17h-1.27v3.19c0,.23.07.35.3.38.07.01.12,0,.19,0,.35-.04.41-.5.43-1.75,0-.13.08-.19.2-.13l.94.49c.1.04.13.1.12.2-.06,1.97-.29,2.52-1.5,2.61-.1.01-.23.01-.37.01-.22,0-.43-.01-.59-.02-.84-.06-1.14-.43-1.14-1.16v-3.83h-.62c-.04,2.48-.62,4.21-2.44,5.13-.04.01-.07.02-.1.02-.05,0-.1-.02-.13-.06l-.89-.89s-.06-.07-.06-.11ZM264.86,68.04v-2.63h-2.84v2.63h2.84Z"/>
          <path d="M277.49,69.14c0-.06.05-.11.14-.11l1.32.02c.08,0,.16.04.19.12.28.59.42,1.21.42,1.81,0,1.19-.53,2.29-1.58,2.88-.66.36-1.46.55-2.27.55-1.86,0-3.71-1.01-3.72-3.13,0-.31,0-.64.02-.96h-1.8c-.11,0-.17-.06-.17-.17v-1.07c0-.11.06-.17.17-.17h1.88l.16-1.5h-1.97c-.11,0-.17-.06-.17-.17v-1.06c-.01-.11.05-.17.16-.17h2.14c.06-.64.13-1.28.19-1.91,0-.1.07-.16.18-.16l1.33.06c.12,0,.17.07.16.18l-.22,1.82h2.66c.11,0,.17.06.17.17v1.06c0,.11-.06.17-.17.17h-2.82c-.05.52-.1,1.02-.13,1.5h2.82c.11,0,.17.06.17.17v1.06c.01.12-.05.18-.16.18h-2.92c-.01.28-.02.55-.02.82,0,1.18.97,1.76,2.03,1.76.46,0,.92-.11,1.33-.34.62-.32.92-.98.92-1.73,0-.52-.14-1.08-.43-1.61-.01-.04-.02-.07-.02-.1Z"/>
          <path d="M282.9,66.85v-1.13c0-.11.06-.17.17-.17h1.66v-1.68c0-.11.06-.17.17-.17h1.2c.11,0,.17.06.17.17v1.68h1.57c.11,0,.17.06.17.17v1.13c0,.11-.06.17-.17.17h-.49c-.07,1.21-.28,2.3-.61,3.3.55.74,1.08,1.51,1.51,2.23.02.04.02.06.02.1,0,.05-.02.1-.07.13l-1.04.85s-.07.05-.11.05c-.05,0-.1-.04-.13-.1-.26-.52-.58-1.04-.92-1.57-.53.94-1.19,1.75-1.99,2.43-.04.04-.07.05-.12.05-.04,0-.08-.02-.12-.06l-.91-.95s-.06-.08-.06-.12.02-.07.07-.11c1-.77,1.7-1.62,2.18-2.6-.59-.77-1.21-1.49-1.8-2.07-.04-.04-.06-.08-.06-.12s.02-.08.07-.12l.91-.74s.07-.05.12-.05c.04,0,.08.02.12.06.38.38.8.84,1.21,1.32.12-.59.19-1.21.23-1.91h-2.77c-.11,0-.17-.06-.17-.17ZM288,68.65s-.04-.07-.04-.11c0-.05.02-.1.1-.12l1-.47s.07-.02.1-.02c.05,0,.1.02.13.07.55.71,1.19,1.85,1.5,2.72.01.02.01.05.01.07,0,.06-.02.11-.1.14l-1.08.55s-.06.02-.08.02c-.06,0-.11-.05-.13-.12-.3-.91-.84-1.94-1.4-2.75ZM289.73,74.61c-.1,0-.17-.04-.2-.13l-.47-1.21s-.01-.05-.01-.07c0-.07.06-.12.17-.11.26.01.49.02.68.02,1.14,0,1.2-.24,1.2-.73v-5.17h-2.66c-.11,0-.17-.06-.17-.17v-1.19c0-.11.06-.17.17-.17h2.66v-1.85c0-.11.06-.17.17-.17h1.19c.11,0,.17.06.17.17v1.85h1.02c.11,0,.17.06.17.17v1.19c0,.11-.06.17-.17.17h-1.02v5.54c0,1.46-.78,1.86-2.89,1.86Z"/>
          <path d="M297.49,74.54s-.06-.01-.1-.04l-1.16-.7c-.1-.06-.12-.13-.07-.23.66-1.39.8-3.19.82-6.09,0-.6,0-1.85-.02-2.64,0-.11.06-.17.17-.17h3.97v-.83c0-.11.06-.17.17-.17h1.4c.11,0,.17.06.17.17v.83h3.93c.11,0,.17.06.17.17v1.12c0,.11-.06.17-.17.17h-8.25s0,1.34,0,1.34c0,2.79-.11,4.99-.89,6.96-.04.07-.07.11-.13.11ZM298.45,72.71c.37-1.01.62-2.39.71-3.65.01-.12.08-.17.19-.14l1.02.25c.1.02.16.08.14.19-.11,1.18-.36,2.78-.68,3.86-.04.11-.1.14-.2.11l-1.08-.41c-.11-.04-.13-.12-.1-.22ZM303.86,74.34c-.2.01-.44.02-.67.02-.24,0-.47-.01-.68-.02-1.12-.05-1.63-.43-1.63-1.44v-4.28c0-.11.06-.17.17-.17h1.19c.11,0,.17.06.17.17v3.81c0,.35.16.46.53.48.16,0,.31.01.46.01.16,0,.3-.01.42-.01.48-.02.66-.36.67-1.33,0-.13.07-.19.19-.14l1.04.41c-.23-1.03-.65-2.04-1.07-2.75-.02-.04-.02-.07-.02-.1,0-.06.04-.11.11-.13l1.01-.32s.05-.01.07-.01c.06,0,.12.04.16.1.55.88,1.13,2.05,1.4,3.2,0,.02.01.04.01.06,0,.07-.05.13-.12.16l-1.24.52c-.06.02-.1.04-.13.01-.14,1.33-.58,1.67-2.03,1.76ZM301.24,67.44s.01-.06.04-.1l.54-.86c.06-.08.12-.12.22-.08.94.31,1.97.79,2.64,1.31.05.05.07.08.07.13,0,.04-.01.07-.04.11l-.71.91s-.07.06-.11.06c-.05,0-.08-.01-.12-.05-.63-.59-1.56-1-2.42-1.31-.07-.02-.11-.07-.11-.12Z"/>
          <path d="M309.69,65.52v-1.19c0-.11.06-.17.17-.17h10.61c.11,0,.17.06.17.17v1.19c0,.11-.06.17-.17.17h-1.29v6.78c0,1.56-.5,2.14-2.87,2.14h-.36c-.1,0-.16-.05-.19-.13l-.48-1.18s-.01-.05-.01-.07c0-.07.06-.12.17-.12.2.01.4.01.56.01,1.49,0,1.61-.28,1.61-.85v-6.57h-7.75c-.11,0-.17-.06-.17-.17ZM310.97,66.97h5.15c.11,0,.17.06.17.17v4.68c0,.11-.06.17-.17.17h-5.15c-.11,0-.17-.06-.17-.17v-4.68c0-.11.06-.17.17-.17ZM314.78,68.38h-2.5v2.21h2.5v-2.21Z"/>
        </g>
        <g>
          <g>
            <rect class="cls-2" x="21" y="15" width="32.99" height="33" rx="7.44" ry="7.44"/>
            <g>
              <path class="cls-1" d="M48.48,29.95c0-4.92-4.93-8.93-11-8.93s-11,4.01-11,8.93c0,4.41,3.91,8.11,9.2,8.81.36.08.85.24.97.54.11.28.07.71.04.99,0,0-.13.78-.16.94-.05.28-.22,1.09.95.59,1.17-.49,6.33-3.73,8.64-6.39h0c1.59-1.75,2.36-3.52,2.36-5.49Z"/>
              <g>
                <path class="cls-2" d="M44.83,32.79h-3.09c-.12,0-.21-.09-.21-.21h0v-4.8h0c0-.12.09-.21.21-.21h3.09c.12,0,.21.09.21.21v.78c0,.12-.09.21-.21.21h-2.1v.81h2.1c.12,0,.21.09.21.21v.78c0,.12-.09.21-.21.21h-2.1v.81h2.1c.12,0,.21.09.21.21v.78c0,.12-.09.21-.21.21Z"/>
                <path class="cls-2" d="M33.4,32.79c.12,0,.21-.09.21-.21v-.78c0-.12-.09-.21-.21-.21h-2.1v-3.81c0-.12-.09-.21-.21-.21h-.78c-.12,0-.21.09-.21.21v4.8h0c0,.12.09.21.21.21h3.09Z"/>
                <rect class="cls-2" x="34.27" y="27.57" width="1.2" height="5.22" rx=".21" ry=".21"/>
                <path class="cls-2" d="M40.57,27.57h-.78c-.12,0-.21.09-.21.21v2.85l-2.2-2.97s-.01-.01-.02-.02c0,0,0,0,0,0,0,0,0,0-.01-.01,0,0,0,0,0,0,0,0,0,0-.01,0,0,0,0,0,0,0,0,0,0,0-.01,0,0,0,0,0,0,0,0,0,0,0-.01,0,0,0,0,0,0,0,0,0,0,0-.01,0,0,0,0,0,0,0,0,0,0,0-.01,0,0,0,0,0,0,0,0,0,0,0-.01,0,0,0,0,0,0,0,0,0,0,0-.01,0,0,0,0,0-.01,0,0,0,0,0,0,0h-.78c-.12,0-.21.09-.21.21v4.8c0,.12.09.21.21.21h.78c.12,0,.21-.09.21-.21v-2.85l2.2,2.97s.03.04.05.05c0,0,0,0,0,0,0,0,0,0,.01,0,0,0,0,0,0,0,0,0,0,0,.01,0,0,0,0,0,.01,0,0,0,0,0,0,0,0,0,0,0,.01,0,0,0,0,0,0,0,.02,0,.04,0,.05,0h.78c.12,0,.21-.09.21-.21v-4.8c0-.12-.09-.21-.21-.21Z"/>
              </g>
            </g>
          </g>
          <g>
            <polygon class="cls-2" points="67 31.33 86 42.3 86 20.36 67 31.33"/>
            <rect class="cls-2" x="75" y="11" width="267" height="41" rx="6" ry="6"/>
          </g>
          <g>
            <path class="cls-1" d="M95.69,38.09v-12.28c0-.14.08-.22.22-.22h1.89c.13,0,.22.08.22.22v10.26h6.12c.14,0,.22.1.22.22v1.79c0,.14-.08.22-.22.22h-8.24c-.14,0-.22-.08-.22-.22Z"/>
            <path class="cls-1" d="M106.93,38.09v-12.28c0-.14.08-.22.22-.22h1.89c.13,0,.22.08.22.22v12.28c0,.14-.1.22-.22.22h-1.89c-.14,0-.22-.08-.22-.22Z"/>
            <path class="cls-1" d="M112.67,38.09v-12.28c0-.14.08-.22.22-.22h1.98c.13,0,.21.05.29.16l5.68,8.79v-8.72c0-.14.08-.22.22-.22h1.81c.13,0,.22.08.22.22v12.28c0,.14-.1.22-.22.22h-1.98c-.13,0-.21-.05-.27-.16l-5.71-8.8v8.74c0,.14-.08.22-.22.22h-1.79c-.14,0-.22-.08-.22-.22Z"/>
            <path class="cls-1" d="M126.51,38.09v-12.28c0-.14.08-.22.22-.22h8.03c.14,0,.22.08.22.22v1.76c0,.13-.08.22-.22.22h-5.92v2.88h5.34c.14,0,.24.1.24.24v1.71c0,.13-.1.22-.24.22h-5.34v3.25h6.12c.14,0,.22.1.22.24v1.74c0,.14-.08.22-.22.22h-8.24c-.14,0-.22-.08-.22-.22Z"/>
            <path class="cls-1" d="M137.18,26.01c3.33,0,9.07-.02,12.52-.08.14,0,.22.06.22.22v1.68c0,.14-.08.22-.22.22-1.17-.02-2.21.14-3.2.61-2.43,1.09-3.84,2.83-3.84,4.35,0,1.62,1.63,2.98,5.37,2.98.16,0,.24.08.21.24l-.32,1.82c-.03.14-.11.21-.26.21-5.21-.11-7.32-2.48-7.32-4.99,0-1.79,1.07-3.65,2.81-4.83.26-.18.53-.32.8-.45-2.14.06-4.8.14-6.73.18-.14,0-.22-.06-.22-.22l-.03-1.71v-.03c0-.13.08-.19.21-.19ZM146.48,29.95l.72-.3s.08-.02.13-.02c.06,0,.13.03.18.1.51.61,1.09,1.63,1.39,2.4.02.03.02.06.02.1,0,.1-.05.16-.14.19l-.82.34s-.08.03-.11.03c-.08,0-.14-.06-.18-.16-.29-.8-.75-1.68-1.26-2.37-.05-.05-.06-.1-.06-.14,0-.06.05-.13.14-.16ZM149.86,31.98c-.08,0-.14-.05-.19-.16-.29-.75-.82-1.68-1.3-2.29-.05-.05-.06-.1-.06-.14,0-.06.05-.13.13-.16l.72-.29s.08-.03.11-.03c.06,0,.13.03.19.1.53.58,1.13,1.6,1.42,2.35.02.03.02.06.02.1,0,.08-.05.14-.14.19l-.8.3s-.06.03-.1.03Z"/>
            <path class="cls-1" d="M155.01,32.99c.06-.11.16-.16.29-.13l1.71.34c.11.02.16.08.16.16,0,.03-.02.08-.05.13-.21.37-.3.72-.3,1.01,0,.64.43,1.1,1.23,1.31.64.18,1.42.26,2.29.26,1.66,0,3.58-.3,5.15-.74l.08-.02c.11,0,.18.08.18.21l-.02,1.87c0,.13-.08.22-.22.26-1.46.38-3.17.58-4.8.58-1.21,0-2.38-.11-3.34-.34-1.9-.46-2.86-1.65-2.86-3.04,0-.61.18-1.23.51-1.86ZM164.71,27.4h-.06l.03.48v.03c0,.13-.06.21-.19.22-1.31.18-2.78.26-4.27.26-1.7,0-3.39-.1-4.89-.27-.13-.02-.21-.11-.19-.26l.11-1.7c0-.14.1-.21.24-.19,1.39.16,3.01.26,4.64.26,1.3,0,2.61-.06,3.81-.19-.19-.35-.43-.72-.67-1.02-.05-.05-.06-.11-.06-.14,0-.08.05-.13.14-.16l.8-.29s.08-.03.11-.03c.06,0,.13.03.19.1.59.67,1.12,1.49,1.42,2.26.02.03.02.06.02.1,0,.08-.05.14-.14.19l-.93.35s-.06.02-.1.02ZM165.24,24.02l.78-.29s.08-.02.11-.02c.08,0,.14.02.19.08.51.56,1.1,1.41,1.46,2.18.02.03.03.06.03.11,0,.08-.06.14-.16.18l-.88.34s-.06.03-.1.03c-.08,0-.14-.05-.19-.14-.3-.69-.8-1.54-1.33-2.16-.05-.05-.06-.11-.06-.14,0-.06.05-.13.14-.16Z"/>
            <path class="cls-1" d="M173.86,38.93h-1.57c-.14,0-.22-.08-.22-.22l.08-6.74c-.46,1.15-1.07,2.32-1.79,3.28-.05.06-.1.1-.14.1-.06,0-.11-.05-.16-.13l-.83-1.52s-.03-.1-.03-.13c0-.06.02-.13.06-.18,1.13-1.26,2.08-2.95,2.72-4.59h-1.9c-.14,0-.22-.08-.22-.22v-1.41c0-.14.08-.22.22-.22h2v-2.39c0-.14.08-.22.22-.22h1.57c.14,0,.22.08.22.22l-.02,2.39h1.66c.14,0,.22.08.22.22v1.41c0,.14-.08.22-.22.22h-1.54c.58,1.14,1.33,2.19,2.03,2.93.1.1.11.19.06.3l-.7,1.63c-.03.08-.1.13-.16.13-.05,0-.1-.03-.14-.1-.45-.64-.91-1.42-1.29-2.21l.08,7.22c0,.14-.06.22-.21.22ZM176.69,24.9h6.52c.14,0,.22.08.22.22v13.4c0,.14-.08.22-.22.22h-6.52c-.14,0-.22-.08-.22-.22v-13.4c0-.14.08-.22.22-.22ZM181.44,26.79h-2.97v2.16h2.97v-2.16ZM181.44,30.75h-2.97v2.05h2.97v-2.05ZM181.44,34.57h-2.97v2.26h2.97v-2.26Z"/>
            <path class="cls-1" d="M186.18,26.97h5.09c.14,0,.22.08.22.22v1.25c0,.14-.08.22-.22.22h-5.09c-.14,0-.22-.08-.22-.22v-1.25c0-.14.08-.22.22-.22ZM190.93,38.65h-4.38c-.14,0-.22-.08-.22-.22v-4.24c0-.14.08-.22.22-.22h4.38c.14,0,.22.08.22.22v2.85l.06-.02c2.85-.72,3.65-2.26,3.71-5.17.02-.18.02-.35.02-.53s0-.34-.02-.5c0-.14.08-.22.22-.22h1.47c.14,0,.22.08.22.22,0,.24,0,.53-.02.83.06,2.9,1.22,4.53,3.74,5.3.14.05.21.14.13.29l-.78,1.49c-.06.13-.18.16-.3.11-1.69-.69-2.96-1.92-3.57-3.63-.53,1.79-1.82,2.98-3.82,3.65-.03.02-.06.02-.1.02-.08,0-.16-.05-.21-.13l-.77-1.31v.99c0,.14-.08.22-.22.22ZM186.72,24.66h4.05c.14,0,.22.08.22.22v1.14c0,.14-.08.22-.22.22h-4.05c-.14,0-.22-.08-.22-.22v-1.14c0-.14.08-.22.22-.22ZM186.72,29.42h4.05c.14,0,.22.08.22.22v1.04c0,.14-.08.22-.22.22h-4.05c-.14,0-.22-.08-.22-.22v-1.04c0-.14.08-.22.22-.22ZM186.72,31.66h4.05c.14,0,.22.08.22.22v1.04c0,.14-.08.22-.22.22h-4.05c-.14,0-.22-.08-.22-.22v-1.04c0-.14.08-.22.22-.22ZM189.55,35.42h-1.63v1.68h1.63v-1.68ZM192.24,31.58s-.06.02-.1.02c-.08,0-.14-.05-.19-.14l-.64-1.28s-.03-.08-.03-.11c0-.08.06-.14.18-.16,2.43-.54,3.41-2.02,3.41-4.4v-.94c0-.14.08-.22.22-.22h1.49c.14,0,.22.06.22.21,0,.19-.02.43-.02.67.06,2.61,1.04,3.86,3.58,4.51.16.03.21.14.14.29l-.69,1.44c-.06.13-.16.18-.29.13-1.77-.66-2.96-1.81-3.58-3.09-.51,1.42-1.92,2.53-3.71,3.09ZM191.7,25.79s-.05-.1-.05-.13c0-.08.05-.14.14-.18l1.17-.42s.08-.02.1-.02c.08,0,.14.03.19.11.45.61.83,1.41,1.06,2.11.02.03.02.06.02.1,0,.08-.05.14-.14.19l-1.17.5s-.08.03-.11.03c-.08,0-.14-.06-.18-.16-.24-.78-.61-1.54-1.02-2.15ZM191.71,32.7s-.05-.11-.05-.14c0-.08.05-.13.14-.16l1.18-.38s.08-.02.11-.02c.08,0,.14.03.19.11.45.66.78,1.39.99,2.1,0,.03.02.06.02.08,0,.1-.05.18-.14.21l-1.15.48s-.08.03-.11.03c-.08,0-.14-.06-.18-.16-.24-.75-.59-1.5-1.01-2.15ZM197.42,27.35s.02-.1.05-.14c.43-.54.78-1.26.99-2.02.05-.14.13-.19.27-.16l1.25.34c.14.03.21.14.16.3-.24.83-.64,1.63-1.09,2.27-.08.11-.18.13-.3.08l-1.2-.51c-.1-.03-.13-.1-.13-.16ZM197.52,34.27s.02-.1.05-.14c.43-.56.78-1.31.99-2.1.03-.14.13-.21.27-.16l1.25.38c.14.05.19.14.16.27-.21.78-.59,1.66-1.06,2.35-.08.11-.18.14-.3.1l-1.23-.54c-.1-.03-.13-.1-.13-.16Z"/>
            <path class="cls-1" d="M208.17,31.64c0-.96.77-1.73,1.73-1.73s1.73.77,1.73,1.73-.78,1.73-1.73,1.73-1.73-.77-1.73-1.73Z"/>
            <path class="cls-1" d="M226.71,37.93l-.18-1.68v-.03c0-.14.1-.21.26-.16.51.19,1.04.27,1.52.27.78,0,1.47-.22,1.89-.66.38-.4.59-.91.59-1.41,0-1.04-.9-2.08-2.94-2.08-.61,0-1.31.1-2.13.3v3.73c0,1.55-.96,2.21-2.14,2.21-.5,0-1.02-.11-1.54-.32-1.23-.51-2.17-1.52-2.17-2.75,0-.7.29-1.47,1.01-2.27.78-.88,1.74-1.52,2.85-1.97v-2.21l-3.26.02c-.14,0-.22-.08-.22-.22v-1.5c0-.14.08-.22.22-.22l3.25-.02v-1.98c-.02-.14.06-.22.21-.22h1.66c.14,0,.22.08.22.22l-.03,1.97,3.29-.02c.14,0,.22.08.22.22v1.52c0,.14-.08.22-.22.22l-3.31.02c-.02.56-.02,1.12-.02,1.68.78-.14,1.49-.22,2.14-.22,3.37,0,5.05,1.92,5.05,3.95,0,.9-.34,1.82-1.02,2.61-.88,1.02-2.16,1.47-3.44,1.47-.53,0-1.07-.08-1.57-.22-.13-.03-.18-.11-.19-.24ZM221.91,35.26c0,.45.3.82.8,1.02.14.06.29.1.42.1.34,0,.58-.21.58-.61.02-.72.02-1.63.02-2.62-.62.34-1.17.77-1.54,1.36-.19.26-.27.51-.27.75ZM229.55,26.99c0-.06.03-.11.11-.16l1.17-.86s.1-.06.14-.06c.06,0,.11.02.16.06,1.1.86,2.27,2.11,2.86,3.23.02.05.03.1.03.13,0,.06-.05.13-.13.18l-1.38.91s-.1.05-.14.05c-.06,0-.13-.05-.16-.13-.56-1.14-1.57-2.35-2.57-3.19-.06-.05-.1-.11-.1-.16Z"/>
            <path class="cls-1" d="M238.24,38.91h-1.5c-.14,0-.22-.08-.22-.22v-13.73c0-.14.08-.22.22-.22h5.71c.14,0,.22.08.22.22v5.94c0,.14-.08.22-.22.22h-3.98v7.57c0,.14-.08.22-.22.22ZM240.88,26.3h-2.42v.98h2.42v-.98ZM240.88,28.59h-2.42v1.04h2.42v-1.04ZM239.88,37.21v-4.8c0-.14.08-.22.22-.22h6.12c.14,0,.22.08.22.22v4.5c1.18,0,1.41-.27,1.41-.9v-4.9h-4.03c-.14,0-.22-.08-.22-.22v-5.94c0-.14.08-.22.22-.22h5.76c.14,0,.22.08.22.22v11.51c0,1.94-.94,2.45-3.17,2.42-.13,0-.21-.06-.26-.19l-.4-1.25h-5.88c-.14,0-.22-.08-.22-.22ZM244.67,33.76h-2.99v2.08h2.99v-2.08ZM247.88,26.3h-2.46v.98h2.46v-.98ZM247.88,28.59h-2.46v1.04h2.46v-1.04Z"/>
            <path class="cls-1" d="M253.27,29.51c0-1.1.03-2.27.08-3.46.02-.16.1-.22.24-.21l1.89.19c.14.02.21.11.19.26-.16,1.38-.26,2.75-.26,4.03,0,2.16.29,4,1.02,4.87.18.21.38.32.62.32.54,0,1.2-.61,1.74-2.06.03-.11.1-.16.16-.16.05,0,.1.02.14.06l1.2,1.26s.08.11.08.18-.02.13-.05.19c-.85,1.97-2.08,2.85-3.26,2.85-.98,0-1.9-.58-2.56-1.65-.99-1.49-1.25-3.89-1.25-6.67ZM261.17,27.39c0-.06.03-.11.11-.16l1.42-.93s.1-.05.14-.05c.06,0,.11.02.16.06,2.35,2.11,3.73,5.44,3.74,8.85,0,.14-.06.22-.19.26l-1.76.38h-.06c-.11,0-.18-.06-.18-.21-.08-2.88-.99-6.08-3.29-8.07-.06-.05-.1-.1-.1-.14Z"/>
            <path class="cls-1" d="M269.9,30.7c-.08,0-.14-.05-.18-.14l-.66-1.74s-.02-.06-.02-.1c0-.08.05-.14.16-.18,2.66-.91,4.8-2.58,6.03-4.08.06-.1.14-.13.27-.13h1.71c.13,0,.21.03.29.11,1.54,1.68,3.74,3.12,6.16,3.99.14.05.19.14.14.27l-.64,1.76c-.05.13-.16.18-.29.11-.74-.34-1.47-.72-2.17-1.14v1.02c0,.14-.08.22-.22.22h-8.06c-.14,0-.22-.08-.22-.22v-.93c-.72.43-1.47.82-2.19,1.15-.03.02-.08.02-.11.02ZM270.99,32.09h10.95c.14,0,.22.08.22.22v5.94c0,.14-.08.22-.22.22h-10.95c-.14,0-.22-.08-.22-.22v-5.94c0-.14.08-.22.22-.22ZM280.07,36.64v-2.71h-7.23v2.71h7.23ZM276.41,26.07c-.77.98-1.87,1.92-3.09,2.75h6.41c-1.25-.82-2.38-1.76-3.33-2.75Z"/>
            <path class="cls-1" d="M293.11,38.43h-.02c-.1,0-.18-.06-.22-.18l-.62-1.65s-.02-.06-.02-.1c0-.1.06-.16.19-.16,1.85-.08,3.33-.56,4.16-1.12.99-.7,1.46-1.78,1.46-2.77,0-1.06-.53-2.05-1.47-2.43-.4-.18-.83-.27-1.28-.27-1.3,0-2.72.75-4,2.1-.03,1.49-.06,3.03-.06,4.47l.03,2.03v.02c0,.13-.08.21-.22.21l-1.74.02c-.14,0-.22-.08-.22-.22l.06-3.92c-.54.91-1.12,1.78-1.68,2.5-.05.06-.11.08-.16.08-.06,0-.11-.02-.16-.08l-1.21-1.31s-.06-.1-.06-.14c0-.06.02-.11.06-.16,1.12-1.2,2.43-2.83,3.29-4.21l.02-1.09-2.81.05c-.14,0-.22-.06-.22-.22v-1.52c0-.14.06-.22.21-.22l2.86-.06.05-3.09c0-.14.08-.22.22-.22h1.73c.14,0,.22.08.22.22l-.13,4.32c1.23-.99,2.67-1.55,4.08-1.55.64,0,1.28.11,1.89.35,1.84.72,2.8,2.58,2.8,4.48,0,1.68-.74,3.39-2.25,4.43-1.02.7-2.64,1.28-4.72,1.44h-.03Z"/>
            <path class="cls-1" d="M305.12,34.52c-.03-.58-.05-1.36-.05-2.26l.02-2.06-2.19.08c-.14,0-.22-.08-.22-.22l-.02-1.6v-.03c0-.13.08-.19.21-.21l2.25-.08.02-2.66c0-.14.08-.22.22-.22h1.77c.14,0,.22.1.22.24-.03.85-.05,1.73-.08,2.56l4.78-.18c0-.85-.02-1.71-.05-2.51,0-.16.08-.24.22-.24l1.73.02c.14,0,.22.08.22.22.02.77.02,1.62.02,2.45l2.32-.1c.14,0,.21.08.22.22l.02,1.62c0,.14-.06.22-.21.22l-2.38.1c-.03.94-.1,1.79-.19,2.35-.24,1.55-1.06,2.06-2.24,2.18-.29.03-.61.05-.94.05s-.66-.02-1.02-.03c-.14,0-.22-.06-.24-.19l-.42-1.68-.02-.06c0-.13.08-.19.22-.16.83.1,1.41.13,1.81.1.54-.05.74-.32.8-.69.06-.38.1-1.02.13-1.79l-4.81.18c-.02.62-.02,1.23-.02,1.78,0,.94.02,1.74.05,2.34.06,1.1.46,1.57,1.62,1.71.32.03.82.08,1.49.08,1.05,0,2.54-.08,4.46-.34h.05c.13,0,.21.08.19.21l-.02,1.74c0,.14-.16.22-.45.26-1.46.11-2.7.16-3.76.16-.99,0-1.79-.05-2.4-.11-1.97-.24-3.25-1.25-3.34-3.43Z"/>
          </g>
        </g>
      </g>
    </g>
  </g>
</svg>