<?xml version="1.0" encoding="UTF-8"?>
<svg id="_レイヤー_2" data-name="レイヤー 2" xmlns="http://www.w3.org/2000/svg" xmlns:xlink="http://www.w3.org/1999/xlink" viewBox="0 0 1400 357">
  <defs>
    <style>
      .cls-1 {
        fill: #84cc37;
      }

      .cls-2 {
        fill: #abda3e;
      }

      .cls-3 {
        fill: #c3e459;
      }

      .cls-4 {
        fill: #a2d439;
      }

      .cls-5 {
        fill: #a6d639;
      }

      .cls-6 {
        fill: none;
      }

      .cls-7 {
        fill: #cfe761;
      }

      .cls-8 {
        fill: #6fc02d;
      }

      .cls-9 {
        fill: #9cd437;
      }

      .cls-10 {
        fill: #adda40;
      }

      .cls-11 {
        fill: #86ca31;
      }

      .cls-12 {
        fill: #b2dd43;
      }

      .cls-13 {
        fill: #a9d83b;
      }

      .cls-14 {
        fill: #7bc52d;
      }

      .cls-15 {
        fill: #a7d73c;
      }

      .cls-16 {
        fill: #86cc31;
      }

      .cls-17 {
        fill: #92cd33;
      }

      .cls-18 {
        fill: #9bd439;
      }

      .cls-19 {
        fill: #b7df48;
      }

      .cls-20 {
        fill: #6dbf2d;
      }

      .cls-21 {
        fill: #add83f;
      }

      .cls-22 {
        fill: #b6de49;
      }

      .cls-23 {
        fill: #b2dc41;
      }

      .cls-24 {
        fill: #9cd337;
      }

      .cls-25 {
        fill: #c4e358;
      }

      .cls-26 {
        fill: #a4d43a;
      }

      .cls-27 {
        fill: #add93f;
      }

      .cls-28 {
        fill: #7ec72f;
      }

      .cls-29 {
        clip-path: url(#clippath);
      }

      .cls-30 {
        fill: #a6d73d;
      }
    </style>
    <clipPath id="clippath">
      <rect class="cls-6" x="511" width="360" height="357"/>
    </clipPath>
  </defs>
  <g id="_00.ガイド等" data-name="00.ガイド等">
    <g class="cls-29">
      <g>
        <path class="cls-23" d="M800.03,264.65c-1.26-1.97-2.8-3.9-4.37-5.83,1.11,2.08,2.54,4.03,4.37,5.83Z"/>
        <path class="cls-23" d="M1033.36,293.83c-1.25.34-2.24.95-2.89,1.93.7-.73,1.65-1.37,2.89-1.93Z"/>
        <path class="cls-23" d="M204.88,207.6c-.18,0-.36-.01-.54-.02.5.55.99,1.12,1.49,1.71-.28-.59-.6-1.15-.95-1.69Z"/>
        <path class="cls-23" d="M986.1,207.16c.02.65.03,1.34.02,2.06.18-.74.16-1.42-.02-2.06Z"/>
        <path class="cls-23" d="M314.87,186.63c-.03.17-.06.34-.09.52.16-.03.33-.04.5-.05-.14-.16-.28-.31-.42-.47Z"/>
        <path class="cls-23" d="M1055.74,228.98c.16-.64.29-1.31.37-2-.45.79-.54,1.45-.37,2Z"/>
        <path class="cls-23" d="M935.02,250.7c-1.18,1.03-2.48,1.88-3.97,2.51,1.66-.12,3.03-.84,3.97-2.51Z"/>
        <path class="cls-23" d="M753.94,259.29c.7.02,1.42.11,2.15.25-.74-.61-1.43-.8-2.15-.25Z"/>
        <path class="cls-23" d="M440.33,220.13c-.25.45-.34.98-.33,1.56.11-.51.22-1.03.33-1.56Z"/>
        <path class="cls-23" d="M1228.97,249.43c-1.02-.84-1.99-1.59-2.92-2.27.84,1.28,1.71,2.72,2.6,4.34.08-.68.19-1.37.32-2.07Z"/>
        <path class="cls-23" d="M1264.76,273.68c-.56-.86-1.12-1.74-1.67-2.64.39.94.87,1.73,1.67,2.64Z"/>
        <path class="cls-23" d="M843.68,157.72c-.09.04-.17.08-.26.12.42.44.87.86,1.33,1.25-.35-.46-.71-.92-1.07-1.37Z"/>
        <path class="cls-23" d="M1157.08,234.61c-1.53-1.73-3.12-3.56-4.76-5.5.31,1.02.74,1.97,1.27,2.86,1.1.89,2.26,1.77,3.49,2.64Z"/>
        <path class="cls-23" d="M1186.14,244.58c-1.47-.24-3.04-.71-4.66-1.37,1.63,1.05,3.21,1.46,4.66,1.37Z"/>
        <path class="cls-23" d="M1179.32,242.23c-.56-.28-1.13-.58-1.69-.89-.66.33-1.31.55-1.94.67,2.06,1.45,3.94,2.41,5.69,3-.75-.66-1.44-1.57-2.06-2.78Z"/>
        <path class="cls-23" d="M1149.21,225.4c-.88-1.06-1.77-2.14-2.68-3.26-2.21-.84-3.6-1.64-4.34-2.36.62.9,1.27,1.79,1.97,2.68,1.79.7,3.49,1.64,5.05,2.93Z"/>
        <path class="cls-23" d="M1141.44,216.29c.12.47.26.93.41,1.38.13-.14.28-.27.46-.39-.05,0-.1.01-.15.02-.25-.34-.49-.68-.73-1.02Z"/>
        <path class="cls-23" d="M1141.55,218.84c-.06-.21-.07-.4-.03-.59-.14-.04-.28-.07-.42-.11.15.23.3.46.45.7Z"/>
        <path class="cls-23" d="M1122.29,260.91c.87.51,1.82,1.03,2.84,1.54-.81-.6-1.78-1.1-2.84-1.54Z"/>
        <path class="cls-11" d="M414.45,293.15c-11.39-10.68,9.07-16.89,3.98-25.63-5.95,2.16-3.7,8.38-12.62,2.02-24.21-2.36,9-26.38-9.75-26.65-2.86,2.85-7.49,5-6.43,10.12,2.32,15.05-21.73,5.94-27.28,14.24-11.57,59.18-28.58-15.22-45,22.58-8.42-28.23-45.09-12.45-19.3,1.99,9.86-16.43,10.57,6.87,6.64,11.33-4.12,1.07-2.26-7.43-6.29-5.48-1.41,1.7.47,5.79-3.31,5.35-6.46-1.84,2.06-13.95-8.62-12.66-13.64-6.82-5.6,3.92-20.76,6.66-3.8.62-7.32,7.46-10.35,9.77-7.67-3.92-17.05,8.33-21.13,2.41.68-7.97-3.25-15.25-12.5-8.53-5.21,3.32,4.47,9.62-1.68,11.82-10.29-7-1.02-26.23-12.41-35.97-11.09-13,36.14-23.66,17.52-28.12-26.51,9.85-11.68-23.33-19.33-39.14-.5-.59-1-1.16-1.49-1.71-1.04-.06-2.22-.24-3.61-.79,2.54,14.48.99,12.52-3.37,1.36q-3.26,7.05-6.77,1.77c7.43,16.44,2.34,29.89-7.66,8.43-.17-.29-2.16-5.68-6.61-5.47,5.19,16.88-1.85,11.18-10.55,12.32-1.06,3.73,5.93,5.12,1.53,9.1-7.12,6.06-5.84-10.47-9.9-11.3-.76.14-1.28.6-1.65,1.27-.15.4-.29.79-.44,1.18-1.11,4.46,1.19,13.38-2.36,13.95-2.11,1.87-10.46,5.01-6.76,9.17,3.06,47-50.66,29.93-37.95,68.22h299.83c-.63-7.52,12.23-16.28,6.38-23.63ZM364.94,274.72c1.09,7.41,12.47,9.88,13.4,14.51-16.05,9.03-15.24-3.1-13.4-14.51ZM380.18,278.75c1.2-2.7,3.08-5.16,6.46-5.74,10.13,1.21-5.32,16.08-6.46,5.74ZM397.26,295.2c-4.95-.21-1-7.01,2.97-6.24,7.27.42,1.51,6.51-2.97,6.24Z"/>
        <path class="cls-11" d="M417.32,315.4c-.36.38-.64.85-.88,1.37h6.61c-.63-3.02-1.82-4.69-5.74-1.37Z"/>
        <path class="cls-18" d="M335.65,180.69c-3.27-3.15-3.67.07-3.28,4.5,1.57-.39,3.16-1.05,4.75-2.03-.46-.72-.95-1.54-1.47-2.47Z"/>
        <path class="cls-18" d="M221.42,205.9c-7.03,9.85-.49,25.37-6.96,32.51-9.45,3.52,4.62,10.61,9.16,5.19,27.12-9.26-.92-40.68,37.61-14.6-13.18-30.41,16.99-1.69,33.19-1.68,4.42,0,9.49,1.51,4.59,7.74-2.86,3.64,5.02,12.07,10.13,11.47,10.56-7.38-2.4-31.13,22.14-22.45,36.06-8.69,2.6,16.11,19.81,17.55,3.27-.56,11.12-1.92,10.26,3.1-.35,2.3-1.83,2.52-4.26,1.93-12.07-5.95-11.4,16.57-2.19,9.05,5.61-5.81,11.61,7.55,15.08-1.75,2.69-8.19,11.26,2.69,15.32-2.13,11.59-14.97-31.4-21.07-9.91-32.16,9.83,2.87,11.31-12.57,3.2-16.41-9.5-2.49,3.79-8.96-2.45-11.69-11.12-5.17,5.28-8.02.08-12.79-.34-1.11-.7-2.14-1.06-3.11-.7.98-1.49,1.58-3.04.25-2.84-.06-.68,8.79-5.49,13.03,5.85,9.17,9.59,22.91.88,18.95-5.67-3.44-4.86,4.77-9.61,4.16-7.83-2.88,4.01-17.17-6.85-16.98-5.64.48-16.8-5.83-16.33,3.14,16.82,47.51-16.75,6.55-35.49,21.99-8.77,13.56-19.82-11.17-29.77-9.23-4.7,1.21-7.9.42-10.27-1.49-1.24,5.1-10.73,5.91-8.28-1.9,2.17-13.6-8.41,9.69-10.41-1.57-.03-.11-.06-.22-.08-.33-2.44.18-5.5-.6-8.45-1.35-1.85.56-3.7-.68-3.44,2.63,1.11,11.58-1.39,2.26-4.01-3.81-1.64.16-2.8.91-3.11,2.74ZM358.68,216.67c8.28.36-4.29,12.67-5.7,4.61.58-2.75,2.92-4.01,5.7-4.61ZM347.54,213.57c-4.05-.47-6.72-2.41-6.68-6.45,1.33-14.22,20.94,5.59,6.68,6.45Z"/>
        <path class="cls-18" d="M316.7,179.72c.49.56,1.01,1.09,1.56,1.59-.62-1.61-1.12-2.01-1.56-1.59Z"/>
        <path class="cls-18" d="M88.5,298.1c34.71-14.96,50.73-31.27,54.91-63.63,1.12-.59,1.97-1.24,2.6-1.92-.67-4.69.67-8.35-5.44,2.38-.48-.26-.88-.43-1.22-.53-.43.84-.93,1.73-1.51,2.66.41,3.26,2.11,8.49.13,10.34-2.41.58-5.14-.2-7.92-1.75-5.24.94-12.86-6.99-19.04,1.18-2.93.68-5.6,2.35-7.71,4.46.71,3.56.96,7.07-.18,9.36-.63-2.18-1.42-4.32-2.28-6.31-3.97,6.2-3.26,13.74,7.5,13.3,6.92-3.76,30.75-3.82,16.66,5.42-52,29.83-38.74,10.88-49.43-11.53-1.28,3.29-8.49-4.76-6.07-9.22.02-.04.04-.08.06-.12-1.03-1.22-2.17-2.43-3.42-3.63-1.21,1.17-2.23,2.87-2.38,4.77-4.1,13.03-7.54,5.72-12.18,18.26-2.98.61.52,4.37-.7,4.88-9.51,6.86-7.89-4.33-8.5-11.16-11.78,15.12,1.37,45.52-25.65,26.73-1.89-2.16-3.99-4.48-6.27-6.79-.92.76-2.26,1.17-4.51,1.17.9,3.42-1.99,1.94-5.93-.94v4.08c3.73.78,6.69,2.77,7.28,8.53,1.4,5.04,6.66,18.32,13.58,11.74,7.82-11.26,14.26,5.8,21.46-1.24,8.1-4.59,11.66.44,14.51,8.18h26.65c-4.68-.79-10.26-4.34-18.14-15.93,5.57-7.68,22.53,11.86,23.16-2.75Z"/>
        <path class="cls-18" d="M88.46,316.78h10.46c-3.77-1.41-7-.45-10.46,0Z"/>
        <path class="cls-21" d="M1264.76,273.68c-.8-.91-1.28-1.71-1.67-2.64-3.9-6.43-7.42-14.03-10.16-23.47-4.3-5.5-10.01-17.5-8.31-22.37-6.99-.98-9.62,7.15-11.46-1.38-.96-.69-1.32-.29-1.37.72.55,1.66,1.34,3.47,2.4,5.45.97.73,1.38,1.57,1.38,2.41.34.56.7,1.13,1.07,1.71-.85,1.75-2.02,2.93-3.39,3.7,0,.02-.01.05-.02.08-1.4,1.06-2.36,1.3-3.03,1-4.98.92-11.35-1.03-16.35-1.35-13.34-3.19-19.97,20.47-32.6,7.93.29.05.57.09.85.11-.25-.16-.49-.35-.72-.56-1.75-.58-3.63-1.55-5.69-3-11.57,2.31-18.3-27.35-33.37-24.74-.18.12-.34.25-.46.39.1.27.2.54.31.81-.19-.09-.41-.16-.64-.22-.04.19-.04.38.03.59.21.32.42.63.64.94.74.72,2.13,1.52,4.34,2.36.91,1.12,1.8,2.2,2.68,3.26,1.05.87,2.03,1.89,2.94,3.1.05.2.11.41.17.61,1.64,1.94,3.23,3.77,4.76,5.5,4.49,3.18,9.82,6.19,16.16,8.95.97,2.04,1.91,3.84,2.83,5.45.62.76,1.13,1.57,1.48,2.45,19.03,29.49,27.17-31.77,46.57-6.98.25.27.48.58.69.91.41.55.82,1.15,1.23,1.78.93.68,1.9,1.43,2.92,2.27-.14.7-.24,1.39-.32,2.07,2.8,5.09,5.82,11.9,9.12,20.85,28.39,22.31,40.44,8.17,54.36,44.43h6.26c-7.33-16.42-21.89-25.15-33.64-43.1Z"/>
        <path class="cls-21" d="M1397.43,287.49c2.49.19-3.23.22-2.72-.59-2.1-11.65-4.41,7.07-11.87,2.78.18-3.61,4.19-5.79,5.6-8.51-1.44-.2-2.95-.5-4.5-.93-1.85,2.62-3.31,6.62-5.31,7.94,1.1-3.9,1.73-6.87,2.03-9-.91-.34-1.82-.72-2.74-1.14-1.11,2.62-2.26,6.69-2.91,11.73-6.15-5.03-6.95-16.9-16.06-19.05,3.14,7.13-2.4,7.81-7.09,9.22-6.26,1.35-.2-5.85-2.63-8.24-3.32-2.62-6.49-5.63-10.05-7.49-.26.89-.33,1.91-.24,3.01.93,1.08,1.83,2.11.72,3.73,1.45,5.09,4.63,10.85,6.27,14.21,3.58,8.07-16.14,1.97-11.88,12.35-2.37,12.13,12.31,15.32,24.49,19.28h41.46v-31.97c-.84.18-1.67.89-2.57,2.68ZM1360.93,297.93c-1.68-1.59-1.18-3.45-.56-5.8,3.89,1.2,4.13,6.84.56,5.8Z"/>
        <path class="cls-5" d="M1224.5,236.13c1.77.11,3.16.09,4.25-.06-.59-2.94-.63-7.28-2.55-8.96.76,4.02.51,7.34-1.7,9.01Z"/>
        <path class="cls-5" d="M1226.3,220.59c-.41-1.21-.7-2.45-.79-3.69-.91.07-1.33,1.02-1.63,2.24.52,1.44,1.01,2.87,1.41,4.26.24-.95.67-1.91,1.01-2.82Z"/>
        <path class="cls-5" d="M1334.04,297.49c-4.26-10.37,15.46-4.27,11.88-12.35-1.64-3.36-4.82-9.11-6.27-14.21-.16.23-.35.47-.6.72,0,0,0,0,0,0-1.94,1.81-3.92,5.03-5.82-.02,2.78-22.48,1.57-1.84-5.96-16.47-2.13-4.39-5.42-7.1-9.19-9.13,2.14,4.11,2.68,8.17-.78,10.77-6.36,3.07-10.58-26.46-15.5-7.31-.69-1.44-1.22-4.75-2.97-3.77.03,5.1.93,16.27-6.55,15.18,2.27-12.42-19.32-.05-11.07-11.34,1.17-6.99-10.37-15.11-10.98-25.9-1.29,4.53.35,24.65-3.06,18.14.44-10.51-5.89-2.33-14.21-10.8-1.85,1.91-1.88,6.84,2.57,19.13-.73-.42-1.63-1.33-2.6-2.57,2.74,9.44,6.25,17.03,10.16,23.47.55.9,1.1,1.79,1.67,2.64,11.74,17.95,26.31,26.67,33.64,43.1h60.15c-12.19-3.97-26.86-7.15-24.49-19.28Z"/>
        <path class="cls-5" d="M1377.91,278.04c.92.42,1.83.8,2.74,1.14.81-5.81-.91-5.46-2.74-1.14Z"/>
        <path class="cls-5" d="M1388.72,278.18c-2-.93-3.49.22-4.79,2.06,1.55.42,3.06.73,4.5.93.47-.91.65-1.88.29-2.98Z"/>
        <path class="cls-5" d="M1234.19,229.98c.42.78.88,1.58,1.38,2.41,0-.84-.41-1.68-1.38-2.41Z"/>
        <path class="cls-5" d="M1339.18,264.2c-.41-.21-.82-.41-1.24-.6-.73,1.57.14,2.61,1,3.61-.09-1.1-.02-2.12.24-3.01Z"/>
        <path class="cls-10" d="M79.67,248.13c.59.18,1.17.31,1.74.4-.53-1.01-1.06-1.37-1.74-.4Z"/>
        <path class="cls-10" d="M38.29,261.05c-.89.58-1.79,2-2.68,3.67,2.03-.84,3.96-2.07,5.56-3.49-.61-.67-1.52-.82-2.88-.18Z"/>
        <path class="cls-10" d="M90.09,246.56c1.17-.73,2.25-1.62,3.21-2.61-1.41-.55-2.58.15-3.21,2.61Z"/>
        <path class="cls-26" d="M318.26,181.31c-.55-.5-1.07-1.03-1.56-1.59-.26.25-.5.79-.72,1.53,1.07.72,2.07,1.48,2.98,2.26-.25-.9-.48-1.62-.7-2.19Z"/>
        <path class="cls-26" d="M42.36,265.32c-.16-1.8-.48-3.3-1.2-4.09-1.6,1.43-3.53,2.66-5.56,3.49-2.9,5.44-5.83,13.69-8.73,5.8-2.68-8.87-1.32,6.02.36,9.47-1.9.76-5.27-1.07-6.18,1.82-.42,3.62,4.9,1.04,4.25,5.58-1.23,3.13-5.86,1.21-7.34,2.82-.59-4.53-2.22-9.36-3.24-13.82-2.35,4.14-2.35,7.27-4.27,8.86,2.28,2.32,4.38,4.64,6.27,6.79,27.01,18.79,13.87-11.61,25.65-26.73Z"/>
        <path class="cls-26" d="M66.13,248.56c1.26,1.2,2.39,2.41,3.42,3.63,2.83-6.17-.75-6.2-3.42-3.63Z"/>
        <path class="cls-26" d="M130.05,245.65c-5.59-3.11-11.44-9.3-15.52-13.69.23,6.72.15,7.2-3.73,13.19-.16-2.79-1.41-5.08-3.56-4.48-2.71.75,1.17,3.63-.48,5.22-11.02-14.83-5.44-4.53-3.46,5.41,2.11-2.11,4.78-3.78,7.71-4.46,6.18-8.17,13.8-.24,19.04-1.18Z"/>
        <path class="cls-26" d="M137.85,237.06c.58-.93,1.08-1.82,1.51-2.66-1.55-.43-1.74.79-1.51,2.66Z"/>
        <path class="cls-26" d="M269.48,210.98c9.95-1.94,20.99,22.79,29.77,9.23,18.74-15.44,52.3,25.52,35.49-21.99-.47-8.97,10.68-2.66,16.33-3.14,10.86-.2-.98,14.09,6.85,16.98,4.74.62,3.94-7.6,9.61-4.16,8.71,3.96,4.98-9.78-.88-18.95-.27.24-.56.47-.88.68-2.23-6.85-11.48-3.88-14.4-12.76-7.33-1.68-5.8,19.46-14.24,6.3-1.59.97-3.19,1.64-4.75,2.03.43,4.86,1.81,11.18,1.41,12.12-6.48.7-5.47-5.99-10.42-9.17,11.48,15.19,1.05,34.78-9.6,26.81-1.45-.76-2.88-2.25-4.2-4.69-2.42-1.52-4.39-2.52-6.02-3.12-.61.92-3.52.27-4.14-.7-4.47.42-5.83,5.53-12.72,8.05-5.44-.58-7.73-5.45-8.23-9.97-.13.07-.27.13-.41.18-1.03-2.8-.73-5.41-.07-7.97-.18-.83-.31-1.66-.39-2.47-1.1.22-2.51-.21-4.44-1.55-3.73,3.29-7.54,7.19-7.94,8.88-1.19,4.98-3.49,4.71-7.62,2.34,1.63,2.16,1.99,4.06,1.62,5.58,2.37,1.91,5.56,2.7,10.27,1.49Z"/>
        <path class="cls-26" d="M125,273.06c14.09-9.24-9.74-9.18-16.66-5.42-10.76.44-11.48-7.1-7.5-13.3-2.32-5.3-5.24-9.49-7.53-10.39-.96.99-2.04,1.87-3.21,2.61-.49,1.9-.67,4.85-.39,9.09,1.13.44,1.83,1.44,1.53,3.16,0,4.99-8.4,5.03-9.22.14.4-1.24,1.58-2.25,2.98-2.88-1.76-2.16-2.68-5.8-3.59-7.53-.58-.09-1.16-.22-1.74-.4-.9,1.27-2.08,4.83-3.9,12.21,0,.5-.08.89-.19,1.19,10.69,22.41-2.58,41.36,49.43,11.53ZM85.75,268.47c7.97-9.1,10.86,7.4,13.61,11.99-2.95,10.7-15.03-7.66-13.61-11.99Z"/>
        <path class="cls-9" d="M1178.65,240.76s0,0,0,0c0,0,0,0,0,0,0,0,0,0,0,0,.95,1.04,1.9,1.85,2.83,2.45,1.62.66,3.19,1.13,4.66,1.37,6.4-.38,10.42-10.28,6.57-16.6-5.7-5.82,3.71-6.85,5.08-.94.86,13.62,10.75,2.04,17.34,7.85,3.9.68,6.98,1.08,9.37,1.23,2.2-1.67,2.46-4.99,1.7-9.01-.07-.06-.14-.12-.21-.17-1.01-1.06-1.02-2.29-.7-3.54-.41-1.39-.89-2.82-1.41-4.26-.57,2.35-.69,5.71-2.97,5.81-2.49.52-2.12-5.97-4.97-5.21.87,4.55,4.4,15.74-2.19,10.89-3.91-6.25-1.71-17.49-.48-25.84-5.48,7.19-10.16,8.02-14-.9-1.37,1.67,1.66,13.46,3.99,14.97-.07.52-.82-.02-1.24.79-6.97,10.79-1.93-1.04-9.75-3.37.73,14.1-8.29,9.18-8.72-1.32,0-5.18-3.51-2.79-5.46-3.49-2.72-1.96-4.79,28.17-10.01,4.61-1.01-7.27-4.43-6.3-5.45.06-.32,6.11-2.51,3.9-5.75-.63,1.89,5.65,11.7,12.02,21.77,25.26Z"/>
        <path class="cls-9" d="M1178.65,240.76c-.35.22-.69.41-1.03.58.57.32,1.13.61,1.69.89-.23-.45-.45-.94-.67-1.47Z"/>
        <path class="cls-28" d="M17.68,314.42c-3.18,2.04-4.77,1.68-6.63-1.16-3.99-12.01-7.66-16.59-11.05-17.75v8.16c2.19,1.76,4.48,5.45,11.03,13.11h8.7c3.87-2.03,7.55-4.49,12.54,0h4.41c-6.06-3.2-10.96-10.11-19-2.36Z"/>
        <path class="cls-20" d="M0,316.78h3.09c-1.05-.83-2.09-1.64-3.09-2.37v2.37Z"/>
        <path class="cls-1" d="M42.32,308.6c-7.2,7.04-13.64-10.02-21.46,1.24-6.93,6.58-12.18-6.71-13.58-11.74-.59-5.76-3.55-7.75-7.28-8.53v5.94c3.38,1.17,7.06,5.75,11.05,17.75,1.86,2.84,3.45,3.19,6.63,1.16,8.03-7.75,12.94-.84,19,2.36h20.16c-2.85-7.74-6.41-12.77-14.51-8.18Z"/>
        <path class="cls-8" d="M0,314.4c1,.74,2.04,1.55,3.09,2.37h7.93c-6.54-7.66-8.84-11.35-11.03-13.11v10.74Z"/>
        <path class="cls-8" d="M19.72,316.78h12.54c-4.99-4.49-8.67-2.03-12.54,0Z"/>
        <path class="cls-24" d="M732.38,303.98c-11.07-.5-29.33-13.71-12.71-19.38,19.72-4.13,22.37-26.47,28.8-39.42-6.31-3.98-23.85,6.4-13.68-9.31,6.11-8.32,6.02-8.44,17.64-6.59,15.04,2.79-3.42-25.53,10.01-24.43,21.22-3.36-4.13-32.6,9.79-42.2.11-.08.21-.15.31-.23-.3-3.1-2.06-6.41-10.89-8.44-1.11,1.6.52,2.33,1.06,3.4,6.69,6.84-6.93,4.88-5.92-3.41-.38-3.07-1.13-3.63-1.99-3.39.89,3.12,1.51,6.71,1.78,10.84,2.77,3.92-3.63,8.17,2.58,11.36,7.1,11.21-13.28,1-1.54,20.89-11.14,6.32-3.34-10.09-12.17-9.35-14.34-.42-32.72-5.56-43.37,5.16,7.12-.67,22.98,5.4,14.66,12.53-6.52-.26-7.24,19.65-13.73,7.59-1.13-2.33-2.67-4.11-5.88-3.55-10.27,1.83-.29-9.94-9.28-10.04-14.72-4.68,5.34-41.06-26.41-11.69-18.37,4.06-24.67-27.12-56.24-.88-13.03-.31-19.46-23.32-32.7-7.5-16.09,3.29-16.49,27.63-36.75,21.9-6.32-2.08-13.67,6.11-4.52,7.38,3.02.97,8.13-2.1,9.35,1.6-15.18,7.79,3.36,8.78-10.1,15.53-21.92-2.08,3.32-19.01-38.62-4.26-3.97,9.88-8.94-5.25-16.69-3.5-15.04-3.9,3.13-20.61-19.66-23.53-11.14-3.03-4.52,23.24-14.31,28.17-.39.23-.67.53-.86.88-.11.53-.22,1.05-.33,1.56.04,1.98,1.31,4.53,2.07,6.36,3.12,13.62-21.09,3.64-16.8,20.67-5.47,23.86,29.22,36.08-9.43,38.32,4.36,8,10.81,18.68,15.32,29.74h41.56c.92-.13,1.88-.23,2.89-.29,6.64-2.93-5.81-2.79-2.98-6.26,6.04-5.09,11.93,3.31,16.47,6.56h4.57c4.68-4.92,10.48.04,16.72-2.23,12.19,1.48-7.42-22.49-13.26-14.63-2.75,1.83-7.1-.21-9.34-3.43-8.25-12.84-27-11.35-35.68-24.25-28.62-4.75-22.67-36.26-.62-24.25,4.48-2.11.2-7.61,4.21-10.39,3.43-3.66,5.92-7.01-1.8-8.91-5.66-2.36,2.78-9.75,5.97-4.99,1.76,11.55,14.11-8.69,20.17,4.89,7.44,6.35,26.33-6.6,35.95,6.64,16.46-.7,13.46,16.66,29.67,18.87,23.77,14.43,16.74,4.17,37.44-7.79,2.21-5.41,23.79-2.3,10.68-11.36-18.8-13.67,15.96-21.96-34.09-11.75-23.8,1.06,5.38-41.86,14.43-38.07,12.32,17.25,37.18-3.98,47.9,10.41,5.68,2.17,16.19.29,27.22-1.05.26-.03.51-.07.77-.09,18.47-2.19,38.11-2.59,38.8,20.2,17.45,10.75,20.34.78,30.32,32.34,1.75,11.02-26.47,10.64-38.5,14.77.09.06.17.11.26.18-9.78,2.44.66,17.56,1.19,24.03-5.28,6.39,2.3,18.32,8.61,17.86,20.52-17.43,15.73-9.44,26.97,6.39,2.96,1.48,2.74,4.03,1.89,6.64h19.61c.13-5.39.57-10.44-6.8-12.8ZM444.42,304.77c-1.22,5.32-12.74.66-13.11-3.68.84-7.72,12.57-1.48,13.11,3.68ZM565.27,232.24c11.4-.22,12.73.52,12.7,7.9.41,17.8-25.86.53-12.7-7.9ZM631.03,187.92c-1.5-4.51-13.81-10.09-2.58-10.9,12.04-1.06,15.02,18.09,2.58,10.9ZM672.69,183.62c-2.83.44-1.63-3,.72-3.01,1.91.79.98,2.66-.72,3.01Z"/>
        <path class="cls-17" d="M492.42,166.11c-3.13-4.03-3.41-.57-3.29,4.71,1.63-.77,3.12-1.66,4.27-2.76-.39-.58-.73-1.22-.99-1.95Z"/>
        <path class="cls-17" d="M155.31,225.45c.15-.39.29-.79.44-1.18-.19.34-.33.74-.44,1.18Z"/>
        <path class="cls-17" d="M425.26,248.72c-4.28-17.03,19.92-7.05,16.8-20.67-.76-1.82-2.03-4.38-2.07-6.36-.01-.58.09-1.11.33-1.56.19-.35.47-.65.86-.88,9.79-4.93,3.17-31.2,14.31-28.17,22.79,2.92,4.62,19.62,19.66,23.53,7.75-1.75,12.73,13.38,16.69,3.5,41.94-14.75,16.7,2.18,38.62,4.26,13.46-6.75-5.08-7.73,10.1-15.53-1.22-3.71-6.33-.63-9.35-1.6-9.15-1.27-1.8-9.47,4.52-7.38,20.26,5.73,20.66-18.61,36.75-21.9,13.24-15.82,19.67,7.19,32.7,7.5,31.58-26.24,37.88,4.94,56.24.88,31.76-29.37,11.69,7.01,26.41,11.69,8.99.09-.99,11.87,9.28,10.04,3.21-.56,4.75,1.23,5.88,3.55,6.5,12.06,7.21-7.84,13.73-7.59,8.33-7.13-7.53-13.2-14.66-12.53,10.65-10.72,29.02-5.59,43.37-5.16,8.83-.74,1.04,15.67,12.17,9.35-11.74-19.89,8.64-9.68,1.54-20.89-6.21-3.19.18-7.43-2.58-11.36-.27-4.14-.89-7.72-1.78-10.84-1.46.41-3.25,3.12-4.21-.05-6.97-12.65,1.22,20.38-7.29,12.68-2.93-2.88-2.3-16.37-6.13-13.48-.97.83-1.84,1.44-2.63,1.86,2.43,8.95,8.45,20.36-6.04,12.73-3.38-4.26-6.27-5.82-8.84-5.66-.26.77-.53,1.59-.81,2.46-.23-.52-.42-1.3-.58-2.21-9.22,2.82-14.74,27.06-27.02,22.2-11.78-6.68,8.85-10.36,2.3-17.97-1.39-1.86-.86-4.5-.54-6.87-2.4,2.63-5.58,4.07-6.03,1.67-.76-1.96-1.41-3.63-1.97-5.04-7.31,8.07,2.07,26.11-25.8,9.26-3.74-3.48-.35-5.17,2.09-7.33-.29-1.55-.53-3.04-.78-4.25-1.34.28-2.62.64-3.83,1.05-.63,1.47-1.36,3.41-2.23,5.91-1.94,5.1-4.67,2.34-7.1-.98-1.55,1.1-3.02,2.27-4.46,3.47.04,3.21-3.09,8.1-3.75,3.17-2.03,1.72-4.08,3.41-6.27,4.92.14,1.64-.37,2.61-3.19,2.2,0-.07-.01-.13-.02-.2-9.67,5.38-22.75,6.61-48-6.26-1.15,3.61-3.16,5.56-6.93-.46-1.03-1.64-1.83-2.62-2.47-3.1-.65.15-1.28.35-1.88.62-1.41,3.5-.17,14.65-5.87,4.71-8.08,9.52-13.14,27.79-25.47,26.71-21.53-.22-69.41,43.67-56.23-3.3-10.6-8.65-8.79-11.93-3.71-14.3-.02-.06-.04-.13-.06-.18-3.46-1.18-4.29-4.25-5-7.31-1.7,1.37-2.62,3.55-3.42,5.77.41,1.16.97,2.19,1.67,2.98,3.05,4.04-2.66,10.58-5.17,5.39-.32-.4-.63-.77-.92-1.12-1.05.45-2.4.5-4.19-.02-13.77-6.45-21.16,11.41-36.79,5.68-2.74-1.98-8.21-1.22-6.99,2.72,2.33,5.24,10.65.6,13.64,4.9-3.17,11.27-15.48,14.9-27.08,9.87-15.3,2.28-9.58-20.89-8.44-34.47-.86-4.96-4.87-9.31-6.04-.8-.65,2.51-1.36,3.08-2.11,2.98-1.5,2.52-3.63,4.35-5.51,4.31-.64,3.13-1.2,2.91-5.21-2.24-1.06.28-1.64,1.54-2.31,2.47.36.97.71,2,1.06,3.11,5.2,4.77-11.2,7.62-.08,12.79,6.24,2.73-7.06,9.2,2.45,11.69,8.11,3.84,6.63,19.28-3.2,16.41-21.49,11.09,21.5,17.19,9.91,32.16-4.06,4.82-12.63-6.06-15.32,2.13-3.47,9.3-9.47-4.06-15.08,1.75-9.21,7.52-9.88-14.99,2.19-9.05,2.43.59,3.91.37,4.26-1.93.86-5.02-6.99-3.66-10.26-3.1-17.21-1.44,16.25-26.24-19.81-17.55-24.54-8.68-11.58,15.07-22.14,22.45-5.11.6-12.99-7.83-10.13-11.47,4.89-6.22-.17-7.74-4.59-7.74-16.19-.01-46.37-28.73-33.19,1.68-38.53-26.08-10.49,5.34-37.61,14.6-4.54,5.43-18.61-1.67-9.16-5.19,6.48-7.14-.06-22.66,6.96-32.51.31-1.83,1.46-2.58,3.11-2.74-1.62-3.76-3.29-6.28-4.17-1.82-.94,5.72-2.27,10.36-7.89,5.75-.97,2.67,1.56,5.03-.72,7.48-1.93-7.57-3.65-6.88-6.87-6.97.35.54.67,1.1.95,1.69,7.65,15.81-7.18,48.99,19.33,39.14,18.62,4.46-28.61,15.12-17.52,28.12,11.38,9.74,2.12,28.97,12.41,35.97,6.15-2.2-3.53-8.51,1.68-11.82,9.25-6.73,13.17.56,12.5,8.53,4.08,5.92,13.45-6.33,21.13-2.41,3.03-2.3,6.55-9.15,10.35-9.77,15.16-2.74,7.12-13.49,20.76-6.66,10.68-1.28,2.16,10.82,8.62,12.66,3.78.44,1.89-3.65,3.31-5.35,4.02-1.94,2.17,6.55,6.29,5.48,3.93-4.46,3.23-27.76-6.64-11.33-25.79-14.44,10.89-30.21,19.3-1.99,16.42-37.81,33.42,36.6,45-22.58,5.55-8.31,29.61.81,27.28-14.24-1.06-5.12,3.57-7.27,6.43-10.12,18.76.27-14.46,24.28,9.75,26.65,8.92,6.36,6.67.14,12.62-2.02,5.1,8.74-15.36,14.94-3.98,25.63,5.85,7.35-7.01,16.11-6.38,23.63h8.37c.24-.52.52-.99.88-1.37,3.92-3.31,5.1-1.64,5.74,1.37h8.11c-4.52-11.06-10.96-21.74-15.32-29.74,38.65-2.24,3.96-14.47,9.43-38.32ZM745.05,168.88c4.95.71,12.44,8.74,3.39,8.48-6.77,1.61-10.26-8.72-3.39-8.48ZM234.66,275.06c-4.75-7.94-10.29-1.05-14.83-4.68,3.33-8.51,23.77-9.95,14.83,4.68ZM242.11,241.44c-.55,1.29-3.29,3.32-3.72.83-.28-2.05,4.17-3.32,3.72-.83ZM256.83,251.04c-6.39,3.05-11.39-4.61-9.39-9.99-1.95-17.92,11.12,3.77,9.39,9.99Z"/>
        <path class="cls-17" d="M146.18,248.56c-3.7-4.15,4.65-7.29,6.76-9.17-.44.07-.97.02-1.6-.19-3.82-.7-4.93-3.86-5.33-6.65-.64.69-1.49,1.33-2.6,1.92-4.18,32.36-20.2,48.67-54.91,63.63-.63,14.62-17.59-4.93-23.16,2.75,7.88,11.59,13.45,15.14,18.14,15.93h4.98c3.46-.45,6.69-1.41,10.46,0h9.31c-12.71-38.29,41.01-21.22,37.95-68.22Z"/>
        <path class="cls-17" d="M240.44,205.69c-.54-2.3-.4-5.35-3.1-5.55-.28,6.71-.89,5.49-2.5,0-.67,2.91-1.76,3.87-2.85,4.2,2.95.75,6.02,1.53,8.45,1.35Z"/>
        <path class="cls-17" d="M364.94,274.72c-1.84,11.41-2.65,23.54,13.4,14.51-.93-4.62-12.31-7.1-13.4-14.51Z"/>
        <path class="cls-17" d="M386.63,273.01c-3.38.58-5.25,3.04-6.46,5.74,1.14,10.34,16.59-4.53,6.46-5.74Z"/>
        <path class="cls-17" d="M400.23,288.96c-3.97-.76-7.92,6.03-2.97,6.24,4.48.27,10.24-5.83,2.97-6.24Z"/>
        <path class="cls-17" d="M347.54,213.57c14.26-.86-5.35-20.67-6.68-6.45-.04,4.04,2.63,5.98,6.68,6.45Z"/>
        <path class="cls-17" d="M358.68,216.67c-2.78.6-5.13,1.86-5.7,4.61,1.41,8.06,13.98-4.25,5.7-4.61Z"/>
        <path class="cls-12" d="M815.16,152.16c.53.03,1.05.06,1.56.09-.33-1.34-.93-1.17-1.56-.09Z"/>
        <path class="cls-12" d="M770.11,309.6c.69-14.85-19.45-3.58-18.79,7.18h18.68c-.84-2.65-.92-5.14.11-7.18Z"/>
        <path class="cls-12" d="M792.52,309.62c-4.09-7.5-13.52,1.79-3.88,3.74,2.44.52,3.88,1.78,4.83,3.43h3.11c-1.38-1.84-2.75-4.19-4.06-7.16Z"/>
        <path class="cls-12" d="M818.19,284.04c-5.69-.63-6.75-4.83-6.73-8.66,1.41-9.98-11.37-12.75-11.97-21.71,0,0,0,.01,0,.02,0,0,0-.01,0-.02,0,0,0-.01,0-.02,0,0,0,.01,0,.02-10.23-18.64,26.57-9.12,23.02-25.79-22.82,3.85-21.36-8.99-21.79-26.61-6.76-8.81-11.57-24.86-7.26-36.49-.53-.41-1.08-.82-1.63-1.23-2.54,7.87-7.8,16.43-3.18,24.5-.21,14.4,20.77,26.79,5.66,41.87-4.65,15.25,12.62-7.95,12.76,5.15-25.82,13.74-9.19,15.2-3.69,32.36.19.13.38.27.58.4,1.65,2.66,1.82,5.45.95,8.16.31,6.13-.8,13.74-4.45,23.42,10.98,3.56,13.29,11.84,11.3,17.37h17.32c-1.71-15.19,21.23-34.9-10.89-32.74Z"/>
        <path class="cls-12" d="M830.92,147.82c-2.39,1.51-2.48,4.12-2.82,6.48.8.26,1.56.54,2.28.84-.21-2.33-.21-4.74.54-7.32Z"/>
        <path class="cls-12" d="M850.83,192.19c8.83,8.98-11.39,10.31-13.38,15.84,1.04,14.08,8.92-4.36,15.82-.79,21.95-12.3,5.24,26,54.37,40.55,0,0-.01,0-.02,0,.64.09,1.27.21,1.89.33-.19-.11-.38-.22-.58-.33,6.51-1.47,16.15,5.84,22.11,5.41,1.5-.62,2.8-1.48,3.97-2.51.6-1.06,1.03-2.5,1.25-4.42,35.68-47.83,36.65-39.35,38.95-22.4.75,1.75.95,3.89.92,6.2,1.83,10.78,5.59,22.56,18.67,25.55,22.3,4.93,29.34-13.62,45.68-19.42,29.86-8.28-9.55-37.84,17.66-47.64.71-1.51,1.31-2.94,1.85-4.3-.19-.87-.17-1.99.15-3.46.22-1.44.39-2.7.5-3.79-3.09,7.25-9.04,13.08-15.82,18.27-19.8,12.55,23.89,23.75-3.96,35.81-9.96,4.31-17.91,8.61-27.65.32-15.53-7.17-15.47,38.94-30.73,13.22,3.43-10.09-5.91-22.42.29-30.56,1.95-1.82,3.01-3.44,3.35-4.86,0-.72,0-1.4-.02-2.06-2.34-8.05-31.6-8.08-36.6-4.2-12.31,5.38,21.34,26.35-20.66,27.14-4.08,4.42,7.45,21.13-6.52,16.83-53.48-11.01-54.06-45.96-70.05-75.98-.24.6-.4,1.23-1.09,1.62-2.13-2.16-2.48-5.08-2.64-8.04-1.17-1.84-2.43-3.66-3.78-5.43-.46-.4-.91-.82-1.33-1.25-1.49.71-3.15,2.03-4.76,3.31,12.18,15.46-9.4,43.99,12.17,31.04ZM853.85,178.35c.05,3.66-5.47,1.74-5.57-.97.1-3.5,5.98-1.95,5.57.97Z"/>
        <path class="cls-12" d="M1018.17,184.6c-.74-3.47-1.24-6.57-1.54-9.35-9.82-5.66,6.72-16.68-8.39-9.99,1.73,7.42-.44,23.11,9.93,19.34Z"/>
        <path class="cls-12" d="M1176.07,249c-.92-1.6-1.86-3.41-2.83-5.45-6.35-2.76-11.67-5.77-16.16-8.95-1.22-.87-2.38-1.74-3.49-2.64,4.75,7.95,17.46,10.92,22.48,17.03Z"/>
        <path class="cls-12" d="M1179.72,290.66c7.17-13.41-14.09-23.04-27.72-21.28-15.33-4.34-15.66-27.09-34.62-24.36-18.05,13.22,27.65,12.36,13.63,24.97-.96.37-1.87.76-2.73,1.16-1.81,3.36-4.83,5.14-8.56,5.85-10.43,10.63-5.72,26.35-8.05,39.78h30.29c-1.97-4.09-2.58-7.71,3.72-7.89,7.61-.17,8.87,3.66,7.57,7.89h9.84c-.2-.31-.43-.62-.72-.95-12.03-11.94,7.8-11.06,8.48-22.13,8.67-13.28-4.87,14.56,12.94,15.33,2.96,1.04,4.23,2.26,2.6,5.25-.9.73-1.55,1.57-1.99,2.5h14.4c15.77-19.18-33.26-4.46-19.09-26.11ZM1123.43,289.61c1.82.14,3.17,1.03,3.71,2.41-.45,6.86-9.11-1.22-3.71-2.41ZM1123.2,312.45c-8.66,1.16-10.85-10.68,1.7-9.74,10.31-1.91,6.95,11.34-1.7,9.74ZM1135.12,295.87c1.75.17,2.02,1.7,2.52,2.89-.39,5.52-7.61-2.27-2.52-2.89ZM1144.83,289.05c-38.1-.04-8.62-23.7-1.81-17.74,1.7,4.38-2.7,13.82,6.37,12.19,7.12,1.08-.25,6.41-4.56,5.55ZM1155.47,296.97c.33-2.72,2.46-3.88,5.2-4.15,9.42,1.07-3.74,13.47-5.2,4.15ZM1162.82,283.05c-.38-2.3,3.4-1.59,3.53.26.08,2.33-3.48,1.67-3.53-.26Z"/>
        <path class="cls-12" d="M1079.53,308.22c-10-1.37-49.6-25.36-48.27-5.31,3.02,6.23,5.29,10.71,7.07,13.87h39.83c-.52-1.12.48-2.78,2.43-2.71,2.01-.03,2.47,1.59,1.81,2.71h10.45c-.24-7.03-.62-13.14-13.32-8.56ZM1041.74,298.99c7.32-3.3,5.95,7.65,13.23,6.06,7.79-.52,11.26,2.49,12.48,10.58-9.32-3.39-38.27-2.01-25.72-16.64Z"/>
        <path class="cls-12" d="M835.31,285.35c-.36-.14-.74-.27-1.13-.4.42.25.82.51,1.2.78-.02-.13-.04-.25-.06-.38Z"/>
        <path class="cls-12" d="M1107.28,209.48c.45.68.92,1.31,1.4,1.91,4.1,2.21,6.99,4.36,8.96,6.46,8.51,3.22,18.49,1.5,26.52,4.62-.7-.89-1.35-1.78-1.97-2.68-.22-.31-.43-.63-.64-.94-.15-.23-.3-.46-.45-.7-6.26-1.37-22.5,2.75-14.56-7.01,3.02-2.97,3.42-6.31,2.74-9.87-.56-.67-1.25-1.34-2.13-2-.88-2.07-2.11-3.64-3.34-4.67,1.16,8.49-1.17,10-4.48,9.3,1.9,2.01,4.74,4.76,2.18,8.17-6.43-11.29-8.62-7.27-14.74-6.45-.41-1.31-.51-2.66-.41-3.99-.35,1.43-.13,3.89.91,7.84Z"/>
        <path class="cls-12" d="M1237.77,272.35c-3.3-8.95-6.32-15.76-9.12-20.85-.89-1.62-1.75-3.06-2.6-4.34-.42-.63-.83-1.22-1.23-1.78,5.06,7.89,1.37,32.1,16.51,39.52,12.89,10.75-17.66,11.58-14.44,21.05,13.31,3.16,22.53-20.45,30.25,2.1,2.24,2.47,2.42,5.54,1.93,8.72h22c1.51-2.65,4.82-4.18,6.38,0h4.68c-13.92-36.26-25.97-22.13-54.36-44.43ZM1281.67,308.1c-5.01,8.64-16.04-4.49-19.55-8.26,5.02-18.89,7.84,2.35,16.41,3.7,2.33.41,4.85,1.79,3.14,4.56Z"/>
        <path class="cls-12" d="M1203.42,283.35c17.28-13.46-28.48-10.09,8.68-37.04,6.32-4.19,9.86-4.24,12.03-1.84-19.4-24.79-27.55,36.48-46.57,6.98.33.82.54,1.69.58,2.64-.24,12.28,19.05,19.78,25.28,29.26Z"/>
        <path class="cls-27" d="M904.99,153.29c1.23,2.13,2.49,4.23,3.79,6.14.4-6.62-1.33-7.41-3.79-6.14Z"/>
        <path class="cls-27" d="M918.57,164.15c-.43,1.21-.84,2.29-1.24,3.24.42.11.84.18,1.27.19-.04-1.06-.05-2.2-.03-3.44Z"/>
        <path class="cls-27" d="M990.51,168.63c.78.65,1.58,1.27,2.45,1.71-1.18-1.91-2.04-3.24-2.45-1.71Z"/>
        <path class="cls-27" d="M982.98,164.85c-.89-.01-1.53.41-1.93,1.1.83-.54,1.6-.85,2.31-.99-.12-.05-.24-.09-.39-.11Z"/>
        <path class="cls-27" d="M946.75,162.42c-.16-1.89-.53-3.8-1.76-4.24-.29,1.54-.71,2.85-1.21,3.96,1.08.29,2.06.37,2.97.28Z"/>
        <path class="cls-27" d="M1126.55,211.13c-7.94,9.76,8.3,5.64,14.56,7.01.15.03.29.07.42.11.23.07.44.14.64.22-.11-.27-.22-.54-.31-.81-.16-.45-.3-.92-.41-1.38-1.66-2.32-3.13-4.54-4.43-6.66-.49.3-1.01.67-1.57,1.16-4-2.13-3.09-5.85-6.16-9.52.68,3.56.28,6.9-2.74,9.87Z"/>
        <path class="cls-27" d="M848.53,164.53c-.05-.92-.08-1.84-.15-2.75-.1-.76-.25-1.4-.42-1.95-1.09-.5-1.98-1.32-2.47-2.52-.56-.03-1.17.12-1.82.4.36.45.72.91,1.07,1.37,1.35,1.78,2.61,3.59,3.78,5.43Z"/>
        <path class="cls-27" d="M922.32,246.93c13.97,4.3,2.44-12.41,6.52-16.83,42-.79,8.35-21.76,20.66-27.14,5-3.88,34.26-3.85,36.6,4.2.18.63.2,1.32.02,2.06-.34,1.42-1.39,3.04-3.35,4.86-6.19,8.14,3.15,20.48-.29,30.56,15.26,25.72,15.21-20.39,30.73-13.22,9.74,8.29,17.69,3.99,27.65-.32,27.85-12.06-15.84-23.27,3.96-35.81,6.78-5.18,12.73-11.02,15.82-18.27.52-5.15-.17-6.49-1.43-5.78-.48.85-1,1.75-1.57,2.7-1.04.98-1.97,1.96-2.81,2.95-2.47,4.09-4.97,9.08-5.9,10.49-.27.02-.53.01-.8,0-4.34,8.01-7.77,12.97-28.21,7.18-2.09.41-4.83-4.09-2.11-5.09,5.74-2.83,6.61-7.88,6.36-13.36-.37.45-.75.88-1.14,1.27-2.86-.53-4.93-1.26-6.41-2.11.3,2.78.81,5.88,1.54,9.35-10.38,3.77-8.21-11.92-9.93-19.34-1.19.53-2.57,1.16-4.17,1.92-.44,1.44-.89,2.65-1.32,3.68,1.94.8,3.19,2.17.79,3.12-1.03.05-1.95.18-2.79.38-1.07,1.26-2.1,1.54-3.06,1.24-9.86,6.13-.35,27.12-16.83,22.43-19.98-1.27-33.52-7.95-41.16,15.51-4.75,4.37.39,8.18.46,12.28-14.7-5.09-23.09,19.49-35.34,11.12-1.96-2.74.62-4.38,2.94-5.5,19.66-12.74-14.55-11.36-23.68-12.97-15.86-1.26-6.56-17.77-16.57-25.7-4.35-14.6,20.52-8.22-.58-22.8,18.4-7.45,20.36-10.39,20.71-15.16-2.82,2.81-7.2.96-10.21,3.1-.93-.49-1.55-1.19-2.02-1.86-1.06.08-2.14-.07-3.19-.38-.28.49-.59,1.09-.96,1.82-4.19,9.76-9.99,4.78-12.1-5.73-.49.54-.76,1.23-.89,2.02.06.2.11.41.14.63-.02.41-.09.8-.2,1.18.45,6.54,6.72,16.74-1.65,13.71-3.33-.24-3.9.68-4.28,1.65,15.99,30.02,16.57,64.98,70.05,75.98ZM1044.67,216.98c1.92-.06,2.24,2.75.33,2.93-1.86.27-2.19-2.72-.33-2.93ZM1004.66,185.38c-.83,2.53-2.58,2.82-5.14,2.57,1.04-2.22,2.49-2.99,5.14-2.57ZM999.13,223.26c3.63,1.51,10.72-14.55,12.68-2.82-37.15,55.84-27.53-6.97-12.68,2.82ZM996.14,198.49c-2.51,4.61,5.82,14.29-.32,14.6-9.08-3.42-7.92-11.14.32-14.6Z"/>
        <path class="cls-15" d="M1141.44,216.29c.24.34.48.67.73,1.02.05,0,.1-.01.15-.02,15.07-2.61,21.8,27.04,33.37,24.74.63-.13,1.27-.35,1.94-.67.34-.17.68-.35,1.03-.58,0,0,0,0,0,0,0,0,0,0,0,0,0,0,0,0,0,0,0,0,0,0,0,0-26.12-19.25-29.44-26.2-25.7-30.85-1.82-2.54-3.81-5.11-5.88-7.1-1.51.72-3.08,1.01-4.74.64,2.68,4.11,7.13,6.48,7.99,12.58-1.38-.58-2.55-1.34-3.57-2.15-.09.88-.85,1.62-2.68,1.85-2.17-.04-3.32-1.38-3.87-2.87.12-2.02.92-2.89,1.93-3.04-1.5-1.08-3.01-1.45-5.11-.18,1.3,2.12,2.77,4.33,4.43,6.66Z"/>
        <path class="cls-15" d="M1236.65,234.1c-.38-.58-.74-1.15-1.07-1.71-.5-.83-.96-1.63-1.38-2.41-1.06-1.98-1.85-3.79-2.4-5.45-.12,2.85,2.32,10.64,1.47,13.27,1.37-.78,2.53-1.96,3.39-3.7Z"/>
        <path class="cls-15" d="M1252.93,247.57c.97,1.24,1.87,2.15,2.6,2.57-4.44-12.29-4.42-17.22-2.57-19.13-.9-.91-1.81-2.02-2.75-3.36-2.13-1.52-3.98-2.23-5.59-2.46-1.7,4.87,4.01,16.87,8.31,22.37Z"/>
        <path class="cls-15" d="M1224.5,236.13c-2.4-.15-5.47-.55-9.37-1.23-11.61-3.1-25.13,15.79-33.02,10.67-.28-.03-.57-.06-.85-.11,12.63,12.54,19.26-11.12,32.6-7.93,5,.32,11.37,2.27,16.35,1.35-.77-.35-1.17-1.43-1.45-2.81-1.09.14-2.49.17-4.25.06Z"/>
        <path class="cls-15" d="M1225.87,216.91c-.13-.02-.24-.02-.36,0,.09,1.24.38,2.47.79,3.69.55-1.48.83-2.81-.44-3.68Z"/>
        <path class="cls-5" d="M1215.13,234.89c-6.59-5.82-16.48,5.76-17.34-7.85-1.37-5.91-10.78-4.88-5.08.94,3.85,6.32-.17,16.23-6.57,16.6-1.45.09-3.03-.32-4.66-1.37-.93-.6-1.87-1.4-2.83-2.45,0,0,0,0,0,0,0,0,0,0,0,0,.21.53.44,1.02.67,1.47.62,1.21,1.32,2.12,2.06,2.78.24.21.48.39.72.56,7.89,5.12,21.41-13.77,33.02-10.67Z"/>
        <path class="cls-5" d="M1360.37,292.13c-.62,2.35-1.12,4.21.56,5.8,3.58,1.04,3.33-4.6-.56-5.8Z"/>
        <path class="cls-2" d="M277.59,194.24c-.19-1.83-.14-3.61.12-5.28-1.31.98-2.93,2.3-4.56,3.73,1.93,1.35,3.34,1.77,4.44,1.55Z"/>
        <path class="cls-2" d="M286.68,214.48c6.89-2.52,8.25-7.62,12.72-8.05-.71-1.11-1.16-2.72-1.86-3.82-4.19,1.53-8.1,4.21-10.49,9.53-3.13-2.95-5.44-6.18-7.02-9.45-.44.77-.94,1.45-1.58,1.8.5,4.52,2.79,9.39,8.23,9.97Z"/>
        <path class="cls-2" d="M315.28,187.1c-.17,0-.34.02-.5.05-.1.58-.2,1.17-.3,1.76,4.57,10.2-1.61,10.55-9.51,11.9-.12,2.52-.47,4.89-1.43,6.34,1.64.6,3.6,1.6,6.02,3.12,19.49,4.59,16.48-10.88,5.72-23.17ZM315.6,206.91c6.82,1.05-2.26,7.47-2.77,1.78.11-1.49,1.45-1.73,2.77-1.78Z"/>
        <path class="cls-2" d="M313.76,214.95c-1.41-1.06-2.83-2.59-4.2-4.69,1.32,2.44,2.74,3.93,4.2,4.69Z"/>
        <path class="cls-30" d="M309.56,210.26c1.37,2.1,2.78,3.63,4.2,4.69,10.65,7.97,21.07-11.62,9.6-26.81-.95-.61-2.11-1.09-3.6-1.37-.29-1.28-.55-2.36-.8-3.27-.92-.78-1.91-1.53-2.98-2.26-.4,1.31-.75,3.27-1.11,5.38.14.16.28.31.42.47,10.76,12.29,13.77,27.76-5.72,23.17Z"/>
        <path class="cls-10" d="M99.36,280.45c-2.75-4.59-5.64-21.09-13.61-11.99-1.42,4.32,10.67,22.69,13.61,11.99Z"/>
        <path class="cls-10" d="M82.02,258.94c.82,4.89,9.21,4.85,9.22-.14.29-1.71-.41-2.71-1.53-3.16.04.56.08,1.15.13,1.76-2.14.87-3.67.1-4.84-1.34-1.4.63-2.58,1.64-2.98,2.88Z"/>
        <path class="cls-5" d="M1178.65,240.76s0,0,0,0c-10.07-13.24-19.88-19.61-21.77-25.26-1.18-1.65-2.51-3.61-3.93-5.6-3.74,4.66-.42,11.6,25.7,30.85Z"/>
        <path class="cls-5" d="M1147.07,202.8c-2.12-2.04-4.33-3.48-6.53-3.65.34,1.68.99,3.06,1.79,4.29,1.67.38,3.24.08,4.74-.64Z"/>
        <path class="cls-13" d="M786.43,160.18c-1.57-.75-3.22-1.28-4.94-1.46-.36.79-1.01,1.6-2.05,2.43,1.71,1.39,1.61,2.8.74,4.16.82-.28,1.72-.56,2.7-.85,2.55.45,3.59-1.29,3.55-4.28Z"/>
        <path class="cls-13" d="M749.59,306.37c5.21-6.35-8.71-10.68-.93-17.17,10.49-5.46-6.44-17.18,2.85-18.71,28.37.25,8.79,33.21,47.04,12.38,6.31-6.91,4.99-12.71,1.48-18.22-1.83-1.79-3.25-3.75-4.37-5.83-3.89-4.76-7.98-9.51-8.53-14.79,6.93-9.8-3.23-19.88-2.01-30.4.89-8.48-9.44.9-12.23-3.06,32.65-29.46-5.07-35.09.54-41.78-.46-.5-.68-1.1-.78-1.79-3.74,4.52-5.01,9.95,2.83,12.79,12.87,20.3-1.24,22.29-13.57,37.51,4.49,31.31,21.94,7.35,22.77,30.41,9.47,8.55,21.32,42.39-2.07,37.13,2.12-14.15-18.25-10.33-24.02-22.56-.95-1.1-1.75-2.13-2.51-2.75-.73-.14-1.45-.23-2.15-.25-.65.5-1.31,1.59-2.07,3.54-1.77,5.58-18.28,10.3-9.17,17.08,1.87,7.64-10.53,16.15,1.17,24.05,1.11,4.12,1.32,8.5,2.01,12.83h2.45c-1.22-3.52-1.4-7,1.26-10.41ZM782.46,223.72c.24,17.36-18.13,2.95-11.8-6.46,5.73-5.38,13.35-.14,11.8,6.46Z"/>
        <path class="cls-13" d="M472.63,310.22c-2.83,3.47,9.63,3.33,2.98,6.26-1.01.07-1.97.16-2.89.29h16.38c-4.55-3.25-10.44-11.65-16.47-6.56Z"/>
        <path class="cls-13" d="M680.62,303.34c-5.73,5.21-12.4,13.19-15.4.41-2.78-7.47,21.19-14.9,8.19-21.97-7.65-3.03,6.88-8.76.75-14.68-3.33-4.24,2.08-8.4,6.5-5.41,12.03-4.13,40.25-3.76,38.5-14.77-9.98-31.55-12.87-21.59-30.32-32.34-.69-22.79-20.33-22.39-38.8-20.2-.26.03-.51.06-.77.09-11.03,1.34-21.54,3.22-27.22,1.05-10.71-14.38-35.57,6.84-47.9-10.41-9.05-3.79-38.23,39.13-14.43,38.07,50.05-10.21,15.29-1.92,34.09,11.75,13.11,9.06-8.48,5.94-10.68,11.36-20.7,11.97-13.68,22.23-37.44,7.79-16.22-2.21-13.21-19.57-29.67-18.87-9.62-13.24-28.51-.29-35.95-6.64-6.06-13.58-18.41,6.66-20.17-4.89-3.19-4.76-11.63,2.63-5.97,4.99,7.72,1.91,5.23,5.25,1.8,8.91-4,2.77.28,8.27-4.21,10.39-22.05-12.01-28.01,19.5.62,24.25,8.68,12.9,27.43,11.41,35.68,24.25,2.24,3.22,6.59,5.25,9.34,3.43,5.84-7.86,25.45,16.12,13.26,14.63-6.25,2.27-12.04-2.68-16.72,2.23h68.67c9.65-13.1,22.42-17.29,33.15,0h40.25c.06-6.34,4.22-13.76-5.49-17.31-10.94-4.56-10.21-19.09-21.33-21.31-9.54.03.07-7.95-5.05-11.03-5.86-3.52-7.22-9.71-3.88-15.27,10.06-12.43-3.73-20.82-2.72-31.67,6.13-14.96,91.71-37.14,89.21-6.01-4.94,18.19,40.67,26.52,24.37,35.86-10.82,7.2-38.58,2.88-40.6,14.47.61,4.49.5,8.41-6.71,5.18-7.53-1.92-7.21,16.74-.95,20.15-9.32,12.78-6.31,21.16,1.27,26.95h13.62c1.03-3.74,5.74-9.31,3.15-13.43Z"/>
        <path class="cls-13" d="M803.95,267.82c-.2-.13-.38-.27-.58-.4.8,2.49,1.36,5.32,1.53,8.57.87-2.71.7-5.51-.95-8.16Z"/>
        <path class="cls-16" d="M502.83,164.87c.61,1.9,1.26,3.77,1.66,5.55.71-1.24.41-2.92-1.66-5.55Z"/>
        <path class="cls-16" d="M659.2,162.16c27.87,16.85,18.49-1.18,25.8-9.26-3.62-9.15-3.32-6.85-3.6,5.83-4.66,2.84-8.6-6.42-13.29-2.12.36,2.92,4.01,1.74,3.28,4.46-7,6.39-8.97-.28-10.1-6.25-2.45,2.16-5.84,3.85-2.09,7.33Z"/>
        <path class="cls-16" d="M482.81,189.06c-13.17,46.98,34.71,3.08,56.23,3.3,12.33,1.08,17.39-17.19,25.47-26.71-.03-.06-.06-.11-.09-.16.13-2.04.09-3.93-.15-5.44-1.72.22-3.81.06-6.12-.31-1.33,1.82-2.89,4.5-4.7,8.22,1.33-2.74-5.85-8.54-5.68-10.53-1.16-.28-2.32-.56-3.47-.83-.7,2.7-1.19,6.68-1.51,8.88-1.08-1.72-1.89-5.83-2.71-9.77-5.78-1.08-11.07-1.33-14.37,1-.76,2.03-1.71,3.88-3.16,4.79-.81,5.54,17.66-4.01,12.74,6.58-5.01,14.13-21.97,5.64-30.39,12.9-2.62,4.56-11.35,4.23-13.29-.64,1.31-3.5,4.49-5.17,7.41-6.5-1.66-2.14-4.06-3.52-5.6-5.79-1.15,1.11-2.64,2-4.27,2.76.15,6.7-8.87,7.33-10.03,3.93-5.08,2.38-6.9,5.66,3.71,14.3Z"/>
        <path class="cls-16" d="M474.04,167.26c-.53-2.29-.99-4.56-2.42-6.03-2.14,2.18-2.45,7.76-1,11.81.8-2.22,1.72-4.4,3.42-5.77Z"/>
        <path class="cls-16" d="M634.03,146.49c-1.41,6.15,1.96,12.18-1.91,17.04.14,1.71.63,3.35.74,4.6,2.19-1.51,4.24-3.2,6.27-4.92-.76-5.76-1.4-13.31-5.1-16.71Z"/>
        <path class="cls-16" d="M570.38,160.94c.61-.27,1.23-.47,1.88-.62-.94-.71-1.51-.32-1.88.62Z"/>
        <path class="cls-16" d="M693.55,163.15c6.54,7.61-14.08,11.29-2.3,17.97,12.28,4.85,17.81-19.38,27.02-22.2-1.01-5.53-1.21-16.15-3.88-7.32-3,9.94-3.38-12.69-6.93-4.17-8.71,31.52-1.28-26.93-11.72,3.2-.04,1.92-1.23,4.02-2.73,5.66-.31,2.37-.85,5.01.54,6.87Z"/>
        <path class="cls-16" d="M656.68,151.63c1.22-.42,2.49-.77,3.83-1.05-.68-3.25-1.49-4.44-3.83,1.05Z"/>
        <path class="cls-16" d="M629.66,170.13c-2.34-21.8-6.74-9.75-12.19,1.67-1.07-6.03-2.01-10.62-2.84-14.06-2.14-.8-4.79-3.92-6.86-4.05-1.44,3.85-3.02,8.24-5.5,6.24-6.22,5.1-13.73,3-19.46-1.73-.25,1.81-.6,3.94-1.16,5.68,25.25,12.87,38.33,11.64,48,6.26Z"/>
        <path class="cls-16" d="M728.51,164.32c14.49,7.63,8.47-3.78,6.04-12.73-9.6,5.13-6.78-17.21-14.89,7.07,2.58-.16,5.46,1.4,8.84,5.66Z"/>
        <path class="cls-16" d="M643.82,151.78c-.6,4.55-.95,6.91-.93,8.26,1.44-1.2,2.92-2.37,4.46-3.47-1.33-1.83-2.57-3.82-3.53-4.79Z"/>
        <path class="cls-16" d="M404.79,203.42c11.6,5.03,23.91,1.4,27.08-9.87-2.98-4.3-11.31.35-13.64-4.9-1.22-3.93,4.25-4.69,6.99-2.72,15.63,5.73,23.02-12.13,36.79-5.68,1.79.52,3.13.47,4.19.02-2.36-2.81-3.74-3.88-4.37-3.89-9.71-25.93-8.09,8.78-20.32-.82,3.39-8.47.82-16.15-5.63-6.06-2.22,5.84-2.24-14.33-11.3,1.25-.78-26.07-4.11-5.94-11.12,2.75,1.18,2.19,3.43,3.93,7.89,4.69-2.73,5.81-18.31,8.05-17-1.49.17-.16.32-.32.47-.48-.68-1.16-1.15-2.44-1.04-4.12-4.3-7.78-.49,4.47-7.27-1.8-.02-.45-.08-.91-.15-1.36-1.14,13.58-6.86,36.76,8.44,34.47ZM415.79,194.18c3.41.61,4.84,3.08,5.82,5.56-.74,8.41-16.62-2.68-5.82-5.56Z"/>
        <path class="cls-16" d="M388.19,171.12c-1.78-.25-3.76-4.27-5.51,4.31,1.88.04,4.01-1.79,5.51-4.31Z"/>
        <path class="cls-4" d="M717.68,310.14c-11.24-15.83-6.45-23.82-26.97-6.39-6.31.46-13.89-11.46-8.61-17.86-.53-6.46-10.97-21.59-1.19-24.03-.08-.06-.17-.12-.26-.18-4.41-2.99-9.83,1.17-6.5,5.41,6.13,5.92-8.4,11.65-.75,14.68,13,7.07-10.97,14.5-8.19,21.97,3,12.78,9.66,4.8,15.4-.41,2.59,4.13-2.12,9.69-3.15,13.43h42.11c.86-2.6,1.07-5.15-1.89-6.64ZM675.46,300.24c.12,3.03-6.06,6.28-5.81,1.67.06-2.63,6-5.81,5.81-1.67Z"/>
        <path class="cls-4" d="M742.71,279.9c-9.11-6.78,7.4-11.49,9.17-17.08.75-1.95,1.42-3.04,2.07-3.54.72-.55,1.41-.36,2.15.25.75.61,1.56,1.65,2.51,2.75,5.77,12.23,26.14,8.41,24.02,22.56,23.39,5.26,11.54-28.58,2.07-37.13-.83-23.06-18.28.89-22.77-30.41,12.33-15.22,26.45-17.22,13.57-37.51-7.84-2.84-6.57-8.27-2.83-12.79-.2-1.32.05-2.92-.11-4.59-.1.07-.2.15-.31.23-13.92,9.61,11.43,38.84-9.79,42.2-13.43-1.11,5.03,27.21-10.01,24.43-11.63-1.85-11.54-1.73-17.64,6.59-10.18,15.71,7.36,5.33,13.68,9.31-6.44,12.95-9.08,35.29-28.8,39.42-16.62,5.67,1.63,18.88,12.71,19.38,7.37,2.35,6.94,7.41,6.8,12.8h6.7c-.68-4.33-.9-8.71-2.01-12.83-11.7-7.9.7-16.41-1.17-24.05ZM792.86,277.34c1.42,8.79-9.53,5.98-7.76-1.64-.74-10.15,8.98-7.04,7.76,1.64ZM780.58,250.55c4.83,3.65,9.08,14.26.28,14.47-6.42-1.6-2.66-10.61-.28-14.47ZM761.75,235.26c12.02.45-3.69,21.35-5.7,8.92.61-3.49,1.43-7.33,5.7-8.92Z"/>
        <path class="cls-4" d="M781.49,158.72c-1.7-.17-3.48,0-5.33.67,1.48.58,2.55,1.16,3.28,1.76,1.04-.83,1.7-1.64,2.05-2.43Z"/>
        <path class="cls-17" d="M577.97,240.15c.02-7.38-1.31-8.12-12.7-7.9-13.16,8.43,13.12,25.7,12.7,7.9Z"/>
        <path class="cls-13" d="M628.45,177.01c-11.23.81,1.08,6.39,2.58,10.9,12.44,7.18,9.46-11.96-2.58-10.9Z"/>
        <path class="cls-13" d="M431.32,301.09c.37,4.34,11.88,9,13.11,3.68-.54-5.15-12.27-11.39-13.11-3.68Z"/>
        <path class="cls-13" d="M673.41,180.61c-2.35,0-3.55,3.45-.72,3.01,1.7-.35,2.63-2.22.72-3.01Z"/>
        <path class="cls-11" d="M247.44,241.04c-2.01,5.39,3,13.04,9.39,9.99,1.74-6.23-11.34-27.91-9.39-9.99Z"/>
        <path class="cls-11" d="M219.83,270.38c4.54,3.63,10.08-3.27,14.83,4.68,8.94-14.63-11.5-13.19-14.83-4.68Z"/>
        <path class="cls-16" d="M748.44,177.36c9.05.26,1.56-7.77-3.39-8.48-6.87-.23-3.38,10.09,3.39,8.48Z"/>
        <path class="cls-11" d="M238.39,242.27c.44,2.49,3.17.46,3.72-.83.44-2.49-4-1.22-3.72.83Z"/>
        <path class="cls-19" d="M1119.91,193.44c-.54.41-.69,1.3-.2,2.72.22-.89.28-1.8.2-2.72Z"/>
        <path class="cls-19" d="M1030.47,295.76c.65-.98,1.64-1.6,2.89-1.93,3.12-1.4,8.09-2.26,15.68-2.46,14.13-8.23,2.53,21.63,26.33-3.72,17.18-4.04-13.18-10.81-7.11-19.33,13.47-17.9,30.7,19.65,43.26-.62.07,7.96,5.66,10.37,10.72,7.07.34-.26.69-.52,1.05-.77,1.54-1.27,2.99-3.08,4.17-5.45.47-2.94-.56-4.77-2.34-6.09-1.02-.52-1.96-1.03-2.84-1.54-5.35-2.27-12.89-3.25-13.31-10.35-1.26-4.07-9.95-8.13-.15-8.81,19.63-5.36,6.16-31-8.43-32.79.82,16.28-23.06,23.19-19.86,39.04-9.05,4.25-6.2-4.79-5.48-9.2-2.35-13.42,19.22-17.01,18.07-31.88,3.79-12.13,8.42-13.55,15.16-12.46,1.43-3.8,1.91-5.27-6.3-.61-4.56.75-1.88-5.89-4.7-6.79-2.29-1.41-2.15-3.93-1.7-7.45-2.21,8.09-4.38.37-6.77.82,1.89,3.88,3.55,7.46,3.24,12.16-4.92-3.58-7.52-6.13-4.22,2.52-7.66-1.14-3.49-9.79-6.07-14.38-4.65-.1-2.63,8.68-6.48,10.52.46-13.02-2.26-11.75-6.44-.82,0,.03-.01.06-.02.09,1.33,8.95-6.55,10.78-7,3.77-.11-.08-.21-.16-.32-.26-15.69,2.69,6.4,21.39-2.6,29.96-1.44,1.18-2.32,2.16-2.8,3-.08.7-.21,1.36-.37,2,1.01,3.37,11.22,3.09,4.97,6.84-35.66,4.19-11.76,10.26-29.37,23.68-85.08,11.82-40.14-40.21-68.64-35.93-10.27,1.76-6.43,14.52-16.14,16.75-11.84,7.5-4.6,29.56-27.79,22.11-1.32-5.68-3.23-10.68-9.26-14.3-.62-.13-1.25-.24-1.89-.33-50.81,9.66-8.89-1.3-22.64-5.3-18.37,15.62-78.81-16.91-85.49,11.14,0,0,0,.01,0,.02,0,0,0,.01,0,.02,9.5,17.35,45.98-1.3,17.39,25.99,8,1.33,13.55,3.06,17.29,5.29.4.12.78.25,1.13.4.02.13.04.25.06.38,8.69,6.12,5.56,15.78,1.69,31.04h7.19c5.31-15.39.5-31.5-5.41-47.97,5.21-15.11,12.16,3.68,10.98,11.01,14.74,19.08,5.19-26.39,24.55-16.8,25.12,11.61,36.78-26.01,37.49-2.4-7.16,21.69,33.5-6.38,43.79,2.14,3.22,1.38,6.97-1.4,9.99-3.36,11.43-7.4,13.83-7.27,24.2.79,10.95,9.81,32.36-6.34,38.55,9.24,19.91,17.56,10.42-30.67,27.14-29.71,6.02.33,16.25-3.69,13.37,5.46,2.99,8.88-2.25,18.12-13.21,20.12-8.21,1.76-5.2,12-15.14,13.68-4.59,11.81-30.96-1.85-24.99,12.49,6,8.67-1.91,17.25-2.86,25.31h21.66c-3.1-8.95-8.23-16.52-3.89-21.02ZM960.37,245.21c-2.61.08-2.24-4.38.16-4.47,2.29.39,1.77,4.22-.16,4.47ZM1067.19,282.54c-1.81,7.47-16.71,3.32-14.91-3.65-1.02-13.97,13.46-4.48,14.91,3.65ZM1017.49,309.44c.25-4.14,8.47-3.65,8.44.33.08,5.01-8.92,4.33-8.44-.33Z"/>
        <path class="cls-19" d="M975.22,223.88c.27,1.98.56,4.07.92,6.2.03-2.31-.16-4.45-.92-6.2Z"/>
        <path class="cls-19" d="M1117.64,217.84c-1.97-2.1-4.86-4.25-8.96-6.46,2.64,3.25,5.69,5.22,8.96,6.46Z"/>
        <path class="cls-19" d="M1119.73,277c3.73-.71,6.76-2.49,8.56-5.85-1.88.88-3.53,1.83-4.99,2.85-.35.29-.7.54-1.05.77-.93.72-1.77,1.46-2.52,2.23Z"/>
        <path class="cls-22" d="M1257.14,308.06c-7.72-22.55-16.94,1.06-30.25-2.1-3.22-9.46,27.34-10.3,14.44-21.05-15.14-7.42-11.45-31.63-16.51-39.52-.21-.33-.44-.64-.69-.91-2.17-2.4-5.71-2.35-12.03,1.84-37.16,26.95,8.6,23.58-8.68,37.04-6.23-9.48-25.52-16.99-25.28-29.26-.05-.94-.25-1.82-.58-2.64-.36-.88-.86-1.69-1.48-2.45-5.01-6.11-17.73-9.08-22.48-17.03-.53-.89-.96-1.84-1.27-2.86-.06-.2-.12-.4-.17-.61-.91-1.22-1.9-2.24-2.94-3.1-1.56-1.29-3.26-2.24-5.05-2.93-8.02-3.12-18.01-1.4-26.52-4.62-3.27-1.24-6.32-3.21-8.96-6.46-.48-.59-.95-1.22-1.4-1.91-1.05-3.95-1.27-6.4-.91-7.84.2-2.67,1.18-5.24,1.92-7.19-6.74-1.09-11.37.33-15.16,12.46,1.15,14.86-20.42,18.45-18.07,31.88-.72,4.42-3.57,13.45,5.48,9.2-3.19-15.85,20.69-22.76,19.86-39.04,14.59,1.79,28.06,27.43,8.43,32.79-9.8.68-1.1,4.74.15,8.81.41,7.1,7.95,8.09,13.31,10.35,1.05.45,2.02.94,2.84,1.54,1.78,1.32,2.81,3.15,2.34,6.09-1.18,2.37-2.63,4.18-4.17,5.45,1.46-1.02,3.11-1.97,4.99-2.85.86-.4,1.77-.79,2.73-1.16,14.01-12.61-31.68-11.75-13.63-24.97,18.95-2.73,19.28,20.03,34.62,24.36,13.63-1.76,34.89,7.87,27.72,21.28-14.17,21.65,34.86,6.94,19.09,26.11h60.27c.48-3.18.3-6.25-1.93-8.72Z"/>
        <path class="cls-22" d="M1040.49,236.2c-16.34,5.81-23.38,24.36-45.68,19.42-13.08-2.99-16.84-14.77-18.67-25.55-.36-2.13-.65-4.22-.92-6.2-2.31-16.95-3.27-25.43-38.95,22.4-.22,1.92-.65,3.36-1.25,4.42-.95,1.67-2.32,2.39-3.97,2.51-5.97.44-15.6-6.87-22.11-5.41.2.11.39.22.58.33,6.03,3.62,7.94,8.62,9.26,14.3,23.19,7.46,15.95-14.61,27.79-22.11,9.72-2.23,5.88-14.99,16.14-16.75,28.5-4.28-16.44,47.76,68.64,35.93,17.62-13.43-6.29-19.5,29.37-23.68,6.25-3.75-3.96-3.47-4.97-6.84-.17-.56-.08-1.21.37-2,.48-.84,1.36-1.82,2.8-3,9-8.57-13.1-27.27,2.6-29.96.11.09.21.18.32.26-.01-.16-.02-.32-.02-.49,7.82-8.14-.67-4.26-1.8-9.52-.54,1.36-1.14,2.79-1.85,4.3-27.21,9.81,12.19,39.36-17.66,47.64Z"/>
        <path class="cls-22" d="M1123.81,194.6c-1.57-1.32-3.13-1.74-3.9-1.16.08.92.02,1.83-.2,2.72.37,1.07,1.12,2.43,2.35,4.1-5.48.48-4.53,1.72-2.72,3.64,3.31.7,5.64-.81,4.48-9.3Z"/>
        <path class="cls-22" d="M1068.83,190.47s0,.02,0,.04c0-.03.01-.06.02-.09,0,.02-.01.03-.02.05Z"/>
        <path class="cls-22" d="M1119.73,277c.76-.77,1.6-1.52,2.52-2.23-5.07,3.29-10.65.89-10.72-7.07-12.56,20.27-29.79-17.28-43.26.62-6.07,8.53,24.29,15.3,7.11,19.33-23.8,25.34-12.2-4.51-26.33,3.72-7.59.2-12.57,1.06-15.68,2.46-1.24.56-2.19,1.21-2.89,1.93-4.34,4.5.8,12.06,3.89,21.02h3.97c-1.77-3.16-4.05-7.63-7.07-13.87-1.34-20.05,38.26,3.94,48.27,5.31,12.7-4.58,13.09,1.54,13.32,8.56h18.83c2.33-13.42-2.39-29.15,8.05-39.78Z"/>
        <path class="cls-22" d="M1123.3,273.99c-.36.25-.71.51-1.05.77.35-.23.7-.49,1.05-.77Z"/>
        <path class="cls-27" d="M800.45,299.4c3.65-9.68,4.76-17.3,4.45-23.42-.16-3.24-.73-6.07-1.53-8.57-5.5-17.16-22.13-18.62,3.69-32.36-.15-13.1-17.41,10.1-12.76-5.15,15.11-15.08-5.87-27.47-5.66-41.87-4.62-8.07.64-16.63,3.18-24.5-1.7-1.25-3.49-2.46-5.39-3.36.05,2.99-1,4.73-3.55,4.28-.99.29-1.88.57-2.7.85-1.05,1.65-3.22,3.23-4.63,4.6-1-.25-1.67-.64-2.11-1.12-5.62,6.69,32.1,12.32-.54,41.78,2.78,3.96,13.11-5.42,12.23,3.06-1.23,10.52,8.94,20.6,2.01,30.4.55,5.28,4.64,10.03,8.53,14.79,1.57,1.93,3.11,3.86,4.37,5.83,3.51,5.5,4.83,11.31-1.48,18.22-38.26,20.83-18.67-12.13-47.04-12.38-9.29,1.53,7.64,13.25-2.85,18.71-7.78,6.49,6.14,10.81.93,17.17-2.66,3.41-2.48,6.89-1.26,10.41h2.99c-.66-10.76,19.48-22.03,18.79-7.18-1.03,2.04-.96,4.54-.11,7.18h7.86c-.09-.8-.05-1.55.12-2.22,1.19.65,2.61,1.39,4.05,2.22h11.43c-.95-1.64-2.39-2.91-4.83-3.43-9.65-1.95-.22-11.23,3.88-3.74,1.31,2.97,2.68,5.32,4.06,7.16h15.17c1.99-5.53-.32-13.82-11.3-17.37ZM766.57,284.25c.06,7.53-9.1,5.56-9.55-.96-.26-6.79,10.38-5.57,9.55.96ZM788.33,299.72c-.29-2.47,4.74-5.11,5.43-1.76.14,2.38-5.02,5.09-5.43,1.76Z"/>
        <path class="cls-22" d="M800.71,201.26c.43,17.62-1.03,30.45,21.79,26.61,3.55,16.67-33.24,7.16-23.02,25.79,0,0,0-.01,0-.02,6.69-28.05,67.12,4.48,85.49-11.14,13.75,4-28.17,14.96,22.64,5.3,0,0,.01,0,.02,0-49.13-14.55-32.42-52.85-54.37-40.55-6.89-3.57-14.77,14.87-15.82.79,1.99-5.53,22.21-6.86,13.38-15.84-21.57,12.95,0-15.58-12.17-31.04-3.56,2.82-6.86,5.41-7.52.58-.15-2.18-.56-4.35-.77-6.59-.72-.3-1.48-.58-2.28-.84-.24,1.62-.59,3.13-1.89,4.07-7.57,2.92-11.08,22.15-9.24-2.34.03-1.81-.07-3.03-.25-3.78-.51-.04-1.03-.07-1.56-.09-1.87,3.2-3.94,14.43.43,17.55-.57.74-.81-1.12-1.41-.73-4.9,4.93-3.95-4.35-6.92-2.32-3.88,6.06-8.36,2.28-13.82-1.9-4.31,11.64.5,27.68,7.26,36.49Z"/>
        <path class="cls-21" d="M1186.39,314.27c1.63-2.99.36-4.21-2.6-5.25-17.81-.77-4.27-28.61-12.94-15.33-.68,11.07-20.51,10.19-8.48,22.13.28.33.52.64.72.95h21.3c.44-.93,1.09-1.78,1.99-2.5Z"/>
        <path class="cls-22" d="M835.37,285.73c-.38-.27-.77-.52-1.2-.78-3.74-2.23-9.29-3.96-17.29-5.29,28.59-27.29-7.89-8.64-17.39-25.99,0,0,0-.01,0-.02.6,8.96,13.38,11.74,11.97,21.71-.02,3.84,1.04,8.03,6.73,8.66,32.12-2.16,9.18,17.55,10.89,32.74h7.99c3.87-15.27,7-24.93-1.69-31.04Z"/>
        <path class="cls-21" d="M1149.39,283.5c-9.07,1.63-4.66-7.81-6.37-12.19-6.82-5.96-36.3,17.69,1.81,17.74,4.31.86,11.68-4.47,4.56-5.55Z"/>
        <path class="cls-21" d="M1054.97,305.05c-7.29,1.6-5.91-9.36-13.23-6.06-12.55,14.63,16.39,13.25,25.72,16.64-1.22-8.09-4.7-11.1-12.48-10.58Z"/>
        <path class="cls-22" d="M1278.53,303.55c-8.57-1.35-11.39-22.59-16.41-3.7,3.51,3.77,14.53,16.9,19.55,8.26,1.71-2.76-.81-4.14-3.14-4.56Z"/>
        <path class="cls-22" d="M1145.69,308.88c-6.3.18-5.69,3.8-3.72,7.89h11.29c1.3-4.23.04-8.06-7.57-7.89Z"/>
        <path class="cls-21" d="M1124.9,302.71c-12.55-.93-10.36,10.9-1.7,9.74,8.65,1.6,12.01-11.65,1.7-9.74Z"/>
        <path class="cls-21" d="M1281.07,316.78h6.38c-1.56-4.18-4.86-2.65-6.38,0Z"/>
        <path class="cls-22" d="M1160.67,292.81c-2.74.27-4.87,1.43-5.2,4.15,1.46,9.32,14.62-3.08,5.2-4.15Z"/>
        <path class="cls-22" d="M853.85,178.35c.41-2.92-5.47-4.47-5.57-.97.1,2.71,5.63,4.63,5.57.97Z"/>
        <path class="cls-22" d="M1127.15,292.02c-.55-1.38-1.89-2.28-3.71-2.41-5.4,1.2,3.26,9.27,3.71,2.41Z"/>
        <path class="cls-21" d="M1080.59,314.07c-1.94-.08-2.94,1.59-2.43,2.71h4.23c.66-1.11.2-2.73-1.81-2.71Z"/>
        <path class="cls-22" d="M1135.12,295.87c-5.09.62,2.12,8.41,2.52,2.89-.49-1.19-.76-2.71-2.52-2.89Z"/>
        <path class="cls-22" d="M1162.82,283.05c.06,1.93,3.62,2.59,3.53.26-.13-1.85-3.92-2.56-3.53-.26Z"/>
        <path class="cls-15" d="M1002.74,170.86c-.68,1.6-1.35,2.73-2,3.5.84-.2,1.76-.33,2.79-.38,2.4-.95,1.15-2.32-.79-3.12Z"/>
        <path class="cls-15" d="M866.91,169.97c21.1,14.58-3.77,8.2.58,22.8,10.01,7.92.71,24.43,16.57,25.7,9.12,1.61,43.34.22,23.68,12.97-2.32,1.11-4.89,2.76-2.94,5.5,12.24,8.37,20.64-16.21,35.34-11.12-.07-4.09-5.2-7.9-.46-12.28,7.64-23.45,21.18-16.78,41.16-15.51,16.48,4.69,6.97-16.3,16.83-22.43-1.84-.57-3.46-3.24-4.71-5.26-.87-.44-1.68-1.06-2.45-1.71-.11.41-.19,1.03-.23,1.91,2.05,5.18-2.75,5.48-4.89,1.87-1.7-1.96.17-6.55-2.01-7.45-.71.13-1.48.44-2.31.99-.46.79-.61,1.94-.48,3.19-9.08,7.62-14.87-14.75-13.86,5-2.05,6.26,3.46-34.64-19.09-7.62-.77.48-.67-1.79-.87-4.1-.9.09-1.89,0-2.97-.28-3.9,8.57-13.17,4.81-12.11-6.25-3.84,8.37-12.45,27.51-13.07,11.7-.43-.02-.85-.08-1.27-.19-5.16,12.27-8.45,4.52-9.67.44.63-3.5.98-6.25,1.11-8.4-1.29-1.91-2.56-4.01-3.79-6.14-5.16,2.67-13.49,14.44-11.76.25,2.35-4.64-2.39-6.75-3.73-2.14-.48,1.58-1.12,2.66-1.87,3.41-.35,4.77-2.31,7.72-20.71,15.16Z"/>
        <path class="cls-15" d="M1017.82,189.45c-2.73.99.02,5.5,2.11,5.09,20.44,5.8,23.87.83,28.21-7.18-4.83-.32-8.52-6.24-7.93-13.06-4.33,9.44-9.36-7.11-13.79-1.37-.72,1.12-1.45,2.19-2.23,3.15.24,5.48-.63,10.53-6.36,13.36Z"/>
        <path class="cls-15" d="M1059.22,171.24c-1.14.64-2.76,2.95-4.38,5.65.84-.99,1.77-1.97,2.81-2.95.57-.95,1.09-1.85,1.57-2.7Z"/>
        <path class="cls-15" d="M1011.81,220.44c-1.96-11.73-9.05,4.33-12.68,2.82-14.85-9.79-24.48,53.02,12.68-2.82Z"/>
        <path class="cls-15" d="M875.4,156.05c-1.31-1.88-1.38-3.6-3.19-.38,1.05.31,2.13.45,3.19.38Z"/>
        <path class="cls-15" d="M858.26,153.78c-.09.56-.1,1.16-.06,1.8.11-.37.17-.77.2-1.18-.03-.21-.08-.42-.14-.63Z"/>
        <path class="cls-15" d="M847.97,159.83c-.55-1.75-1.41-2.46-2.47-2.52.49,1.19,1.38,2.02,2.47,2.52Z"/>
        <path class="cls-15" d="M995.82,213.09c6.14-.31-2.2-9.98.32-14.6-8.23,3.46-9.4,11.18-.32,14.6Z"/>
        <path class="cls-15" d="M1004.66,185.38c-2.65-.42-4.11.35-5.14,2.57,2.57.26,4.31-.04,5.14-2.57Z"/>
        <path class="cls-15" d="M1045,219.91c1.91-.18,1.58-3-.33-2.93-1.86.21-1.53,3.2.33,2.93Z"/>
        <path class="cls-5" d="M1140.19,212.85c.55,1.48,1.69,2.82,3.87,2.87,1.83-.23,2.59-.97,2.68-1.85-1.84-1.45-3.22-3.06-4.62-4.06-1.01.15-1.82,1.02-1.93,3.04Z"/>
        <path class="cls-10" d="M277.59,194.24c.08.81.21,1.64.39,2.47.79-3.08,2.09-6.1,2.2-9.33-.52.21-1.39.78-2.47,1.58-.26,1.68-.31,3.45-.12,5.28Z"/>
        <path class="cls-10" d="M314.48,188.91c-1.25,7.33-2.78,14.53-6.6,2.96-3.93-5.49-2.6,2.26-2.91,8.94,7.9-1.35,14.08-1.7,9.51-11.9Z"/>
        <path class="cls-10" d="M287.05,212.15c2.39-5.33,6.3-8,10.49-9.53-.65-1.03-1.53-1.62-3.05-.98-.61-1.09-1.24-1.34-1.82-2.48-.35-11.22-7.94-6.34-4.54,1.25-.59-.01-2.25.86-2.63.73-3.15-5.52-3.85-1.3-5.47,1.56,1.57,3.27,3.89,6.5,7.02,9.45Z"/>
        <path class="cls-10" d="M315.6,206.91c-1.33.05-2.67.3-2.77,1.78.52,5.69,9.6-.73,2.77-1.78Z"/>
        <path class="cls-12" d="M662.58,289.83c-6.26-3.4-6.59-22.06.95-20.15,7.22,3.23,7.33-.69,6.71-5.18,2.02-11.58,29.79-7.27,40.6-14.47,16.3-9.35-29.31-17.68-24.37-35.86,2.5-31.13-83.09-8.94-89.21,6.01-1.01,10.85,12.78,19.24,2.72,31.67-3.33,5.56-1.98,11.74,3.88,15.27,5.12,3.08-4.49,11.07,5.05,11.03,11.12,2.22,10.39,16.75,21.33,21.31,9.71,3.56,5.55,10.98,5.49,17.31h28.1c-7.58-5.78-10.59-14.16-1.27-26.95ZM645.23,264.64c-7.44,4.93,1.92,14.17-5.57,19.26-10.44,6.5-17.6-5.55-16.05-14.1-.05-3.46,3.02-8.68-4.33-7.13-15.05-1.27-1.72-25.09-12.57-33.72-8.6-11.93,86.82-37.01,75.82-9.68-1.7,8.96,22.2,25.13,4.75,28.43-23.6,1.14-17.34,23.06-42.05,16.95Z"/>
        <path class="cls-12" d="M562.34,316.78h33.15c-10.73-17.29-23.5-13.1-33.15,0Z"/>
        <path class="cls-27" d="M770.66,217.27c-6.33,9.4,12.05,23.82,11.8,6.46,1.54-6.6-6.08-11.83-11.8-6.46Z"/>
        <path class="cls-14" d="M491.59,180.35c1.94,4.86,10.67,5.19,13.29.64,8.42-7.26,25.37,1.23,30.39-12.9,4.92-10.59-13.55-1.04-12.74-6.58-.91.57-2.01.76-3.38.39-2.96-23.19-8.11,26.76-17.43-7.72-1.03,3.46-.04,7.14,1.1,10.69,2.07,2.63,2.37,4.31,1.66,5.55.73,3.26.63,6.24-2.06,8.63-.5.52-1.51.62-1.58-.34-.15-2.1-.87-3.61-1.84-4.86-2.92,1.33-6.1,3.01-7.41,6.5Z"/>
        <path class="cls-14" d="M602.27,159.93c-.93-.75-1.98-2.39-3.19-5.28-1.61.7-3.91.35-4.17-1.31-.1-1.43,1.29-2.32,2.74-2.47-.46-1.32-.94-2.8-1.44-4.45-.64-13.22-8.17,10.67-12.97,8.52-.11.68-.24,1.87-.43,3.25,5.72,4.73,13.24,6.83,19.46,1.73Z"/>
        <path class="cls-14" d="M564.26,160.05c-.61-3.88-2.51-5.25-6.12-.31,2.31.37,4.4.53,6.12.31Z"/>
        <path class="cls-14" d="M540.06,155.72c-1.26-6.02-2.55-11.65-4.91-7.8-.82,1.11-1.68,4.11-3.2,1.91-3.73-3.92-4.42,2-6.26,6.89,3.29-2.33,8.58-2.08,14.37-1Z"/>
        <path class="cls-14" d="M547.76,157.4c-1.51-5.41-2.64-3.99-3.47-.79,1.16.27,2.32.55,3.47.83,0-.01,0-.02,0-.04Z"/>
        <path class="cls-14" d="M607.77,153.69c2.07.13,4.72,3.26,6.86,4.05-3.25-13.39-4.93-9.21-6.86-4.05Z"/>
        <path class="cls-14" d="M421.35,178.19c-4.46-.75-6.71-2.5-7.89-4.69-.28.35-.57.69-.87,1-2.51-14.52-5.53.77-4.36,7.36-.71-2.28-2.34-3.79-3.42-5.64-.15.16-.3.32-.47.48-1.3,9.54,14.27,7.31,17,1.49Z"/>
        <path class="cls-14" d="M421.62,199.74c-.98-2.48-2.42-4.95-5.82-5.56-10.79,2.88,5.09,13.97,5.82,5.56Z"/>
        <path class="cls-24" d="M761.75,235.26c-4.26,1.59-5.09,5.43-5.7,8.92,2.01,12.43,17.71-8.47,5.7-8.92Z"/>
        <path class="cls-24" d="M785.1,275.7c-1.77,7.61,9.18,10.43,7.76,1.64,1.22-8.68-8.5-11.78-7.76-1.64Z"/>
        <path class="cls-24" d="M780.86,265.02c8.8-.21,4.55-10.82-.28-14.47-2.38,3.86-6.14,12.87.28,14.47Z"/>
        <path class="cls-24" d="M669.66,301.92c-.26,4.6,5.93,1.36,5.81-1.67.19-4.14-5.75-.96-5.81,1.67Z"/>
        <path class="cls-25" d="M1015.57,291.47c-5.97-14.33,20.4-.68,24.99-12.49,9.95-1.68,6.93-11.93,15.14-13.68,10.96-2,16.19-11.25,13.21-20.12,2.87-9.15-7.35-5.13-13.37-5.46-16.72-.96-7.23,47.27-27.14,29.71-6.2-15.58-27.6.57-38.55-9.24-10.37-8.06-12.77-8.18-24.2-.79-3.03,1.96-6.77,4.74-9.99,3.36-10.29-8.52-50.95,19.55-43.79-2.14-.71-23.61-12.37,14.01-37.49,2.4-19.35-9.59-9.8,35.88-24.55,16.8,1.18-7.33-5.77-26.12-10.98-11.01,5.91,16.47,10.72,32.58,5.41,47.97h54.19c-.1-2.56,1.61-4.4,5.57-6.91,3.16-6.19.16-15.45,12.26-15.13,34.35,22.73,10.93-8.52,40.65-5.53,13.48,3.29,26.26,16.81,38.72,27.57h17.07c.95-8.06,8.86-16.64,2.86-25.31Z"/>
        <path class="cls-22" d="M1067.19,282.54c-1.45-8.14-15.94-17.63-14.91-3.65-1.8,6.97,13.1,11.13,14.91,3.65Z"/>
        <path class="cls-25" d="M1017.49,309.44c-.48,4.66,8.52,5.34,8.44.33.03-3.97-8.18-4.47-8.44-.33Z"/>
        <path class="cls-22" d="M960.52,240.74c-2.4.09-2.77,4.55-.16,4.47,1.93-.25,2.45-4.08.16-4.47Z"/>
        <path class="cls-13" d="M777.87,316.78h4.17c-1.43-.83-2.86-1.57-4.05-2.22-.17.67-.21,1.42-.12,2.22Z"/>
        <path class="cls-12" d="M757.02,283.29c.45,6.52,9.61,8.48,9.55.96.83-6.53-9.81-7.75-9.55-.96Z"/>
        <path class="cls-13" d="M788.33,299.72c.41,3.32,5.56.62,5.43-1.76-.69-3.34-5.72-.7-5.43,1.76Z"/>
        <path class="cls-3" d="M682.53,219.27c11-27.33-84.41-2.25-75.82,9.68,10.85,8.63-2.48,32.45,12.57,33.72,7.35-1.55,4.28,3.67,4.33,7.13-1.55,8.55,5.61,20.6,16.05,14.1,7.49-5.08-1.87-14.33,5.57-19.26,24.71,6.11,18.45-15.81,42.05-16.95,17.45-3.29-6.45-19.47-4.75-28.43Z"/>
        <path class="cls-16" d="M594.9,153.35c.27,1.66,2.57,2,4.17,1.31-.45-1.08-.93-2.33-1.43-3.77-1.45.14-2.84,1.04-2.74,2.47Z"/>
        <path class="cls-7" d="M916.27,294.74c-12.1-.32-9.1,8.94-12.26,15.13-3.97,2.51-5.67,4.34-5.57,6.91h97.2c-12.46-10.75-25.24-24.28-38.72-27.57-29.72-2.99-6.3,28.26-40.65,5.53Z"/>
      </g>
    </g>
  </g>
</svg>