<?xml version="1.0" encoding="UTF-8"?>
<svg id="_レイヤー_2" data-name="レイヤー 2" xmlns="http://www.w3.org/2000/svg" viewBox="0 0 385 272">
  <defs>
    <style>
      .cls-1, .cls-2 {
        font-family: 'LINESeedJP_OTF-Bold-90ms-RKSJ-H', 'LINE Seed JP_OTF';
        font-size: 30px;
        font-weight: 700;
        letter-spacing: .14em;
      }

      .cls-3 {
        fill: #fff;
      }

      .cls-2 {
        fill: none;
        stroke: #fff;
        stroke-linecap: round;
        stroke-linejoin: round;
        stroke-width: 5px;
      }
    </style>
  </defs>
  <g id="_01データ" data-name="01データ">
    <g>
      <g>
        <circle class="cls-3" cx="187.53" cy="92" r="38"/>
        <g>
          <g>
            <g>
              <path d="M150.96,153.06c-.28,1.26-.58,1.91-1.19,2.57-.82.91-2.05,1.38-3.61,1.38-3.44,0-5.53-2.15-5.53-5.7s2.07-5.61,5.55-5.61c1.62,0,2.97.61,3.83,1.72.44.58.63,1.02.82,1.93l-3.11.57c-.08-.45-.18-.71-.42-1-.33-.4-.78-.63-1.28-.63-1.44,0-2.22,1.06-2.22,3.01,0,1.11.28,1.98.8,2.5.37.35.88.57,1.39.57s.95-.16,1.28-.48c.35-.33.49-.66.56-1.25l3.15.43Z"/>
              <path d="M151.7,151.33c0-3.42,2.08-5.62,5.36-5.62s5.32,2.19,5.32,5.57-2.15,5.72-5.32,5.72-5.36-2.21-5.36-5.67ZM159.22,151.31c0-1.9-.81-3.02-2.17-3.02s-2.2,1.12-2.2,3.02.83,3.07,2.2,3.07,2.17-1.16,2.17-3.07Z"/>
              <path d="M163.51,156.73c.08-.59.1-1.21.1-2.02v-6.82c0-.75-.03-1.35-.1-1.98.61.03,1.15.04,2.02.04h2.84c2.65,0,4.13,1.29,4.13,3.6s-1.55,3.82-4.11,3.82h-1.73v1.3c0,.8.04,1.48.1,2.07h-3.26ZM168.19,150.78c.73,0,1.18-.43,1.18-1.15s-.42-1.11-1.18-1.11h-1.53v2.26h1.53Z"/>
              <path d="M179.97,154.71c0,.69.03,1.31.1,2.02h-3.29c.08-.66.1-1.26.1-2.02v-2.24l-2.88-4.85c-.1-.18-.29-.45-1.1-1.68h3.84c.13.39.28.77.58,1.38l1.1,2.2,1.1-2.19c.38-.76.48-1,.58-1.39h3.83c-.69,1.06-1.05,1.62-1.09,1.68l-2.88,4.85v2.24Z"/>
            </g>
            <g>
              <path d="M193.52,145.94c1.09,0,1.98.3,2.58.9.51.51.77,1.23.77,2.14s-.28,1.71-.81,2.19c-.28.25-.52.38-1.07.58.63.19.9.42,1.23,1.07q.1.19.8,1.91c.3.75.54,1.3.87,2.01h-3.51c-.1-.54-.23-.96-.58-1.95-.47-1.29-.56-1.45-.9-1.68-.21-.14-.47-.2-.81-.2h-.91v1.76c0,.92.03,1.45.1,2.07h-3.25c.08-.59.1-1.02.1-2.06v-6.77c0-.87-.03-1.39-.1-2,.56.03,1.12.04,2.05.04h3.45ZM192.76,150.3c.59,0,.95-.35.95-.94s-.34-.88-.95-.88h-1.59v1.82h1.59Z"/>
              <path d="M202.11,145.94c-.08.56-.1,1-.1,2.02v6.75c0,.95.03,1.47.1,2.02h-3.31c.08-.54.1-1.09.1-2.02v-6.75c0-1.07-.01-1.45-.1-2.02h3.31Z"/>
              <path d="M213.2,153.68c0,.96.03,1.43.09,2.03-.76.51-1.12.68-1.78.9-.81.24-1.78.39-2.65.39-1.45,0-2.74-.34-3.58-.96-1.33-.97-2.05-2.62-2.05-4.7,0-1.76.52-3.17,1.52-4.17.96-.96,2.34-1.47,3.95-1.47s2.92.49,3.78,1.45c.35.42.56.77.85,1.6l-3.11.69c-.14-.47-.27-.67-.56-.87-.27-.19-.62-.29-1.06-.29-1.44,0-2.21,1.06-2.21,3.08,0,.91.19,1.74.51,2.19.39.56.96.81,1.79.81.61,0,1.05-.1,1.64-.38v-1.05c-1.24,0-1.38.01-1.79.06v-2.62c.51.06.8.08,1.76.08h1.23c.69,0,1.19-.03,1.77-.08-.06.49-.09.92-.09,1.81v1.48Z"/>
              <path d="M217.7,152.53v2.19c0,.88.03,1.42.1,2.02h-3.23c.08-.54.1-1.04.1-2.02v-6.75c0-.96-.03-1.45-.1-2.02h3.23c-.08.62-.1,1.19-.1,2.02v1.9h3.74v-1.9c0-.97-.03-1.52-.1-2.02h3.25c-.08.56-.1,1.12-.1,2.02v6.75c0,.88.03,1.4.1,2.02h-3.25c.08-.57.1-1.07.1-2.02v-2.19h-3.74Z"/>
              <path d="M232,154.66c0,.82.03,1.4.1,2.07h-3.32c.08-.66.1-1.24.1-2.07v-6.03h-1.36c-.82,0-1.38.03-2.02.09v-2.87c.66.06,1.23.09,2,.09h5.85c.86,0,1.4-.03,2.03-.09v2.87c-.64-.06-1.12-.09-2.03-.09h-1.34v6.03Z"/>
            </g>
          </g>
          <g>
            <path d="M187.08,132.56c-22.3,0-40.44-18.14-40.44-40.44s18.14-40.44,40.44-40.44,40.44,18.14,40.44,40.44-18.14,40.44-40.44,40.44ZM187.08,58.6c-18.49,0-33.52,15.04-33.52,33.52s15.04,33.52,33.52,33.52,33.52-15.04,33.52-33.52-15.04-33.52-33.52-33.52Z"/>
            <path d="M170.24,92.31c0-13.06,8.26-20.64,18.82-20.64,4.99,0,9.09,2.38,11.75,5.01l-4.91,5.52c-1.88-1.74-4-2.83-6.85-2.83-5.59,0-9.68,4.75-9.68,12.64s4.08,12.8,10.03,12.8c2.84,0,5.19-1.4,7.1-3.48l4.91,5.39c-3.21,3.8-7.62,5.79-12.93,5.79-9.79,0-18.25-6.92-18.25-20.2Z"/>
          </g>
        </g>
      </g>
      <path class="cls-3" d="M188,10c53.76,0,97.5,43.74,97.5,97.5s-43.74,97.5-97.5,97.5-97.5-43.74-97.5-97.5S134.24,10,188,10M188,0c-59.37,0-107.5,48.13-107.5,107.5s48.13,107.5,107.5,107.5,107.5-48.13,107.5-107.5S247.37,0,188,0h0Z"/>
      <g>
        <text class="cls-2" transform="translate(57.8 226.07)"><tspan x="0" y="0">知的財産権の保護</tspan></text>
        <text class="cls-1" transform="translate(57.8 226.07)"><tspan x="0" y="0">知的財産権の保護</tspan></text>
      </g>
    </g>
  </g>
</svg>